<mxfile host="app.diagrams.net" modified="2023-10-21T22:32:47.787Z" agent="Mozilla/5.0 (Windows NT 10.0; Win64; x64) AppleWebKit/537.36 (KHTML, like Gecko) Chrome/117.0.0.0 Safari/537.36" etag="t9b6U8SCaarU4Z_ZQvF_" version="22.0.4" type="google">
  <diagram name="PÃ¡gina-1" id="YCUOHm_zFWkNhDvQKk8u">
    <mxGraphModel grid="1" page="1" gridSize="10" guides="1" tooltips="1" connect="1" arrows="1" fold="1" pageScale="1" pageWidth="827" pageHeight="1169" math="0" shadow="0">
      <root>
        <mxCell id="0" />
        <mxCell id="1" parent="0" />
        <mxCell id="qwDfuw3enS2oKEGdYXwS-15" style="edgeStyle=orthogonalEdgeStyle;rounded=0;orthogonalLoop=1;jettySize=auto;html=1;exitX=1;exitY=0.5;exitDx=0;exitDy=0;" edge="1" parent="1" source="qwDfuw3enS2oKEGdYXwS-11" target="U3krhh0B3n7ER5-2B62J-59">
          <mxGeometry relative="1" as="geometry">
            <mxPoint x="640" y="360" as="targetPoint" />
            <Array as="points">
              <mxPoint x="220" y="370" />
              <mxPoint x="276" y="370" />
              <mxPoint x="276" y="290" />
            </Array>
          </mxGeometry>
        </mxCell>
        <mxCell id="2q1pVqS0Al537EC6Pk_O-125" value="152.152.24.46" style="edgeLabel;html=1;align=center;verticalAlign=middle;resizable=0;points=[];" connectable="0" vertex="1" parent="qwDfuw3enS2oKEGdYXwS-15">
          <mxGeometry x="0.154" y="-1" relative="1" as="geometry">
            <mxPoint y="-1" as="offset" />
          </mxGeometry>
        </mxCell>
        <mxCell id="2q1pVqS0Al537EC6Pk_O-5" style="edgeStyle=orthogonalEdgeStyle;rounded=0;orthogonalLoop=1;jettySize=auto;html=1;" edge="1" parent="1" source="qwDfuw3enS2oKEGdYXwS-11" target="U3krhh0B3n7ER5-2B62J-57">
          <mxGeometry relative="1" as="geometry" />
        </mxCell>
        <mxCell id="qwDfuw3enS2oKEGdYXwS-11" value="" style="strokeColor=#dddddd;shadow=1;strokeWidth=1;rounded=1;absoluteArcSize=1;arcSize=2;" vertex="1" parent="1">
          <mxGeometry x="30.76" y="220" width="190" height="380" as="geometry" />
        </mxCell>
        <mxCell id="U3krhh0B3n7ER5-2B62J-1" value="Cliente" style="shape=umlActor;verticalLabelPosition=bottom;verticalAlign=top;html=1;outlineConnect=0;" vertex="1" parent="1">
          <mxGeometry x="51.51" y="380" width="20" height="50" as="geometry" />
        </mxCell>
        <mxCell id="U3krhh0B3n7ER5-2B62J-7" value="|" style="swimlane;whiteSpace=wrap;html=1;" vertex="1" parent="1">
          <mxGeometry x="320" y="70" width="910" height="380" as="geometry" />
        </mxCell>
        <mxCell id="2q1pVqS0Al537EC6Pk_O-66" style="edgeStyle=orthogonalEdgeStyle;rounded=0;orthogonalLoop=1;jettySize=auto;html=1;entryX=0.013;entryY=0.667;entryDx=0;entryDy=0;entryPerimeter=0;" edge="1" parent="U3krhh0B3n7ER5-2B62J-7" target="2q1pVqS0Al537EC6Pk_O-20">
          <mxGeometry relative="1" as="geometry">
            <mxPoint x="300" y="140.00000000000023" as="sourcePoint" />
            <mxPoint x="490" y="60" as="targetPoint" />
            <Array as="points">
              <mxPoint x="300" y="130" />
              <mxPoint x="360" y="130" />
              <mxPoint x="360" y="70" />
            </Array>
          </mxGeometry>
        </mxCell>
        <mxCell id="2q1pVqS0Al537EC6Pk_O-89" value="10.0.0.1" style="edgeLabel;html=1;align=center;verticalAlign=middle;resizable=0;points=[];" connectable="0" vertex="1" parent="2q1pVqS0Al537EC6Pk_O-66">
          <mxGeometry x="0.6796" y="-1" relative="1" as="geometry">
            <mxPoint x="-1" as="offset" />
          </mxGeometry>
        </mxCell>
        <mxCell id="2q1pVqS0Al537EC6Pk_O-67" style="edgeStyle=orthogonalEdgeStyle;rounded=0;orthogonalLoop=1;jettySize=auto;html=1;entryX=0;entryY=0.5;entryDx=0;entryDy=0;" edge="1" parent="U3krhh0B3n7ER5-2B62J-7" target="2q1pVqS0Al537EC6Pk_O-22">
          <mxGeometry relative="1" as="geometry">
            <mxPoint x="300" y="109.99703703703696" as="sourcePoint" />
            <mxPoint x="440" y="119.96000000000001" as="targetPoint" />
            <Array as="points">
              <mxPoint x="300" y="130" />
            </Array>
          </mxGeometry>
        </mxCell>
        <mxCell id="2q1pVqS0Al537EC6Pk_O-90" value="10.0.0.2" style="edgeLabel;html=1;align=center;verticalAlign=middle;resizable=0;points=[];" connectable="0" vertex="1" parent="2q1pVqS0Al537EC6Pk_O-67">
          <mxGeometry x="0.5514" y="4" relative="1" as="geometry">
            <mxPoint x="-4" y="29" as="offset" />
          </mxGeometry>
        </mxCell>
        <mxCell id="2q1pVqS0Al537EC6Pk_O-68" style="edgeStyle=orthogonalEdgeStyle;rounded=0;orthogonalLoop=1;jettySize=auto;html=1;entryX=0;entryY=0.5;entryDx=0;entryDy=0;" edge="1" parent="U3krhh0B3n7ER5-2B62J-7">
          <mxGeometry relative="1" as="geometry">
            <mxPoint x="300" y="270" as="sourcePoint" />
            <mxPoint x="507" y="270" as="targetPoint" />
            <Array as="points">
              <mxPoint x="350" y="270" />
              <mxPoint x="350" y="270" />
            </Array>
          </mxGeometry>
        </mxCell>
        <mxCell id="2q1pVqS0Al537EC6Pk_O-91" value="10.0.0.3" style="edgeLabel;html=1;align=center;verticalAlign=middle;resizable=0;points=[];" connectable="0" vertex="1" parent="2q1pVqS0Al537EC6Pk_O-68">
          <mxGeometry x="0.5371" y="-4" relative="1" as="geometry">
            <mxPoint x="-1" as="offset" />
          </mxGeometry>
        </mxCell>
        <mxCell id="2q1pVqS0Al537EC6Pk_O-69" style="edgeStyle=orthogonalEdgeStyle;rounded=0;orthogonalLoop=1;jettySize=auto;html=1;entryX=0.003;entryY=0.427;entryDx=0;entryDy=0;entryPerimeter=0;" edge="1" parent="U3krhh0B3n7ER5-2B62J-7">
          <mxGeometry relative="1" as="geometry">
            <mxPoint x="300" y="300" as="sourcePoint" />
            <mxPoint x="507.45000000000005" y="345.6200000000001" as="targetPoint" />
            <Array as="points">
              <mxPoint x="300" y="270" />
              <mxPoint x="410" y="270" />
              <mxPoint x="410" y="346" />
            </Array>
          </mxGeometry>
        </mxCell>
        <mxCell id="2q1pVqS0Al537EC6Pk_O-88" value="10.0.0.4" style="edgeLabel;html=1;align=center;verticalAlign=middle;resizable=0;points=[];" connectable="0" vertex="1" parent="2q1pVqS0Al537EC6Pk_O-69">
          <mxGeometry x="0.6592" y="1" relative="1" as="geometry">
            <mxPoint x="-1" y="-9" as="offset" />
          </mxGeometry>
        </mxCell>
        <mxCell id="2q1pVqS0Al537EC6Pk_O-326" style="edgeStyle=orthogonalEdgeStyle;rounded=0;orthogonalLoop=1;jettySize=auto;html=1;entryX=0;entryY=0.5;entryDx=0;entryDy=0;" edge="1" parent="U3krhh0B3n7ER5-2B62J-7" source="U3krhh0B3n7ER5-2B62J-11" target="2q1pVqS0Al537EC6Pk_O-331">
          <mxGeometry relative="1" as="geometry">
            <mxPoint x="480" y="195" as="targetPoint" />
            <Array as="points">
              <mxPoint x="370" y="200" />
              <mxPoint x="370" y="200" />
            </Array>
          </mxGeometry>
        </mxCell>
        <mxCell id="2q1pVqS0Al537EC6Pk_O-334" value="10.0.0.10" style="edgeLabel;html=1;align=center;verticalAlign=middle;resizable=0;points=[];" connectable="0" vertex="1" parent="2q1pVqS0Al537EC6Pk_O-326">
          <mxGeometry x="0.3018" relative="1" as="geometry">
            <mxPoint as="offset" />
          </mxGeometry>
        </mxCell>
        <mxCell id="U3krhh0B3n7ER5-2B62J-11" value="" style="strokeColor=#dddddd;shadow=1;strokeWidth=1;rounded=1;absoluteArcSize=1;arcSize=2;" vertex="1" parent="U3krhh0B3n7ER5-2B62J-7">
          <mxGeometry x="200" y="60" width="100" height="270" as="geometry" />
        </mxCell>
        <mxCell id="U3krhh0B3n7ER5-2B62J-12" value="Load&lt;br&gt;Balancer" style="sketch=0;dashed=0;connectable=0;html=1;fillColor=#757575;strokeColor=none;shape=mxgraph.gcp2.network_load_balancer;part=1;labelPosition=right;verticalLabelPosition=middle;align=left;verticalAlign=middle;spacingLeft=5;fontSize=12;" vertex="1" parent="U3krhh0B3n7ER5-2B62J-11">
          <mxGeometry y="0.5" width="32" height="32" relative="1" as="geometry">
            <mxPoint x="5" y="-16" as="offset" />
          </mxGeometry>
        </mxCell>
        <mxCell id="qwDfuw3enS2oKEGdYXwS-8" value="" style="edgeStyle=orthogonalEdgeStyle;rounded=0;orthogonalLoop=1;jettySize=auto;html=1;" edge="1" parent="U3krhh0B3n7ER5-2B62J-7" source="U3krhh0B3n7ER5-2B62J-59" target="U3krhh0B3n7ER5-2B62J-11">
          <mxGeometry relative="1" as="geometry" />
        </mxCell>
        <mxCell id="2q1pVqS0Al537EC6Pk_O-82" value="" style="edgeStyle=orthogonalEdgeStyle;rounded=0;orthogonalLoop=1;jettySize=auto;html=1;" edge="1" parent="U3krhh0B3n7ER5-2B62J-7" source="U3krhh0B3n7ER5-2B62J-59" target="U3krhh0B3n7ER5-2B62J-11">
          <mxGeometry relative="1" as="geometry" />
        </mxCell>
        <mxCell id="U3krhh0B3n7ER5-2B62J-59" value="" style="strokeColor=#dddddd;shadow=1;strokeWidth=1;rounded=1;absoluteArcSize=1;arcSize=2;" vertex="1" parent="U3krhh0B3n7ER5-2B62J-7">
          <mxGeometry x="13" y="150" width="137" height="140" as="geometry" />
        </mxCell>
        <mxCell id="U3krhh0B3n7ER5-2B62J-60" value="Cloud&#xa;Firewall Rules" style="editableCssRules=.*;html=1;fontColor=#999999;shape=image;verticalLabelPosition=middle;labelBackgroundColor=#ffffff;verticalAlign=middle;labelPosition=right;align=left;spacingLeft=20;part=1;points=[];imageAspect=0;image=data:image/svg+xml,PHN2ZyB4bWxucz0iaHR0cDovL3d3dy53My5vcmcvMjAwMC9zdmciIHhtbG5zOnY9Imh0dHBzOi8vdmVjdGEuaW8vbmFubyIgd2lkdGg9IjIwIiBoZWlnaHQ9IjIwIiBmaWxsPSIjNDI4NWY0IiB2aWV3Qm94PSIwIDAgMjAgMjAiPiYjeGE7CTxzdHlsZSB0eXBlPSJ0ZXh0L2NzcyI+JiN4YTsJLnN0MHtmaWxsOiM0Mjg1ZjQ7fSYjeGE7CTwvc3R5bGU+JiN4YTsJPHBhdGggY2xhc3M9InN0MCIgZD0iTTAgMGg4Ljg5djIuMjJIMHptMCAxNy43OGg4Ljg5VjIwSDB6bTAtOC44OWg4Ljg5djIuMjJIMHpNMTEuMTEgMEgyMHYyLjIyaC04Ljg5em0wIDE3Ljc4SDIwVjIwaC04Ljg5em0wLTguODlIMjB2Mi4yMmgtOC44OXpNNS41NSA0LjQ0aDguODl2Mi4yMkg1LjU1em0wIDguODloOC44OXYyLjIySDUuNTV6TTAgNC40NGgzLjMzdjIuMjJIMHptMCA4Ljg5aDMuMzN2Mi4yMkgwem0xNi42Ny04Ljg5SDIwdjIuMjJoLTMuMzN6bTAgOC44OUgyMHYyLjIyaC0zLjMzeiIvPiYjeGE7PC9zdmc+;" vertex="1" parent="U3krhh0B3n7ER5-2B62J-59">
          <mxGeometry width="30" height="30" relative="1" as="geometry">
            <mxPoint x="15" y="15" as="offset" />
          </mxGeometry>
        </mxCell>
        <mxCell id="2q1pVqS0Al537EC6Pk_O-20" value="" style="strokeColor=#dddddd;shadow=1;strokeWidth=1;rounded=1;absoluteArcSize=1;arcSize=2;" vertex="1" parent="U3krhh0B3n7ER5-2B62J-7">
          <mxGeometry x="507" y="30" width="150" height="60" as="geometry" />
        </mxCell>
        <mxCell id="2q1pVqS0Al537EC6Pk_O-21" value="&lt;font color=&quot;#000000&quot;&gt;Web Server 1&lt;/font&gt;" style="editableCssRules=.*;html=1;fontColor=#999999;shape=image;verticalLabelPosition=middle;labelBackgroundColor=#ffffff;verticalAlign=middle;labelPosition=right;align=left;spacingLeft=20;part=1;points=[];imageAspect=0;image=data:image/svg+xml,PHN2ZyB4bWxucz0iaHR0cDovL3d3dy53My5vcmcvMjAwMC9zdmciIHhtbG5zOnY9Imh0dHBzOi8vdmVjdGEuaW8vbmFubyIgd2lkdGg9IjIwIiBoZWlnaHQ9IjE2IiB2aWV3Qm94PSIwIDAgMjAgMTYiPiYjeGE7CTxzdHlsZSB0eXBlPSJ0ZXh0L2NzcyI+JiN4YTsJLnN0MHtmaWxsOiM0Mjg1ZjQ7fSYjeGE7CS5zdDF7ZmlsbDojNjY5ZGY2O30mI3hhOwkuc3Qye2ZpbGw6I2FlY2JmYTt9JiN4YTsJLnN0M3tmaWxsOiNmZmY7fSYjeGE7CTwvc3R5bGU+JiN4YTsJPHBhdGggY2xhc3M9InN0MiIgZD0iTTAgMGgyMHY3SDB6Ii8+JiN4YTsJPHBhdGggY2xhc3M9InN0MSIgZD0iTTE4IDBoMnY3aC0yeiIvPiYjeGE7CTxwYXRoIGNsYXNzPSJzdDAiIGQ9Ik0xOCA3bDItN2gtMnoiLz4mI3hhOwk8cGF0aCBjbGFzcz0ic3QxIiBkPSJNMCAwaDJ2N0gweiIvPiYjeGE7CTxnIGNsYXNzPSJzdDMiPiYjeGE7CQk8cGF0aCBkPSJNNCAzaDZ2MUg0eiIvPiYjeGE7CQk8cmVjdCB4PSIxMyIgeT0iMiIgd2lkdGg9IjMiIGhlaWdodD0iMyIgcng9IjEuNSIvPiYjeGE7CTwvZz4mI3hhOwk8cGF0aCBjbGFzcz0ic3QyIiBkPSJNMCA5aDIwdjdIMHoiLz4mI3hhOwk8cGF0aCBjbGFzcz0ic3QxIiBkPSJNMTggOWgydjdoLTJ6Ii8+JiN4YTsJPHBhdGggY2xhc3M9InN0MCIgZD0iTTE4IDE2bDItN2gtMnoiLz4mI3hhOwk8cGF0aCBjbGFzcz0ic3QxIiBkPSJNMCA5aDJ2N0gweiIvPiYjeGE7CTxnIGNsYXNzPSJzdDMiPiYjeGE7CQk8cGF0aCBkPSJNNCAxMmg2djFINHoiLz4mI3hhOwkJPHJlY3QgeD0iMTMiIHk9IjExIiB3aWR0aD0iMyIgaGVpZ2h0PSIzIiByeD0iMS41Ii8+JiN4YTsJPC9nPiYjeGE7PC9zdmc+;" vertex="1" parent="2q1pVqS0Al537EC6Pk_O-20">
          <mxGeometry width="30" height="24" relative="1" as="geometry">
            <mxPoint x="15" y="18" as="offset" />
          </mxGeometry>
        </mxCell>
        <mxCell id="2q1pVqS0Al537EC6Pk_O-22" value="" style="strokeColor=#dddddd;shadow=1;strokeWidth=1;rounded=1;absoluteArcSize=1;arcSize=2;" vertex="1" parent="U3krhh0B3n7ER5-2B62J-7">
          <mxGeometry x="507" y="100" width="150" height="60" as="geometry" />
        </mxCell>
        <mxCell id="2q1pVqS0Al537EC6Pk_O-23" value="&lt;font color=&quot;#000000&quot;&gt;Web Server 2&lt;/font&gt;" style="editableCssRules=.*;html=1;fontColor=#999999;shape=image;verticalLabelPosition=middle;labelBackgroundColor=#ffffff;verticalAlign=middle;labelPosition=right;align=left;spacingLeft=20;part=1;points=[];imageAspect=0;image=data:image/svg+xml,PHN2ZyB4bWxucz0iaHR0cDovL3d3dy53My5vcmcvMjAwMC9zdmciIHhtbG5zOnY9Imh0dHBzOi8vdmVjdGEuaW8vbmFubyIgd2lkdGg9IjIwIiBoZWlnaHQ9IjE2IiB2aWV3Qm94PSIwIDAgMjAgMTYiPiYjeGE7CTxzdHlsZSB0eXBlPSJ0ZXh0L2NzcyI+JiN4YTsJLnN0MHtmaWxsOiM0Mjg1ZjQ7fSYjeGE7CS5zdDF7ZmlsbDojNjY5ZGY2O30mI3hhOwkuc3Qye2ZpbGw6I2FlY2JmYTt9JiN4YTsJLnN0M3tmaWxsOiNmZmY7fSYjeGE7CTwvc3R5bGU+JiN4YTsJPHBhdGggY2xhc3M9InN0MiIgZD0iTTAgMGgyMHY3SDB6Ii8+JiN4YTsJPHBhdGggY2xhc3M9InN0MSIgZD0iTTE4IDBoMnY3aC0yeiIvPiYjeGE7CTxwYXRoIGNsYXNzPSJzdDAiIGQ9Ik0xOCA3bDItN2gtMnoiLz4mI3hhOwk8cGF0aCBjbGFzcz0ic3QxIiBkPSJNMCAwaDJ2N0gweiIvPiYjeGE7CTxnIGNsYXNzPSJzdDMiPiYjeGE7CQk8cGF0aCBkPSJNNCAzaDZ2MUg0eiIvPiYjeGE7CQk8cmVjdCB4PSIxMyIgeT0iMiIgd2lkdGg9IjMiIGhlaWdodD0iMyIgcng9IjEuNSIvPiYjeGE7CTwvZz4mI3hhOwk8cGF0aCBjbGFzcz0ic3QyIiBkPSJNMCA5aDIwdjdIMHoiLz4mI3hhOwk8cGF0aCBjbGFzcz0ic3QxIiBkPSJNMTggOWgydjdoLTJ6Ii8+JiN4YTsJPHBhdGggY2xhc3M9InN0MCIgZD0iTTE4IDE2bDItN2gtMnoiLz4mI3hhOwk8cGF0aCBjbGFzcz0ic3QxIiBkPSJNMCA5aDJ2N0gweiIvPiYjeGE7CTxnIGNsYXNzPSJzdDMiPiYjeGE7CQk8cGF0aCBkPSJNNCAxMmg2djFINHoiLz4mI3hhOwkJPHJlY3QgeD0iMTMiIHk9IjExIiB3aWR0aD0iMyIgaGVpZ2h0PSIzIiByeD0iMS41Ii8+JiN4YTsJPC9nPiYjeGE7PC9zdmc+;" vertex="1" parent="2q1pVqS0Al537EC6Pk_O-22">
          <mxGeometry width="30" height="24" relative="1" as="geometry">
            <mxPoint x="15" y="18" as="offset" />
          </mxGeometry>
        </mxCell>
        <mxCell id="2q1pVqS0Al537EC6Pk_O-59" value="" style="strokeColor=#dddddd;shadow=1;strokeWidth=1;rounded=1;absoluteArcSize=1;arcSize=2;" vertex="1" parent="U3krhh0B3n7ER5-2B62J-7">
          <mxGeometry x="507" y="240" width="150" height="60" as="geometry" />
        </mxCell>
        <mxCell id="2q1pVqS0Al537EC6Pk_O-60" value="&lt;font color=&quot;#000000&quot;&gt;API Server 1&lt;/font&gt;" style="editableCssRules=.*;html=1;fontColor=#999999;shape=image;verticalLabelPosition=middle;labelBackgroundColor=#ffffff;verticalAlign=middle;labelPosition=right;align=left;spacingLeft=20;part=1;points=[];imageAspect=0;image=data:image/svg+xml,PHN2ZyB4bWxucz0iaHR0cDovL3d3dy53My5vcmcvMjAwMC9zdmciIHhtbG5zOnY9Imh0dHBzOi8vdmVjdGEuaW8vbmFubyIgd2lkdGg9IjIwIiBoZWlnaHQ9IjE2IiB2aWV3Qm94PSIwIDAgMjAgMTYiPiYjeGE7CTxzdHlsZSB0eXBlPSJ0ZXh0L2NzcyI+JiN4YTsJLnN0MHtmaWxsOiM0Mjg1ZjQ7fSYjeGE7CS5zdDF7ZmlsbDojNjY5ZGY2O30mI3hhOwkuc3Qye2ZpbGw6I2FlY2JmYTt9JiN4YTsJLnN0M3tmaWxsOiNmZmY7fSYjeGE7CTwvc3R5bGU+JiN4YTsJPHBhdGggY2xhc3M9InN0MiIgZD0iTTAgMGgyMHY3SDB6Ii8+JiN4YTsJPHBhdGggY2xhc3M9InN0MSIgZD0iTTE4IDBoMnY3aC0yeiIvPiYjeGE7CTxwYXRoIGNsYXNzPSJzdDAiIGQ9Ik0xOCA3bDItN2gtMnoiLz4mI3hhOwk8cGF0aCBjbGFzcz0ic3QxIiBkPSJNMCAwaDJ2N0gweiIvPiYjeGE7CTxnIGNsYXNzPSJzdDMiPiYjeGE7CQk8cGF0aCBkPSJNNCAzaDZ2MUg0eiIvPiYjeGE7CQk8cmVjdCB4PSIxMyIgeT0iMiIgd2lkdGg9IjMiIGhlaWdodD0iMyIgcng9IjEuNSIvPiYjeGE7CTwvZz4mI3hhOwk8cGF0aCBjbGFzcz0ic3QyIiBkPSJNMCA5aDIwdjdIMHoiLz4mI3hhOwk8cGF0aCBjbGFzcz0ic3QxIiBkPSJNMTggOWgydjdoLTJ6Ii8+JiN4YTsJPHBhdGggY2xhc3M9InN0MCIgZD0iTTE4IDE2bDItN2gtMnoiLz4mI3hhOwk8cGF0aCBjbGFzcz0ic3QxIiBkPSJNMCA5aDJ2N0gweiIvPiYjeGE7CTxnIGNsYXNzPSJzdDMiPiYjeGE7CQk8cGF0aCBkPSJNNCAxMmg2djFINHoiLz4mI3hhOwkJPHJlY3QgeD0iMTMiIHk9IjExIiB3aWR0aD0iMyIgaGVpZ2h0PSIzIiByeD0iMS41Ii8+JiN4YTsJPC9nPiYjeGE7PC9zdmc+;" vertex="1" parent="2q1pVqS0Al537EC6Pk_O-59">
          <mxGeometry width="30" height="24" relative="1" as="geometry">
            <mxPoint x="15" y="18" as="offset" />
          </mxGeometry>
        </mxCell>
        <mxCell id="2q1pVqS0Al537EC6Pk_O-61" value="" style="strokeColor=#dddddd;shadow=1;strokeWidth=1;rounded=1;absoluteArcSize=1;arcSize=2;" vertex="1" parent="U3krhh0B3n7ER5-2B62J-7">
          <mxGeometry x="507" y="310" width="150" height="60" as="geometry" />
        </mxCell>
        <mxCell id="2q1pVqS0Al537EC6Pk_O-62" value="&lt;font color=&quot;#000000&quot;&gt;API Server 2&lt;/font&gt;" style="editableCssRules=.*;html=1;fontColor=#999999;shape=image;verticalLabelPosition=middle;labelBackgroundColor=#ffffff;verticalAlign=middle;labelPosition=right;align=left;spacingLeft=20;part=1;points=[];imageAspect=0;image=data:image/svg+xml,PHN2ZyB4bWxucz0iaHR0cDovL3d3dy53My5vcmcvMjAwMC9zdmciIHhtbG5zOnY9Imh0dHBzOi8vdmVjdGEuaW8vbmFubyIgd2lkdGg9IjIwIiBoZWlnaHQ9IjE2IiB2aWV3Qm94PSIwIDAgMjAgMTYiPiYjeGE7CTxzdHlsZSB0eXBlPSJ0ZXh0L2NzcyI+JiN4YTsJLnN0MHtmaWxsOiM0Mjg1ZjQ7fSYjeGE7CS5zdDF7ZmlsbDojNjY5ZGY2O30mI3hhOwkuc3Qye2ZpbGw6I2FlY2JmYTt9JiN4YTsJLnN0M3tmaWxsOiNmZmY7fSYjeGE7CTwvc3R5bGU+JiN4YTsJPHBhdGggY2xhc3M9InN0MiIgZD0iTTAgMGgyMHY3SDB6Ii8+JiN4YTsJPHBhdGggY2xhc3M9InN0MSIgZD0iTTE4IDBoMnY3aC0yeiIvPiYjeGE7CTxwYXRoIGNsYXNzPSJzdDAiIGQ9Ik0xOCA3bDItN2gtMnoiLz4mI3hhOwk8cGF0aCBjbGFzcz0ic3QxIiBkPSJNMCAwaDJ2N0gweiIvPiYjeGE7CTxnIGNsYXNzPSJzdDMiPiYjeGE7CQk8cGF0aCBkPSJNNCAzaDZ2MUg0eiIvPiYjeGE7CQk8cmVjdCB4PSIxMyIgeT0iMiIgd2lkdGg9IjMiIGhlaWdodD0iMyIgcng9IjEuNSIvPiYjeGE7CTwvZz4mI3hhOwk8cGF0aCBjbGFzcz0ic3QyIiBkPSJNMCA5aDIwdjdIMHoiLz4mI3hhOwk8cGF0aCBjbGFzcz0ic3QxIiBkPSJNMTggOWgydjdoLTJ6Ii8+JiN4YTsJPHBhdGggY2xhc3M9InN0MCIgZD0iTTE4IDE2bDItN2gtMnoiLz4mI3hhOwk8cGF0aCBjbGFzcz0ic3QxIiBkPSJNMCA5aDJ2N0gweiIvPiYjeGE7CTxnIGNsYXNzPSJzdDMiPiYjeGE7CQk8cGF0aCBkPSJNNCAxMmg2djFINHoiLz4mI3hhOwkJPHJlY3QgeD0iMTMiIHk9IjExIiB3aWR0aD0iMyIgaGVpZ2h0PSIzIiByeD0iMS41Ii8+JiN4YTsJPC9nPiYjeGE7PC9zdmc+;" vertex="1" parent="2q1pVqS0Al537EC6Pk_O-61">
          <mxGeometry width="30" height="24" relative="1" as="geometry">
            <mxPoint x="15" y="18" as="offset" />
          </mxGeometry>
        </mxCell>
        <mxCell id="2q1pVqS0Al537EC6Pk_O-331" value="Kibana&#xa;Â  Â  Â  Dashbords" style="strokeColor=#dddddd;shadow=1;strokeWidth=1;rounded=1;absoluteArcSize=1;arcSize=2;" vertex="1" parent="U3krhh0B3n7ER5-2B62J-7">
          <mxGeometry x="507" y="170" width="150" height="60" as="geometry" />
        </mxCell>
        <mxCell id="2q1pVqS0Al537EC6Pk_O-335" value="" style="shape=image;verticalLabelPosition=bottom;labelBackgroundColor=default;verticalAlign=top;aspect=fixed;imageAspect=0;image=data:image/svg+xml,PHN2ZyB4bWxuczp4bGluaz0iaHR0cDovL3d3dy53My5vcmcvMTk5OS94bGluayIgeG1sbnM9Imh0dHA6Ly93d3cudzMub3JnLzIwMDAvc3ZnIiBwcmVzZXJ2ZUFzcGVjdFJhdGlvPSJ4TWlkWU1pZCIgdmVyc2lvbj0iMS4xIiB2aWV3Qm94PSItMS4yNzg5NzY5MjQzNjgxODAzZS0xMyAwIDI1NiAzNDEuMDA5NTUyMDAxOTUzMSIgaGVpZ2h0PSI3OTcuNjgzMTYyNTc3NjY4MSIgd2lkdGg9IjU5OC44MzA0MDkzNTY3MjUxIj4mI3hhOyAgICA8Zz4mI3hhOwkJCQk8cGF0aCBmaWxsPSIjMDA5QjkwIiBkPSJNMCwzMDYuOTI5NDMxIEwwLDM0MC45NDE1MyBMMTUuOTg1Njg2NCwzNDAuOTQxNTMgTDE1Ni4zMTk2MDYsMTcyLjcxNzY4OSBDMTQ2LjU4ODYzNSwxNjYuMzkyOTk3IDEzNi40NTQwMzEsMTYwLjcxMjE2NiAxMjUuOTgwODE0LDE1NS43MTE2NCBMMCwzMDYuOTI5NDMxIFoiPiYjeGE7JiN4YTs8L3BhdGg+JiN4YTsJCQkJPHBhdGggZmlsbD0iIzQwQkVCMCIgZD0iTTE1Ni4zMjQxNCwxNzIuNzE3Njg5IEwxNS45MjIxOTU3LDM0MS4wMDk1NTQgTDI1NS41NzE0NDQsMzQxLjAwOTU1NCBDMjU1LjU3MTQ0NCwyNzIuNDQxMTYzIDIxNi42NjE2MDMsMjExLjQ5MTQ4MiAxNTYuMzI0MTQsMTcyLjcxNzY4OSBaIj4mI3hhOyYjeGE7PC9wYXRoPiYjeGE7CQkJCTxwb2x5Z29uIHBvaW50cz0iLTUuMjQwMjUyNjhlLTE0IDAgLTEuMjc4OTc2OTJlLTEzIDMwNy40NDUzNjggMjU2IDAiIGZpbGw9IiNFRjUwOTgiPiYjeGE7JiN4YTs8L3BvbHlnb24+JiN4YTsJCQkJPHBhdGggZmlsbD0iIzM1MzUzNSIgZD0iTTAuMDY4MTg4NjUwNCwzMDcuMzM5MjA5IEwxMjYuMjQzMTY0LDE1NS44NDUxMzMgQzg2LjY5MzIzNDIsMTM3LjM3MTkzNCA0My42NTEwNzc3LDEyNy44MDQ0NDYgMCwxMjguMDAzMDU4IEwwLjA2ODE4ODY1MDQsMzA3LjMzOTIwOSBaIj4mI3hhOyYjeGE7PC9wYXRoPiYjeGE7CQk8L2c+JiN4YTs8L3N2Zz4=;" vertex="1" parent="U3krhh0B3n7ER5-2B62J-7">
          <mxGeometry x="520" y="182.51" width="26.25" height="34.97" as="geometry" />
        </mxCell>
        <mxCell id="2q1pVqS0Al537EC6Pk_O-280" style="edgeStyle=orthogonalEdgeStyle;rounded=0;orthogonalLoop=1;jettySize=auto;html=1;entryX=1;entryY=0.5;entryDx=0;entryDy=0;" edge="1" parent="1" source="U3krhh0B3n7ER5-2B62J-8" target="2q1pVqS0Al537EC6Pk_O-275">
          <mxGeometry relative="1" as="geometry">
            <mxPoint x="230" y="1100" as="targetPoint" />
          </mxGeometry>
        </mxCell>
        <mxCell id="U3krhh0B3n7ER5-2B62J-8" value="Ingesta de datos" style="swimlane;whiteSpace=wrap;html=1;" vertex="1" parent="1">
          <mxGeometry x="298" y="820" width="920" height="320" as="geometry" />
        </mxCell>
        <mxCell id="2q1pVqS0Al537EC6Pk_O-208" style="edgeStyle=orthogonalEdgeStyle;rounded=0;orthogonalLoop=1;jettySize=auto;html=1;entryX=0;entryY=0.5;entryDx=0;entryDy=0;" edge="1" parent="U3krhh0B3n7ER5-2B62J-8" source="U3krhh0B3n7ER5-2B62J-29" target="blMIOamzqk59xTB1D_x0-75">
          <mxGeometry relative="1" as="geometry" />
        </mxCell>
        <mxCell id="2q1pVqS0Al537EC6Pk_O-225" style="edgeStyle=orthogonalEdgeStyle;rounded=0;orthogonalLoop=1;jettySize=auto;html=1;exitX=1;exitY=0.75;exitDx=0;exitDy=0;" edge="1" parent="U3krhh0B3n7ER5-2B62J-8" source="U3krhh0B3n7ER5-2B62J-29" target="blMIOamzqk59xTB1D_x0-52">
          <mxGeometry relative="1" as="geometry" />
        </mxCell>
        <mxCell id="U3krhh0B3n7ER5-2B62J-29" value="Crawlers y Scrappers de &#xa;ejecuciÃ³n diaria y mensual &#xa;para la carga de dataset &#xa;y documentos" style="strokeColor=#dddddd;shadow=1;strokeWidth=1;rounded=1;absoluteArcSize=1;arcSize=2;" vertex="1" parent="U3krhh0B3n7ER5-2B62J-8">
          <mxGeometry x="160" y="50" width="202.5" height="150" as="geometry" />
        </mxCell>
        <mxCell id="U3krhh0B3n7ER5-2B62J-30" value="Cloud&#xa;Functions" style="editableCssRules=.*;html=1;fontColor=#999999;shape=image;verticalLabelPosition=middle;labelBackgroundColor=#ffffff;verticalAlign=middle;labelPosition=right;align=left;spacingLeft=20;part=1;points=[];imageAspect=0;image=data:image/svg+xml,PHN2ZyB4bWxucz0iaHR0cDovL3d3dy53My5vcmcvMjAwMC9zdmciIHhtbG5zOnY9Imh0dHBzOi8vdmVjdGEuaW8vbmFubyIgd2lkdGg9IjIwIiBoZWlnaHQ9IjE5Ljk4OTk5OTc3MTExODE2NCIgdmlld0JveD0iMCAwIDIwIDE5Ljk4OTk5OTc3MTExODE2NCI+JiN4YTsJPHN0eWxlIHR5cGU9InRleHQvY3NzIj4mI3hhOwkuc3Qwe2ZpbGw6IzQyODVmNDt9JiN4YTsJLnN0MXtmaWxsOiM2NjlkZjY7fSYjeGE7CS5zdDJ7ZmlsbDojYWVjYmZhO30mI3hhOwk8L3N0eWxlPiYjeGE7CTxwYXRoIGNsYXNzPSJzdDEiIGQ9Ik0zIDMuOTlMMCA2LjQydjcuMTNsMyAyLjQ0eiIvPiYjeGE7CTxwYXRoIGNsYXNzPSJzdDAiIGQ9Ik0zIDMuOTlsLTMgNCAzLTJ6bS0zIDhsMyA0di0yeiIvPiYjeGE7CTxwYXRoIGNsYXNzPSJzdDIiIGQ9Ik0wIDE1Ljk5bDQgNCAyLTItNi02em0uMDEtOEw1Ljk5IDJsLTItMkwwIDMuOTl6Ii8+JiN4YTsJPHBhdGggY2xhc3M9InN0MSIgZD0iTTE3IDE2bDMtMi40MlY2LjQ0TDE3IDR6Ii8+JiN4YTsJPHBhdGggY2xhc3M9InN0MCIgZD0iTTE3IDE2bDMtNC0zIDJ6bTMtOGwtMy00djJ6Ii8+JiN4YTsJPGcgY2xhc3M9InN0MiI+JiN4YTsJCTxwYXRoIGQ9Ik0yMCA0bC00LTQtMiAyIDYgNnptLS4wMSA4bC01Ljk4IDUuOTkgMiAyTDIwIDE2eiIvPiYjeGE7CQk8Y2lyY2xlIGN4PSI2IiBjeT0iOS45OSIgcj0iMSIvPiYjeGE7CQk8Y2lyY2xlIGN4PSIxMCIgY3k9IjkuOTkiIHI9IjEiLz4mI3hhOwkJPGNpcmNsZSBjeD0iMTMuOTkiIGN5PSI5Ljk5IiByPSIxIi8+JiN4YTsJPC9nPiYjeGE7PC9zdmc+;" vertex="1" parent="U3krhh0B3n7ER5-2B62J-29">
          <mxGeometry width="30" height="24" relative="1" as="geometry">
            <mxPoint x="15" y="18" as="offset" />
          </mxGeometry>
        </mxCell>
        <mxCell id="blMIOamzqk59xTB1D_x0-52" value="" style="strokeColor=#dddddd;shadow=1;strokeWidth=1;rounded=1;absoluteArcSize=1;arcSize=2;" vertex="1" parent="U3krhh0B3n7ER5-2B62J-8">
          <mxGeometry x="770" y="197" width="130" height="60" as="geometry" />
        </mxCell>
        <mxCell id="blMIOamzqk59xTB1D_x0-53" value="&lt;font color=&quot;#000000&quot;&gt;BD&lt;/font&gt;&lt;br&gt;Cloud SQL" style="editableCssRules=.*;html=1;fontColor=#999999;shape=image;verticalLabelPosition=middle;labelBackgroundColor=#ffffff;verticalAlign=middle;labelPosition=right;align=left;spacingLeft=20;part=1;points=[];imageAspect=0;image=data:image/svg+xml,PHN2ZyB4bWxucz0iaHR0cDovL3d3dy53My5vcmcvMjAwMC9zdmciIHhtbG5zOnY9Imh0dHBzOi8vdmVjdGEuaW8vbmFubyIgd2lkdGg9IjE0LjY1OTk5OTg0NzQxMjExIiBoZWlnaHQ9IjIwIiB2aWV3Qm94PSIwIDAgMTQuNjU5OTk5ODQ3NDEyMTEgMjAiPiYjeGE7CTxzdHlsZSB0eXBlPSJ0ZXh0L2NzcyI+JiN4YTsJLnN0MHtmaWxsOiM0Mjg1ZjQ7fSYjeGE7CS5zdDF7ZmlsbDojNjY5ZGY2O30mI3hhOwkuc3Qye2ZpbGw6I2FlY2JmYTt9JiN4YTsJPC9zdHlsZT4mI3hhOwk8c3R5bGU+JiN4YTsJCS5Ee2ZpbGwtcnVsZTpldmVub2RkfSYjeGE7CTwvc3R5bGU+JiN4YTsJPHBhdGggZD0iTTcuMzMgMTUuMzV2LTMuMDFMMCA4LjQ0djMuMDF6bTAgNC42NXYtMy4wMUwwIDEzLjA5djMuMDF6IiBjbGFzcz0ic3QyIEQiLz4mI3hhOwk8cGF0aCBkPSJNMTQuNjYgOC40NGwtNy4zMyAzLjl2My4wMWw3LjMzLTMuOXptMCA0LjY1bC03LjMzIDMuOVYyMGw3LjMzLTMuOXoiIGNsYXNzPSJzdDEgRCIvPiYjeGE7CTxwYXRoIGQ9Ik03LjMzIDB2My4wMWw3LjMzIDMuOVYzLjl6IiBjbGFzcz0ic3QwIEQiLz4mI3hhOwk8cGF0aCBkPSJNMCA2LjkxbDcuMzMtMy45VjBMMCAzLjl6IiBjbGFzcz0iRCBzdDEiLz4mI3hhOwk8cGF0aCBkPSJNNy4zMyAxMC43OVY3Ljc3TDAgMy44N3YzLjAyeiIgY2xhc3M9IkQgc3QyIi8+JiN4YTsJPHBhdGggZD0iTTE0LjY2IDMuODdsLTcuMzMgMy45djMuMDJsNy4zMy0zLjl6IiBjbGFzcz0iRCBzdDEiLz4mI3hhOzwvc3ZnPg==;" vertex="1" parent="blMIOamzqk59xTB1D_x0-52">
          <mxGeometry width="22" height="30" relative="1" as="geometry">
            <mxPoint x="19" y="15" as="offset" />
          </mxGeometry>
        </mxCell>
        <mxCell id="blMIOamzqk59xTB1D_x0-73" style="edgeStyle=orthogonalEdgeStyle;rounded=0;orthogonalLoop=1;jettySize=auto;html=1;" edge="1" parent="U3krhh0B3n7ER5-2B62J-8" source="blMIOamzqk59xTB1D_x0-58" target="U3krhh0B3n7ER5-2B62J-29">
          <mxGeometry relative="1" as="geometry" />
        </mxCell>
        <mxCell id="blMIOamzqk59xTB1D_x0-58" value="Cloud&#xa;Scheduler" style="sketch=0;html=1;verticalAlign=top;labelPosition=center;verticalLabelPosition=bottom;align=center;spacingTop=-6;fontSize=11;fontStyle=1;fontColor=#999999;shape=image;aspect=fixed;imageAspect=0;image=data:image/svg+xml,PHN2ZyB4bWxucz0iaHR0cDovL3d3dy53My5vcmcvMjAwMC9zdmciIHhtbG5zOnY9Imh0dHBzOi8vdmVjdGEuaW8vbmFubyIgd2lkdGg9IjM2MC4zMDM3NjY4NjA4MzYzIiBoZWlnaHQ9IjM3OC4wNTExNTgwNzc0MDg4IiB2aWV3Qm94PSItMC4wMDAxNjI0MjExNDM2MTM3NTU3IC0wLjAwMDEwMDAwNTk0OTIwNzExNTkyIDk1LjMzMDI2MTIzMDQ2ODc1IDEwMC4wMjYxMDAxNTg2OTE0Ij4mI3hhOzxzdHlsZSB0eXBlPSJ0ZXh0L2NzcyI+JiN4YTsJLnN0MHtmaWxsOiM0Mjg1ZjQ7fSYjeGE7CS5zdDF7ZmlsbDojYWVjYmZhO30mI3hhOwkuc3Qye2ZpbGw6IzY2OWRmNjt9JiN4YTs8L3N0eWxlPiYjeGE7CTxwYXRoIGNsYXNzPSJzdDAiIGQ9Ik03OS45NzEgNzcuNzE1bC03LjM1OSA3LjQ4OCA4LjYzOSA4LjQ5IDcuMzU5LTcuNDg4em0tNjUuMDk2LjA2MWwtOC42NDEgOC40OTIgNy4zNjEgNy40ODggOC42MzktOC40OXoiLz4mI3hhOwk8cGF0aCBjbGFzcz0ic3QxIiBkPSJNNzkuNTUzLjIyMWE1LjI1IDUuMjUgMCAwIDAtMy42NiA4Ljk4NEw4Ni4zODkgMTkuNThhNS4yNSA1LjI1IDAgMCAwIDguOTQxLTMuNzY1IDUuMjUgNS4yNSAwIDAgMC0xLjU2LTMuNzA0TDgzLjI3NSAxLjczOEE1LjI1IDUuMjUgMCAwIDAgNzkuNTUzLjIyMXpNMTUuOTE2IDBhNS4yNSA1LjI1IDAgMCAwLTMuNzIzIDEuNTE2TDEuNjk5IDExLjg5MWE1LjI1IDUuMjUgMCAwIDAtLjA0MyA3LjQyNCA1LjI1IDUuMjUgMCAwIDAgNy40MjQuMDQzTDE5LjU3NiA4Ljk4MkE1LjI1IDUuMjUgMCAwIDAgMTUuOTE2IDB6Ii8+JiN4YTsJPHBhdGggY2xhc3M9InN0MCIgZD0iTTQ4LjEzOCAyNi4yNGMxMy4zNDcgMCAyNS40MzIgMTEuMTM2IDI1LjMxIDI2LjQ4MSAwIDE1LjExLTEyLjI2NyAyNS42NzMtMjUuMTg5IDI1LjY3My0xMS4xNDkgMC0xOC4zMTctNS4xNzEtMjEuOTYtMTAuNzM4bDIxLjgzOS0xNS4wOTd6Ii8+JiN4YTsJPHBhdGggY2xhc3M9InN0MiIgZD0iTTgxLjI1IDkzLjY5M2w0LjY2NCA0LjU4NmE1LjI1IDUuMjUgMCAxIDAgNy4zNjEtNy40OWwtNC42NjYtNC41ODR6TTYuMjM0IDg2LjI2OEwxLjU3IDkwLjg1MWE1LjI1IDUuMjUgMCAwIDAtLjA2NSA3LjQyNCA1LjI1IDUuMjUgMCAwIDAgNy40MjQuMDY0bDQuNjY2LTQuNTg0ek00Ny4zNzEgNS41NzhDMjEuMzQ5IDUuNTc4LjE0NiAyNi43NzkuMTQ2IDUyLjgwMXMyMS4yMDMgNDcuMjI1IDQ3LjIyNSA0Ny4yMjUgNDcuMjI1LTIxLjIwMyA0Ny4yMjUtNDcuMjI1UzczLjM5MyA1LjU3OCA0Ny4zNzEgNS41Nzh6bTAgMTBhMzcuMTUgMzcuMTUgMCAwIDEgMzcuMjI1IDM3LjIyM2MwIDIwLjYxNy0xNi42MDcgMzcuMjI1LTM3LjIyNSAzNy4yMjVTMTAuMTQ2IDczLjQxOCAxMC4xNDYgNTIuODAxYTM3LjE1IDM3LjE1IDAgMCAxIDM3LjIyNS0zNy4yMjN6Ii8+JiN4YTs8L3N2Zz4=;" vertex="1" parent="U3krhh0B3n7ER5-2B62J-8">
          <mxGeometry x="39" y="59" width="40" height="42" as="geometry" />
        </mxCell>
        <mxCell id="2q1pVqS0Al537EC6Pk_O-222" style="edgeStyle=orthogonalEdgeStyle;rounded=0;orthogonalLoop=1;jettySize=auto;html=1;entryX=0.5;entryY=1;entryDx=0;entryDy=0;" edge="1" parent="U3krhh0B3n7ER5-2B62J-8" source="blMIOamzqk59xTB1D_x0-65" target="blMIOamzqk59xTB1D_x0-52">
          <mxGeometry relative="1" as="geometry" />
        </mxCell>
        <mxCell id="blMIOamzqk59xTB1D_x0-65" value="" style="strokeColor=#dddddd;shadow=1;strokeWidth=1;rounded=1;absoluteArcSize=1;arcSize=2;" vertex="1" parent="U3krhh0B3n7ER5-2B62J-8">
          <mxGeometry x="400" y="251.02" width="202.5" height="60" as="geometry" />
        </mxCell>
        <mxCell id="blMIOamzqk59xTB1D_x0-66" value="&lt;font style=&quot;border-color: var(--border-color);&quot; color=&quot;#000000&quot;&gt;Datases hisotricosCSV&lt;/font&gt;&lt;br style=&quot;border-color: var(--border-color);&quot;&gt;Cloud Storage" style="editableCssRules=.*;html=1;fontColor=#999999;shape=image;verticalLabelPosition=middle;labelBackgroundColor=#ffffff;verticalAlign=middle;labelPosition=right;align=left;spacingLeft=20;part=1;points=[];imageAspect=0;image=data:image/svg+xml,PHN2ZyB4bWxucz0iaHR0cDovL3d3dy53My5vcmcvMjAwMC9zdmciIHhtbG5zOnY9Imh0dHBzOi8vdmVjdGEuaW8vbmFubyIgd2lkdGg9IjIwIiBoZWlnaHQ9IjE2IiB2aWV3Qm94PSIwIDAgMjAgMTYiPiYjeGE7CTxzdHlsZSB0eXBlPSJ0ZXh0L2NzcyI+JiN4YTsJLnN0MHtmaWxsOiM0Mjg1ZjQ7fSYjeGE7CS5zdDF7ZmlsbDojNjY5ZGY2O30mI3hhOwkuc3Qye2ZpbGw6I2FlY2JmYTt9JiN4YTsJLnN0M3tmaWxsOiNmZmY7fSYjeGE7CTwvc3R5bGU+JiN4YTsJPHBhdGggY2xhc3M9InN0MiIgZD0iTTAgMGgyMHY3SDB6Ii8+JiN4YTsJPHBhdGggY2xhc3M9InN0MSIgZD0iTTE4IDBoMnY3aC0yeiIvPiYjeGE7CTxwYXRoIGNsYXNzPSJzdDAiIGQ9Ik0xOCA3bDItN2gtMnoiLz4mI3hhOwk8cGF0aCBjbGFzcz0ic3QxIiBkPSJNMCAwaDJ2N0gweiIvPiYjeGE7CTxnIGNsYXNzPSJzdDMiPiYjeGE7CQk8cGF0aCBkPSJNNCAzaDZ2MUg0eiIvPiYjeGE7CQk8cmVjdCB4PSIxMyIgeT0iMiIgd2lkdGg9IjMiIGhlaWdodD0iMyIgcng9IjEuNSIvPiYjeGE7CTwvZz4mI3hhOwk8cGF0aCBjbGFzcz0ic3QyIiBkPSJNMCA5aDIwdjdIMHoiLz4mI3hhOwk8cGF0aCBjbGFzcz0ic3QxIiBkPSJNMTggOWgydjdoLTJ6Ii8+JiN4YTsJPHBhdGggY2xhc3M9InN0MCIgZD0iTTE4IDE2bDItN2gtMnoiLz4mI3hhOwk8cGF0aCBjbGFzcz0ic3QxIiBkPSJNMCA5aDJ2N0gweiIvPiYjeGE7CTxnIGNsYXNzPSJzdDMiPiYjeGE7CQk8cGF0aCBkPSJNNCAxMmg2djFINHoiLz4mI3hhOwkJPHJlY3QgeD0iMTMiIHk9IjExIiB3aWR0aD0iMyIgaGVpZ2h0PSIzIiByeD0iMS41Ii8+JiN4YTsJPC9nPiYjeGE7PC9zdmc+;" vertex="1" parent="blMIOamzqk59xTB1D_x0-65">
          <mxGeometry width="30" height="24" relative="1" as="geometry">
            <mxPoint x="15" y="18" as="offset" />
          </mxGeometry>
        </mxCell>
        <mxCell id="blMIOamzqk59xTB1D_x0-75" value="" style="strokeColor=#dddddd;shadow=1;strokeWidth=1;rounded=1;absoluteArcSize=1;arcSize=2;" vertex="1" parent="U3krhh0B3n7ER5-2B62J-8">
          <mxGeometry x="550" y="38" width="310" height="112" as="geometry" />
        </mxCell>
        <mxCell id="blMIOamzqk59xTB1D_x0-76" value="&lt;br&gt;Cloud&amp;nbsp;Storage&lt;br&gt;&amp;nbsp; /in/monthly/YYYYMM.csv&lt;br&gt;&amp;nbsp; /in/daily/YYYYMMDD.csv&lt;br&gt;&amp;nbsp; /in/store/YYYYMM.csv&lt;br&gt;&amp;nbsp; /in/products/YYYYMM.csv" style="editableCssRules=.*;html=1;fontColor=#999999;shape=image;verticalLabelPosition=middle;labelBackgroundColor=#ffffff;verticalAlign=middle;labelPosition=right;align=left;spacingLeft=20;part=1;points=[];imageAspect=0;image=data:image/svg+xml,PHN2ZyB4bWxucz0iaHR0cDovL3d3dy53My5vcmcvMjAwMC9zdmciIHhtbG5zOnY9Imh0dHBzOi8vdmVjdGEuaW8vbmFubyIgd2lkdGg9IjIwIiBoZWlnaHQ9IjE2IiB2aWV3Qm94PSIwIDAgMjAgMTYiPiYjeGE7CTxzdHlsZSB0eXBlPSJ0ZXh0L2NzcyI+JiN4YTsJLnN0MHtmaWxsOiM0Mjg1ZjQ7fSYjeGE7CS5zdDF7ZmlsbDojNjY5ZGY2O30mI3hhOwkuc3Qye2ZpbGw6I2FlY2JmYTt9JiN4YTsJLnN0M3tmaWxsOiNmZmY7fSYjeGE7CTwvc3R5bGU+JiN4YTsJPHBhdGggY2xhc3M9InN0MiIgZD0iTTAgMGgyMHY3SDB6Ii8+JiN4YTsJPHBhdGggY2xhc3M9InN0MSIgZD0iTTE4IDBoMnY3aC0yeiIvPiYjeGE7CTxwYXRoIGNsYXNzPSJzdDAiIGQ9Ik0xOCA3bDItN2gtMnoiLz4mI3hhOwk8cGF0aCBjbGFzcz0ic3QxIiBkPSJNMCAwaDJ2N0gweiIvPiYjeGE7CTxnIGNsYXNzPSJzdDMiPiYjeGE7CQk8cGF0aCBkPSJNNCAzaDZ2MUg0eiIvPiYjeGE7CQk8cmVjdCB4PSIxMyIgeT0iMiIgd2lkdGg9IjMiIGhlaWdodD0iMyIgcng9IjEuNSIvPiYjeGE7CTwvZz4mI3hhOwk8cGF0aCBjbGFzcz0ic3QyIiBkPSJNMCA5aDIwdjdIMHoiLz4mI3hhOwk8cGF0aCBjbGFzcz0ic3QxIiBkPSJNMTggOWgydjdoLTJ6Ii8+JiN4YTsJPHBhdGggY2xhc3M9InN0MCIgZD0iTTE4IDE2bDItN2gtMnoiLz4mI3hhOwk8cGF0aCBjbGFzcz0ic3QxIiBkPSJNMCA5aDJ2N0gweiIvPiYjeGE7CTxnIGNsYXNzPSJzdDMiPiYjeGE7CQk8cGF0aCBkPSJNNCAxMmg2djFINHoiLz4mI3hhOwkJPHJlY3QgeD0iMTMiIHk9IjExIiB3aWR0aD0iMyIgaGVpZ2h0PSIzIiByeD0iMS41Ii8+JiN4YTsJPC9nPiYjeGE7PC9zdmc+;" vertex="1" parent="blMIOamzqk59xTB1D_x0-75">
          <mxGeometry width="30" height="24" relative="1" as="geometry">
            <mxPoint x="15" y="18" as="offset" />
          </mxGeometry>
        </mxCell>
        <mxCell id="2q1pVqS0Al537EC6Pk_O-215" style="edgeStyle=orthogonalEdgeStyle;rounded=0;orthogonalLoop=1;jettySize=auto;html=1;" edge="1" parent="U3krhh0B3n7ER5-2B62J-8" source="blMIOamzqk59xTB1D_x0-59" target="blMIOamzqk59xTB1D_x0-65">
          <mxGeometry relative="1" as="geometry" />
        </mxCell>
        <mxCell id="blMIOamzqk59xTB1D_x0-59" value="Â  Â  Â  Â  Â  Â  Â  Procesamiento &#xa;Â  Â  Â  Â manual de &#xa;Â  Â  Â  Â  Â  Â  Â  Â  Â  dataset historicos" style="strokeColor=#dddddd;shadow=1;strokeWidth=1;rounded=1;absoluteArcSize=1;arcSize=2;" vertex="1" parent="U3krhh0B3n7ER5-2B62J-8">
          <mxGeometry x="156.5" y="221.66" width="206" height="78.35" as="geometry" />
        </mxCell>
        <mxCell id="2q1pVqS0Al537EC6Pk_O-211" value="" style="shape=image;verticalLabelPosition=bottom;labelBackgroundColor=default;verticalAlign=top;aspect=fixed;imageAspect=0;image=data:image/png,iVBORw0KGgoAAAANSUhEUgAAAHkAAACFCAYAAAB/qlcrAAAABGdBTUEAALGPC/xhBQAAACBjSFJNAAB6JgAAgIQAAPoAAACA6AAAdTAAAOpgAAA6mAAAF3CculE8AAAABmJLR0QA/wD/AP+gvaeTAAAT9UlEQVR42u1da5RU1Znd360XXd000MAI+B5wJXRLmEAMYtSI4gMcnDHaKDBjNMuIEMMMmmjUmbESXWoEJcFlRFZmnMmKE5WFicvXioogj4YwMoquxgcEBgNNK9JI01Vdr3v2/Oiu962qW1W3Hk3fbyldde+tc6u+fb599jnnO+cKBqBd5FvvdNeHT3VEcaaC/DWozhSR00E1WkHqQHoBDCc5BICX5HAAUZA9BEMgAgR7QQQB+kF0U3hIFDsU2alR9kbh2H3Sx8FP16yZq2OAm9T6F2z1Pe/uqRs9RYTTFXmugN8AeBpJJwCQ7LuQBPv/Jh83Ps/+yxJ/+/7r+5t0PEzgEyhsgahNUZfjjTbfdz63QbbAZq181eMIeWYryAKAV4IYYgBAkQDHjhsAnHatQZkREr+nqFVbHrxuvQ1yETbH95JXDR16B6iWkhiRI8KSADIGOA9YKZWkSDZ4Uxf1w60Pzf/IBtmk/e3y9dcSWAHwlGRgjQDOfj4LwDkrS0lsEAbp2/LIvIcBoQ1yLoAfXe8jcV/CmcUA3H/efHtrUFbRbPCM2xu6eYPvpmAtgqxVnaKXr785FWDEwUAesOKORuI90z5bWGVBbjZIuluiLIDEglDA/UJr6/MOG+Q0u+rnm8cpYJkxHSK7OEKeCCua7mFYcfJVFoCAwqy/nB5+zAY5zeiI3gdgeHY6BAAoAXYQfBnEdpB68rXZKdYaNiiwsiyZ/qPfXm23yUn930DD6E6QI7KJIxBrI8Dtb/7k0k9jn7v4gZdOdorjEUDmF9xVKqS9LV4b7Olp9LS0++aGawVkZ7VuHGgYNQPgiGx0CGDVa3fNXAxJVa1v/cucgwAWXPrAa50Abkc2gJEpdrNVBovZYEJDd/D7AJ6w6Vo4KUc07GvoPfpP6QAnWyQ65C4ofpRVHBn2q4vpKiGVwmFKGyyw22QAoEzMRoci+Pc1eehug29GlILVBYmj+MtMYHOzAQtlg3PPuf0/TrVBJsak+jAp6nS+a6oI8p3ilLQBWLCUDQRKu3DQg6wIb6qDEg7WBVGTNSVaUNvJ9NY6dUTMSjYQ8KxBD7KAddnoUKNqNtes4+y8/WqmgmnU3paDDQgMH/QgE3RmpUPgRp/Pp+UvAzdlYwMjcWSJkjbJBorKZbfJyEmHk9vc0+7M9clLfvbSEgDTCxFH5pR0nlG2gthgkPeT848s4cGZ97/SpA1x/vT1H1/uj31m+mPP13mP190N4l5ru0pM5QgYzzGbZwMbZEDlpUMRkR8zpN888/5X3yTYIcAY9qiZAEaWq6tEWsMGNsgxlE3RIUcAaJWihhmRGdkWdJVQABsM+ja5NDo0K47S/i24q4TcY945piDtfnJFxZH1U5B5M06UDTJSA6t4OqwoG7AQNrBBtiojo3bZwAa5dDosWklXjA1qh6+rpq5JvKkJ96oUZ0rcOSIEVKyn1Xec/WOZMf8JBSr+Bv3tYPwFBIRKpEVMITm+bGwA41mrQQ3yG/de8ZNK3u/8u5/9FYhF1rOBcXMjqnYiWcNgMWW2X12oNsjer7ZBroYKyKekS8nWTGODGgrk4un6smV/rHdrrnMVOV0UxhEcBdW3tEWljGglKdKY02IeiDWvadGikv+J9zuZKpf62914fzvJq5nUqqCIr+adgiw9WzM7nXfe8TsAo8zVRzkGYQeIA9C4GX/VuE3EpyoC8kW+9c76Bl4FYDGIC5Wiqw+o/h8oyQ6QHA4Q42HG/mvFaJhRjNtGiZUpkkM8CQrIz0L64FhB/ersTH0BgJNNOTqW2ib9ovOz7v3sWPowxg5bXQzYpun6ykfX/4O3AXsBWQviEgKuWszIsCA/y3y/OgcbWDaY0Ld853QIn0Tn0e3sXHK25ZH8d4++faoOriI5W0p1AC2mw/LkZ2U5D9NsYN1oEdPBngpyEw8uuVJOXtlmSSTPeeytFh3cRnJ2KQ6AlXRY42xgLcDs1yXJ7zkc0P/Ijh9MKRnkq1a89S1S2wxyXKkOqHxGRnXYwDJwE4D2v1bp5xpA9RyP/LCxaJDn/HLzaUrXXgQ5vFJ0WPlJh9Q7lswGlkWvygE2k89NQDC8vCiQpz71jouR6LMQjKwkHVqVkVG5KUirGNoIRJV4bQR+7Lji97h/YXPBII897v83CKZb5oAKiqPKswHLRM+GbXEq+H3HHdD0+wsCedbKjaMh/OdazciAqWHGyrJBmcSVET1nO3c1P/3ueNMgOyO8h2RDbdAhc7MBy5+flY8NyiyuEuCngJ0RzQJqN5gCedbKbY2kWliLdFiN/CwWMANVRnFl3BYzDXzhjf2Df7lB1kK9swnU1RodViM/K21ewmKACxRXZtps8jTsv+Fv8tO14BpLHFAL4ijPpAMsmnTIOfws6EqbcPaaa2+VSRGWUUFm5QS51fe8G+AVFd4xp3xsULYNYwqIW8GhBL4+DVBD8wKaG8Ts4Pd90dwg++tHfR1EQ8V3zLEiI6OCbFBQJFMdiL/5/NgZIJ0liCsTgg3ncPcsT3a6FpxXxR1zLM/IKMcWEQWa7tLUlvi7qD6pZHGVV7ApD1zDp+Rok2V6iXtkFEyHqBYbVGbSYdP2J247khTWFxcnrky02cll6mp6dpCVOse6OVhzbMBqsUEFJh0EeC7hPwiorjIlrlBCm00FCI1BnrXy1UYAp9fAjjm1xwbF2f8dd4afjr87cNu3AZxhGqic4ipfmy2TDUF2hNwt7MvVqaGMjJRkreqwQfG94X/d8/iSUCKs1Z3Wiauk40ZlQh/PjjneDJB1YtKJkpFhXUJCsQDL2p1PLnwm/r5j8fkAZ2WP3kLFVV7q1hBwTMwAWYgJdn6WJZMO7zl13BDLwuM7t7ig+ERuQIsQV3kribRk5HgR6tR4NuMAzcgolQ0smHRoU8TV762+NRA/NEZ7CODXMmkWBsAYDHsaXpfl2qS9viE4IyOSSTllQGdkWMAGJbTDBPjrHmfk4vdXLYo/gIR/WTQf4O1FiyuU0GYrdUpGJAMYO/AyMmohP4ttGnjH/z65eFvK0QOLrgTU033J3iYiL2c0p13LLFGeep0RyBxq52eZQ5WCjzXiRUW+sHPVrf+T/twJHlx0E6ieAukyBNA8UHnoOVeZfUGbCjLhLYgOKzoFyU4RrtOhvacpfhQVrVtDxB+bORUBEIkNQEj/y5SDyDwk8ROxT+Qd3NAdX7rr/R1bV9zemzi6KAHu54sbENYfhdJvMQ9oIW1xQWXWGwgvegvKzyp/RkaU4POArN66bP7GWn5KC+nTcLDzWoT1ZSBPq5i4yl1mvVEk6wC1WsjIIOQFaNG7tj78j3v6js+vTXD3LxoBp5qHg4cWAbH9PfNFXgFAldZm1xu1yUECripnZBwVqJvbHlnwQlbHHr5zHCL6WIgMhWbl4nmDRzFG0zbpZdQD0U4C1FdBnAdwGginNZFXSFts5jpFA7pGEOTQ6mVk8GOnis7auPyGfSl+bfe5MbL7MohcA2IOdH1k33SKlbvrZH73vl3V086JJHVpChVC5RBXua5DwICu1ZeAjK5ORoZ84HA4Ltn4yPzDKa7v/NEc4PgKQMaXb/uNMgBVOXGVq8zezEgWOQjVvwF3ZTMy9gt4xaaH5h5O9DHvHgln+FmAM8vYoloAaKniqsQ2O3eZxzNBVjwoFc3IIEhEoDhvy/L5HYluyNIJYPhlEF8pP8CWOrUa4ipXmZ9mgCzEAUglMzIAQH7atnze1kQE33kKlL4JwJjygVtmIVRRcZWrokkmyNDko779OCqWkbH7mFdblhjnXVoHp/5CeQEup1OrIa5y3VtlgqwzukuDVrGMDFI90O6bl3gckNPxM4DnVI+eSxVXRbTZ5dQBIjszQFbRhl2a5u/rOJQ/I+Oz8LGe38Uh+GLpyYjyB7a4sqxMAtqOjKnGDb4ZPQT2ViQjA3hmx+qFiQHjqNwHoK580Wti+Wexy1PyTgsWslJRFTYlmb3MvTJx3ZEMkPtR2laJjAwovJIo9xYXIK2Wg1tZp+YuE2YT80pND4pdh01GnukbQxJsq0BGhk7dGVfU+HzYDFj27CSrnFrKktIiy8yZmFdI+QqA/qqRd5wAoJTapvXtDFbOjIy9W1fMTYzGUL/Imif7DkJxZXxdFBHnG1kj+fjYzp0Aj5czI4OKB1KxkVNKB7fUbMc8Ce2lLimtrA7YJF/f8GVWkHcsXBhRwJvlzMiAhtThNjG5BWE1xRVrUlxlW9X439m8lViErvBaWfOzVNpDNgXDigIXLKHtKtWpLIO4skIHIAQla7N5LT4vqzTnS1DhCABXefKzamXkyoI2u2Z0QNxelq9tPpo3kjf4ruwUyB/Kmq1p5bRg0YrV4v06qqYDklmRv8rlvdR9vKieKNsWEUXt8j0IxVVeHZAeLvIhmtvWmwZ5/f3feRvE5mLys8z0m62N3lKdWsB+HTWjA4xMrRDJTZQZO/JR1BIylvhk5Y45LEFcqTI41aIyrVipaKpMQ/sEh91P5/NoBsgb77/2XZCrzOVnme9XFzY0WealJOUAqmw6IKe/7pEZG6IFgwwA/i+OLCXVxqK6SlmnIK0QVwWOGZ9I4irT1sjZbWvNeNYQ5B2rF0YcEVwHcp+12ZqliqsCB/dLElfV1AF5Ad6LYPD7ZtVN1k3NNyyb2+kIR78J9s1slLpFhDJ8rF051+mWKq6qpQPymGAfdMdM+caOYyWDDAAbHp3/hR7C5SR/ASBsyRYRWQG2xZWJJm0dRPuWTN64r5B+St6nyWxdMbd3y8+vX6pEawH4G4DHip2CTFX+tMWV2egF3gdxvZzdNlOaNx0qtDNqernJ1ofn7gHw3am3POVyD6+/kLpMg+AkkGMAaSJU38yh6t+ulUx6iJeA4PtpKJd7nW76UORHIA5k3it9PjrpmPQfU0ZpRbF2KPkeKqkbqNIXhiXOqxzdShEdoj4H5DMA+6H4mkxq+3Mp44VWTOgWN1DZseQdgFMrlu1ILpbxzz2JQWjO6t260ktJFAarVQ/kSmc7DmJzVvf2lVxKgpv552tmpGgCMCnAVVL56WpXpa4ITVHDKrV9VSrWnr8uzZt+PchBVpVeSjIF5JSKrXpQPGxHsultFMqxlKQSOkDZdB13Qu1kO5pjDtNl2m1yDiefCEtKbeGVKm5OqCWltrrOMXZtmbiq4pJSuwuVZ+zaKPJqZb8OfADybUD1ADgLwGUAh9Z69NbgiFdNLintAvE9aVn/Ysq3/vCSkdBDjwOcZw+GmMG4dsVVLwSXSfP6jLW+MnHdERIL0H6+ALx+IICsVe/WpUwLln1J6UqZmAlwHGgB4QjfBqDbBjmXiYpUd0lpDvB19V95v/7E7UcAvpL9ApO7s57gwqurRpeU6jj7pE9M1tQPc5w8akcy+HGNrnrQsKfHZOWnO/sp7RMbZKq3a3RJqSB83ORuRPLN7J5VbTbIzsjrALtqdEnpbXnraPsFzRBckgX87dLctn/QgyynrukF1C9rLzEPAHEd28+7MSvAu6c1guq3IBxZLvlFLalrqebNue/GIWDv+6A6q/r7dRj08QSPAeohadna1V+MYNd5M0B5HEBzll+1Di1tl+ZbhDZoQAYA7r32AhBvAPSUPndclmnBCICdAHoAmWD0tJYkOw5RU6Rl6x47ktOB3nPN3wNcA9BZ0Dh0LU0LCnqhZLZM2rzBHgwx8s+EtX+AqBsA9lr7CPgSlqMUZt2guroWAa6ZSE70nK+eDE1fC3B8effrsNTehea4Tpo37raHNc3UuK/8ficCwckAHwJUqDxPKbXMjoO4F57G6bUMcM1Fcmo7ffkERB33QDg/IcpKmTu2EFyRp6EiD8qkP32GAWBS61+Q7bPHQFO3QlMLQE4oLjHPEk/tgOJvMET/TznrTwNi9mnAgJwC+IeXTQX0awDOBDEFoKOMOVd+AFsArgOxttRFZzbIxQD+/vkj4HR+G1TTAEwFOAXgyCLFlQKwB8BOEO9Bk43A0e3S0h7GCWCCE8j4wbSToLnOANWZoJwC4TAIhoL9G6dTCOGXoBaEqIOgdgiaOoBow26Z/Lofttlmm2222WabbbbZZpttttlmm222DXwbaCNe4vP5pL29XVpaWgQAxo4dKwBw6NAhaWpqiv+erq4uU7+tqamJ/dezvzweOnSIANDc3Mxdu3YRAHw+34DdRqgmQSYpc+fO1VpaWmTs2LESA7Crq0saGxulu7tb6uvrBQC8Xq/09PTIqFGj4Pf7BQACgYAAQDAYlGHDjB9aEwqF4oB5vV4CQG9vLxsaGnj48GHU19fT7/ezsbGR3d3dbGpqYldXF2OVoL29nS0tLRwI4NcKyNLa2hoHNRQKaTFAdV3X/H6/1NXVSV1dnQQCAfF4POLxeCQYDIrb7ZahQ4ciGAxKKBQSl8sl/SAKANTX1xve0O/3w+PxEAAikQgBwOPxMPY6HA5TRFSsQowePVoFg0EGAgH6/f7knV9UR0cHx40bRwDK5/MpG+Q8wKIvW0WLgarruubxeMTtdovL5ZJjx45pLpdLnE6nOJ1OCYfDKX8dDocAQOxYtpu73W729vbC5XJR13W63W4GAgG43W5Go1FGo1FGIhFqmqZi4MeAD4VC9Hq9dDgcKhAI0OFwqO7ubsYAnzlzptq1axdrBfCqgOzz+bQYmE1NTRKNRjVd1zWv1yu6rmuBQEBIaqNHjxZd17VQKCRKKW3YsGGilNLC4bB4PB4tBqTD4RCSmqZpMmTIEEQiEdE0TaLRqHg8HkQikZTf6XK5GAqF4HQ6qZSiruuMgR37X9M0pes6o9EoNU1TmqapZOBjgDscDtXb20tN01RShMfBbm1tVSJSVTr/f/I5ej5sXu0gAAAAJXRFWHRkYXRlOmNyZWF0ZQAyMDIyLTExLTA3VDE2OjU2OjA4KzAwOjAwH/xA0AAAACV0RVh0ZGF0ZTptb2RpZnkAMjAyMi0xMS0wN1QxNjo1NjowOCswMDowMG6h+GwAAAAASUVORK5CYII=;" vertex="1" parent="U3krhh0B3n7ER5-2B62J-8">
          <mxGeometry x="190" y="239.3399999999999" width="39.12" height="43" as="geometry" />
        </mxCell>
        <mxCell id="2q1pVqS0Al537EC6Pk_O-214" style="edgeStyle=orthogonalEdgeStyle;rounded=0;orthogonalLoop=1;jettySize=auto;html=1;entryX=0;entryY=0.5;entryDx=0;entryDy=0;" edge="1" parent="U3krhh0B3n7ER5-2B62J-8" source="2q1pVqS0Al537EC6Pk_O-120" target="blMIOamzqk59xTB1D_x0-59">
          <mxGeometry relative="1" as="geometry" />
        </mxCell>
        <mxCell id="2q1pVqS0Al537EC6Pk_O-120" value="" style="sketch=0;html=1;aspect=fixed;strokeColor=none;shadow=0;align=center;fillColor=#2D9C5E;verticalAlign=top;labelPosition=center;verticalLabelPosition=bottom;shape=mxgraph.gcp2.external_data_resource" vertex="1" parent="U3krhh0B3n7ER5-2B62J-8">
          <mxGeometry x="49" y="262.04" width="30" height="37.97" as="geometry" />
        </mxCell>
        <mxCell id="2q1pVqS0Al537EC6Pk_O-217" style="edgeStyle=orthogonalEdgeStyle;rounded=0;orthogonalLoop=1;jettySize=auto;html=1;entryX=0.565;entryY=1.005;entryDx=0;entryDy=0;entryPerimeter=0;" edge="1" parent="U3krhh0B3n7ER5-2B62J-8" source="blMIOamzqk59xTB1D_x0-65" target="blMIOamzqk59xTB1D_x0-75">
          <mxGeometry relative="1" as="geometry" />
        </mxCell>
        <mxCell id="2q1pVqS0Al537EC6Pk_O-315" value="" style="edgeStyle=orthogonalEdgeStyle;rounded=0;orthogonalLoop=1;jettySize=auto;html=1;" edge="1" parent="U3krhh0B3n7ER5-2B62J-8" source="2q1pVqS0Al537EC6Pk_O-313" target="2q1pVqS0Al537EC6Pk_O-120">
          <mxGeometry relative="1" as="geometry" />
        </mxCell>
        <mxCell id="2q1pVqS0Al537EC6Pk_O-313" value="" style="image;aspect=fixed;html=1;points=[];align=center;fontSize=12;image=img/lib/azure2/general/Download.svg;" vertex="1" parent="U3krhh0B3n7ER5-2B62J-8">
          <mxGeometry x="22" y="184.66000000000003" width="35.34" height="37" as="geometry" />
        </mxCell>
        <mxCell id="blMIOamzqk59xTB1D_x0-27" style="edgeStyle=orthogonalEdgeStyle;rounded=0;orthogonalLoop=1;jettySize=auto;html=1;startArrow=classic;startFill=1;" edge="1" parent="1" source="U3krhh0B3n7ER5-2B62J-9" target="2q1pVqS0Al537EC6Pk_O-110">
          <mxGeometry relative="1" as="geometry" />
        </mxCell>
        <mxCell id="U3krhh0B3n7ER5-2B62J-9" value="Servidor Web" style="swimlane;whiteSpace=wrap;html=1;" vertex="1" parent="1">
          <mxGeometry x="1280" y="70" width="410" height="280" as="geometry" />
        </mxCell>
        <mxCell id="2q1pVqS0Al537EC6Pk_O-113" value="" style="strokeColor=#dddddd;shadow=1;strokeWidth=1;rounded=1;absoluteArcSize=1;arcSize=2;" vertex="1" parent="U3krhh0B3n7ER5-2B62J-9">
          <mxGeometry x="200" y="39.42" width="170" height="60" as="geometry" />
        </mxCell>
        <mxCell id="2q1pVqS0Al537EC6Pk_O-114" value="&lt;font style=&quot;border-color: var(--border-color);&quot; color=&quot;#000000&quot;&gt;Html, Css, Js, Pdf&amp;nbsp;&lt;/font&gt;&lt;br style=&quot;border-color: var(--border-color);&quot;&gt;Cloud Storage" style="editableCssRules=.*;html=1;fontColor=#999999;shape=image;verticalLabelPosition=middle;labelBackgroundColor=#ffffff;verticalAlign=middle;labelPosition=right;align=left;spacingLeft=20;part=1;points=[];imageAspect=0;image=data:image/svg+xml,PHN2ZyB4bWxucz0iaHR0cDovL3d3dy53My5vcmcvMjAwMC9zdmciIHhtbG5zOnY9Imh0dHBzOi8vdmVjdGEuaW8vbmFubyIgd2lkdGg9IjIwIiBoZWlnaHQ9IjE2IiB2aWV3Qm94PSIwIDAgMjAgMTYiPiYjeGE7CTxzdHlsZSB0eXBlPSJ0ZXh0L2NzcyI+JiN4YTsJLnN0MHtmaWxsOiM0Mjg1ZjQ7fSYjeGE7CS5zdDF7ZmlsbDojNjY5ZGY2O30mI3hhOwkuc3Qye2ZpbGw6I2FlY2JmYTt9JiN4YTsJLnN0M3tmaWxsOiNmZmY7fSYjeGE7CTwvc3R5bGU+JiN4YTsJPHBhdGggY2xhc3M9InN0MiIgZD0iTTAgMGgyMHY3SDB6Ii8+JiN4YTsJPHBhdGggY2xhc3M9InN0MSIgZD0iTTE4IDBoMnY3aC0yeiIvPiYjeGE7CTxwYXRoIGNsYXNzPSJzdDAiIGQ9Ik0xOCA3bDItN2gtMnoiLz4mI3hhOwk8cGF0aCBjbGFzcz0ic3QxIiBkPSJNMCAwaDJ2N0gweiIvPiYjeGE7CTxnIGNsYXNzPSJzdDMiPiYjeGE7CQk8cGF0aCBkPSJNNCAzaDZ2MUg0eiIvPiYjeGE7CQk8cmVjdCB4PSIxMyIgeT0iMiIgd2lkdGg9IjMiIGhlaWdodD0iMyIgcng9IjEuNSIvPiYjeGE7CTwvZz4mI3hhOwk8cGF0aCBjbGFzcz0ic3QyIiBkPSJNMCA5aDIwdjdIMHoiLz4mI3hhOwk8cGF0aCBjbGFzcz0ic3QxIiBkPSJNMTggOWgydjdoLTJ6Ii8+JiN4YTsJPHBhdGggY2xhc3M9InN0MCIgZD0iTTE4IDE2bDItN2gtMnoiLz4mI3hhOwk8cGF0aCBjbGFzcz0ic3QxIiBkPSJNMCA5aDJ2N0gweiIvPiYjeGE7CTxnIGNsYXNzPSJzdDMiPiYjeGE7CQk8cGF0aCBkPSJNNCAxMmg2djFINHoiLz4mI3hhOwkJPHJlY3QgeD0iMTMiIHk9IjExIiB3aWR0aD0iMyIgaGVpZ2h0PSIzIiByeD0iMS41Ii8+JiN4YTsJPC9nPiYjeGE7PC9zdmc+;" vertex="1" parent="2q1pVqS0Al537EC6Pk_O-113">
          <mxGeometry width="30" height="24" relative="1" as="geometry">
            <mxPoint x="15" y="18" as="offset" />
          </mxGeometry>
        </mxCell>
        <mxCell id="blMIOamzqk59xTB1D_x0-46" style="edgeStyle=orthogonalEdgeStyle;rounded=0;orthogonalLoop=1;jettySize=auto;html=1;entryX=0;entryY=0.5;entryDx=0;entryDy=0;" edge="1" parent="U3krhh0B3n7ER5-2B62J-9" source="blMIOamzqk59xTB1D_x0-1" target="blMIOamzqk59xTB1D_x0-21">
          <mxGeometry relative="1" as="geometry">
            <Array as="points">
              <mxPoint x="170" y="110" />
              <mxPoint x="170" y="140" />
            </Array>
          </mxGeometry>
        </mxCell>
        <mxCell id="blMIOamzqk59xTB1D_x0-49" style="edgeStyle=orthogonalEdgeStyle;rounded=0;orthogonalLoop=1;jettySize=auto;html=1;entryX=0;entryY=0.5;entryDx=0;entryDy=0;" edge="1" parent="U3krhh0B3n7ER5-2B62J-9" source="blMIOamzqk59xTB1D_x0-1" target="blMIOamzqk59xTB1D_x0-37">
          <mxGeometry relative="1" as="geometry">
            <Array as="points">
              <mxPoint x="90" y="235" />
            </Array>
          </mxGeometry>
        </mxCell>
        <mxCell id="blMIOamzqk59xTB1D_x0-1" value="" style="strokeColor=#dddddd;shadow=1;strokeWidth=1;rounded=1;absoluteArcSize=1;arcSize=2;" vertex="1" parent="U3krhh0B3n7ER5-2B62J-9">
          <mxGeometry x="10" y="80" width="140" height="60" as="geometry" />
        </mxCell>
        <mxCell id="blMIOamzqk59xTB1D_x0-29" style="edgeStyle=orthogonalEdgeStyle;rounded=0;orthogonalLoop=1;jettySize=auto;html=1;entryX=0;entryY=0.5;entryDx=0;entryDy=0;exitX=1;exitY=0.5;exitDx=0;exitDy=0;" edge="1" parent="U3krhh0B3n7ER5-2B62J-9" source="blMIOamzqk59xTB1D_x0-1" target="2q1pVqS0Al537EC6Pk_O-113">
          <mxGeometry relative="1" as="geometry">
            <mxPoint x="160" y="110" as="sourcePoint" />
            <Array as="points">
              <mxPoint x="170" y="110" />
              <mxPoint x="170" y="69" />
            </Array>
          </mxGeometry>
        </mxCell>
        <mxCell id="blMIOamzqk59xTB1D_x0-2" value="" style="shape=image;verticalLabelPosition=bottom;labelBackgroundColor=default;verticalAlign=top;aspect=fixed;imageAspect=0;image=data:image/png,iVBORw0KGgoAAAANSUhEUgAAAewAAABmCAMAAAA+qFJYAAAAilBMVEX///8AmQAAlwAAlAAAlQAAkgAAkABcsly02rRCqkLH4ceWy5ZsuGyt1a2h0aG12LUboBvB4MHW69aGwobQ6ND0+vTh8OH6/frs9uzb7dtGqkbu9+6p1Knm8+ZquGo7pzt4vngsoiyTypNXsFdOrU4koCRFqkV3vXeBwoGJxYmj0aNcs1xTrlNktmTYWd7eAAAPfklEQVR4nL2d2ULqMBCG23RxQQVUwAVRUY4r7/96p1CwTTJrEvgvNU3afKTNTCaTLNvpbv5x8rtY3map9NRU+LYYXKsu+lhcBGvxIm9nerV4eL+Y3+ElJuOr5XKuu3tSk/GAqfB6/vW5PH1K1+T95fJmeTl1//z0UxemUVnlp2naed9XOBrLrxrWJkK19Jd6/1CXJs9NUa8f4RLTdVWUpiwqs5zJb5/Q9VvdVphfISW+86rpsbKonxUdRul0tXuG1dD6+7xqnn2n6j3B4w3qXoVr8WWjPEbmn/rmTAX27LIrUeQpRvdnr8LRPVDgaVV093SSoMXJWdUReJh0/xjU/T4rV9G0P6t+hcWZ8LJ5kUepEg1t++bquV9ibZeIH2nvBXOb94XpFShfownc5f0KTf73BhtbrJt/xdK+dCosZGN7ZvI4mQdBK9+VfVF97pb4dH5zNTQUNXoo7Qor97s8cQpEE7gzdl+a0e4ffh+b1YSsitGkciuUDY5l5MBu2uGH9l3tXeV07K1XYgRXJZXLOjevTolfF0EkgScPafHZ/mfg93FcWzfuw+W5+3SQJtGsc/PLtrL2+2Fpl3j2S1yGdUSrf353ODOFa/8HaEYRBHzWTZPtixyaFUW1BTUleBN+xL7FG9Wc4fLovXUaWSXugRKS3yomb1w3Mu9WkQvgySMIQKzzcrD9l/+zimvrGuitAjM4Ok3B+1Cq/GJaOQVeH5U1374C4NSIhSYQMK43TVqfDvBXHkzgCWzRbGfJY/jtGU4b6k/zwV72nmBgN7SZVj6BnrDf0gvgPgpvEifVGdjz9u/rDnrbBBOYwi22PQOxiWirGRoQbNZ0PIefWCvu8wq9Mds33F4PEOwhVh8jhLX964E+HBuZPIAAxjqvNy8TDHYw7TDYr8hdaMV8XnnYZwlhP2M9L4IdQhtl3X45UNhhv6xA2KdpBrb7AfZ0VNgoaxu2b6ru1XOGyDQlLJrN/3HYgbSDYOP3qJRZkO0cEzbO2pkEEE+jo31PsNxapQRs/S9roxDYgK0fqor8gR4RNsHagf2Fl1QRIFjvJjMU7KCxHQA7gT/lTzY6V8eD7ftm+hVasAGv3p9MTqzD2qJY52Zr7JGwQ8Z2AOwPYhDoRbV0NNgka9eWc73xfYlpk6yrdr2Hhh1AWw8b9uuEqqAc8ceC/Up7DVzDnSpujIg25Mvq2vtpCzGw9bT1sL11gCiRy9rHgT1jWHuwZyuKdi6IXiFZl/vlQA62mrYa9m0qs2un2gvE6XQU2Cxr3yVH0s4NS5vsw/LPFc/C1tJWw0a6xhS8YK/yJ97WMWDzrAH/axxtIWsBbCVtLWzEn2IezseczoHV1EYFvvR/BNgC1pCznb6sJGmTrIveuq8Atmb+r4eNtClZFUUWjIpvtPzhYUtYgysrDG3i2yRmLYKtoq2EjfhTGE8Y1Vier9DyB4ctYg0vo81Icw2nTa4hFW/9oiLYGto62Jg/pRJ+OeDlYjQ86dCwZayxNdMg2jTrH6usDHZj7Umj13WwoQXmXBCFsBf4YsCbOzBseprVqxBZIKfdbiDtc8pJUTgdIYQtmf+3UsHG/ClG1lbTvfDQxt5Dh4UtZY1HQ1AO9bwApjFuaLB9gRvWK4Ytpa2C/Qb3TgFEcyMCY1LRF8NBYYtZE6EvWLhDe5lHW8daAVtIWwMbm0fiMyxPM/D+sTfDIWFPxKypOCcVbSVrDWwZbQ1s5BsFb8pBtIR6p0C2rB0Q9mQk9/pSQW1wiOK+ZyzaWtYq2CLaCthDzJ/Ct9IJnM97cfg7HQ62hjUdwUjT7kXi0Kwh21UFW0JbARt7IN1+G3DtHwlPOhhsFWsmXPVdRntIsr6AatbBZvx2G8lhwx6R3ID3iQuM4UIqORRsHWsuNllEO4C1Fjbpt9tKDBueWsn9KX8CbXU4POlAsJWs2UB0mvbWZXQawFoNG7HtO4lhI/4Ud+8VL3Bow5tQDgN7kutY87sOfsmwk1uONbYnA4Yd6pPP5LCxyCuxP6UT/LOBSh4Etpq1YIsJTfuaZF29YLWCsM9OSGuPpC2FfYL4UwK2TILb9UD77RCwSdbmeQU9JL+f6I0MHyRf8y9opeDWrDNw82F3rxRtIWwsjkbhT+n0UVee6meg4BoqaH031LBp1qMsEDZNm1BFxG6AsJ+ZOQLkpd1LCBvzpwTtoZtcA4KWvu5vAVkGhhb2I8l6NQO3RIt2Cp4E0aZYo7CDactgjxF/yjtU5TGlhM2yDocdRJtkjcMOpS2DjSRGUvpTDiAdbJ51BOxsraZNsyZgB9IWwU7kTzmAVLAFrGNgq2lXN3R9BGwnpZNbMUJbAhteheY2ah1FGtgS1lGwlbSrkMQTe9ictQdWKIGdzJ+SXgrYNOt9MrMo2NlCQZtlTcOm5/8FSFsA+zGdPyW55LDvRKwjYWcXYtoVP1Ro2DRtcGwLYPv5qdouiEpBlUhi2LJxHQ1bTFvAmoOtp83D1vtT7qANA8OdThtdNpo3+t7oylEP1RQyyIPsbOG4joctpC1hzcJW0+ZhK/0ps6tRLdgKhKqf9zCZB81NGGk/bj/5aDTs7ENAuyK3pe/Fws5+uBUYWyxsLD4F8aeMTdxWfSvuJZVvnB7Xz/39R/Gwsw9266OMtQA27cnxaLOwkYqQzZc3sZu3rRtMBJse1xbrFLCzF4a2kLUEto42Bxvb7wOvwX7F7uc1VgLsNLDBhJF/DTrhbylgZzfkImqJb26zJYGtos3BRujBdhwZUyeSfXdJYNOs3b5LAhsMoe2eQHr8gwg27cmx+5OD/YWMbDCklHpEkZxHSQGbZF16XZcC9g3zfoNS5EOSwVbQDv1mQ8EGsWcLeFP8BLBp1v6pCQlgf7Lfslr2IhfCZmj3bp6FfYncOpDDHep5ldwniYcNJ/3dVwWckBEPm2ctpS2FTdPuHb7A29nItlY/RHAW/8V2ejUa9hPVCxDreNgS1g0BPsu3Ajbtk+9o87CxHV6Fu+Y1jZ6Kuw8SCxtPBJsjrKNhc2bXXhLacthC2gLfOBJrWLrWVzRszykXCZtmDefkioQtZS0ythWwadr7CZYANhZF7PpVsNUxqfwdX3GwQ1hHwpazltDWwKZ98rszfiTr2UhqVi9fnfxBQfkT/CjYVILnLrGcqyjYErd473k52irYEtqisCRklu3SQYIcpPK3csbADmMdBVu+mN2KW/rSwRbQFsEWml9xWU0Byz0CNpkIFmcdA1vLmqWthM3TlkWXCs0vKl8vK2CPdjhsmjURAR0OW8+ao62FTX9GGtoy2FLzS566whPkkguGHcw6HLYm/Kz31FQgmho2PUGszyEXJ7AjBAlNche/tJthe4KSLwTCHpNGIMk6GLY+aLwVRVsPm6ZdQAmQANjIaVbeMaez90BjO+HGPkOuMBb0oZCBsEnWJbmxD6cdAJumDfULtIsTW/3yzNXhqCqpQ9KR+wCzqoTBJrfkMqwDYTPO6Tm5ZRfdFhICW2XqbyuENuMLza9G14PF28/Pycl6vV4sFhcXFx+NXj4/bxotkdT0cMalQNiEONZhsMkAgs00+DuIdhBsoXO+qxCCjZ7lxTVu6xWuBE6XlBy2nQgWUghsOlhke3HQ2A6DraQNJ9DBzC9hQFUrJHwRSaWWGjbPOgQ2HeK5uzaEdiBsHW0YNhY/7q1+UUK2gybNg4ZKwDoANh28/XcpTfsFqjkUtoo2kgdNaH5R0g3sxLCdBM+w1LDJDXb9IPhLNe1g2BraCGzM/FLs0kYGNra5JClsN8Gz/A4p2GyipE50Gh1gyITDZsPgehUi3SI2vzApB3ZS2DLWWtj0NmknbFubDC0CtjyoG01BjT2UNFMtlJ0mJw5WTghbyFoJW5Duri9lmsMY2GLaKOxI80s7sBPClrLWwRamLe31gIp2FGwpbfwchzjzSzuw08GGEjzD0sAmE5LByQ9UqYnjYAtp47CvkXsVJdxQD+xksOWsNbDJ5NNYEhsN7UjYMtrEUU+Y+SVJpaMe2KlgK1grYAexVqWYj4WdLQW0CdhgKspcZH4hudSo2V0a2GDidkxi2MrjQXr9IKYdDVtCmzqxDzzRpdHz1w2tr1f4QiohZhLYKtZi2OqDfzrRtHt9Hw9bQJs8eBW7qOQEX0aabSlg61hLYQcc6dUJecftLu46PwFsnjYJGzW/wkRmuk0AG0vcjkkGO/Boxr2Ex/algJ0NGF70Yenkg2pF+2PiYWtZi2CHHsPZSXYgZxLYHG0aNmZ+BYlOYR0NW81aBJu0ryWss+xW4l1JA5uhTcPGzK8QMY7WWNh61hLYSOaR3e0Jj8UkD1au2j0tiWBnA+qXxcDGzK8AETb2RpGw0cM3CPGwwTNO9hIfeEvTbv3PqWBnVwRtBjZqfqnFraDEwYZWDVnxsJEUzVvJWdO0245JBpuizcGOz52yE3foRBRs4vANQjxsYnamYY2H/uR7j2Q62ARtFnYi84tdGo2BHcZaABt9dsUR9a0I2tthkBA2TpuFncj8Yk+TiYAdyJqHjc5Y1Kwb2ugXYZvxGTn9J0xYNDMPO4n5xcc88LD/YeHs9IEMuFjYWHCWybVHF2YE7S3scwi2YlHHFkLbvLBXpjC/+GOioORxdpYz5D6CWWcPQIVWyMkMyeWqH9cbYTsQt5uhoZdIqYrctgTTFpx0n8D8EgQzQU7k2poEwbkEw1lnLxBsa7X+FWoxaFxvBNPejV/gaxlzBg8YzVwLJpXx5pfk/DcfpZN4BbRfIlhnY+C57Cah31cwa4T27vT4S+9/ofOzVgBt2WldED+NRFGK/k/KvQz4xsawhva0OS86IJ9QBGs4z0+5y5TsxXvUkq3iuHza7jZcWEiQkViygx29bnUTZPhWIHeAEiPAZ+KUeHFLmDzqGCSfdrXPaHHvwCleYhrKfNqiEw2yWPOr4o+v38h5WmO8bnUjPPlDdZTP5Q8mJ+NAJGufdi/lix3oINrTQsvel1JJFw8Il4BAQOpTUOdVr2dN7s8mZiurq6JZu0ezAmlG7cNlylH08WZP1rb1sj9HuM7/3iOmjn62Rufdmb+mlk/tY8yvQppzO5uu9k9rqgeoW/vJHowoJyijyVmvwgq60UnXpKneZkAJpR6fuwprJ7RmaTbZDcqifktzGObsq2wrrNYK7+5dxMEvml3d81FVlM3DPmNTutO8ufvmFV/Uv6LFZFbffxWeIP0xfK2L0lA3pdTpqmor/OdPwW6/l1+DccLjEUMqHF+Gag4fH4hpOry6GlNOi9vl+v3tY65ahyB13lZITLKfhoPlYJiuxWx62lQ47lr8D8nAIpm9I2pDAAAAAElFTkSuQmCC;" vertex="1" parent="U3krhh0B3n7ER5-2B62J-9">
          <mxGeometry x="29" y="99.42000000000002" width="102" height="21.15" as="geometry" />
        </mxCell>
        <mxCell id="blMIOamzqk59xTB1D_x0-48" style="edgeStyle=orthogonalEdgeStyle;rounded=0;orthogonalLoop=1;jettySize=auto;html=1;entryX=0.5;entryY=0;entryDx=0;entryDy=0;" edge="1" parent="U3krhh0B3n7ER5-2B62J-9" source="blMIOamzqk59xTB1D_x0-21" target="blMIOamzqk59xTB1D_x0-37">
          <mxGeometry relative="1" as="geometry" />
        </mxCell>
        <mxCell id="blMIOamzqk59xTB1D_x0-21" value="Â  Â  Â  Â  Angular SPA&#xa;Â  Web app" style="strokeColor=#dddddd;shadow=1;strokeWidth=1;rounded=1;absoluteArcSize=1;arcSize=2;movable=1;resizable=1;rotatable=1;deletable=1;editable=1;locked=0;connectable=1;" vertex="1" parent="U3krhh0B3n7ER5-2B62J-9">
          <mxGeometry x="200" y="110" width="170" height="60" as="geometry" />
        </mxCell>
        <mxCell id="blMIOamzqk59xTB1D_x0-24" value="" style="shape=image;verticalLabelPosition=bottom;labelBackgroundColor=default;verticalAlign=top;aspect=fixed;imageAspect=0;image=data:image/png,iVBORw0KGgoAAAANSUhEUgAAAOEAAADhCAMAAAAJbSJIAAAAyVBMVEX////DAC/dADHQADDdAC3DAC3dAC++AADBACTcACbCACjBACDDACvcACroeofdAC7XeobuyM2/ABHAABrcACDbABrmrrXekpz14OPgMkzIMkrVcn/aAAn89PXcAB/bABbNTF/zv8XqiJTncoD+9vfvpa3419v56+2/AAnaAAPwrbXGHz3ytr3ioanhPFTmZnbqvMHkWmztmaLjTGDskpzSYXHMQlf30tbbiJPPVGbfHT7kVmn1xsv65ujkpq7PACbUanjJAADUMku4ZNHtAAALSUlEQVR4nO2daVsaSRSFoaHZUcOSuHQkKiIi0Ykanbhkmf//owa6aOjm3lrvZctT79eZp9JH4Jyq013VuZzH4/F4PB6Px+PxeDwej8fj8Xg8Hg/C896vk+dNX8TqOHwMetVCpdX493DTl7IKri6Pos5+EBTy+bA+vPl6tekLYmb8cN0pBlMmCic06uWnj/1NXxUbZ3fRaTOYIRROqLXL3//Z9KVx8Lx32q0GC+YKY5Gtkw+bvkAasbeUgkCicPKTrLRqu+s7sbdk5QGF+d31nf7oIZp5i0bhbvpOxlv0CoXv/NgZ33ne63Yl8uQKd8d3Ds/3l73FVGHsO5Xt9p2ry5dIKU+jcOY7n7bUdybeco16i5XCWGT56ef2+c7ZN6m32Cqc0Ng233m+UHmLg8L8VvnO4Lyo9hY3hTPfGWxa3tW93ltcFeZnvvO+OXn90S0+b2FTGIssH//8vBF9xt6S5Zelwnw8qVu/7zxf9Iy9JUNv3LKXGPvO7zX6zuC8aeMtaZoPuS81F4lT36mvx3fsvSXzEb7lPjh9iDOR+VX7Tuwt+67ygqD4MhnkpuEqceW+M/UWW+vM0h1NhvnYdleYX6HvfHD1lhSlTjxUPSRJnPrOkNt3CN6SpvMYj/apTlQ4+bbWWvUDNt95J3lLmkisGD6XyQrzfL7Tv6R5S5rqxWzQkwqHxHhSR/Wd8SvVW9JEyfL9kOVDjJn4zhdCiTW4pnpLmknaJzimPk6t7P6D7EeMAoPewv7cUx9jSPii9lgMRhCnfQIl9QFld4G5I74fYdAdpwYmpn6G8Iag8Bvf77BUzYxMTv0FtR8EhXtV/aUb0rnPjMyQ+gmVA4LC+w6XwFKUtXSe1I+pfyIoHJ9yKazuLQ3Nlfr5fPsjQeFzj0thtDy/4kv9FmUS/s6lsPkKxmZL/RZpcsoV+T34EA1b6pdJdwB41hRB8QgZmyn1wzZFYO6WJ/IzaZ/AlPqNY5LCO5ZALDXRwXlSv/adpPCcReFS2ifwpH79X5LCS47IL/VwL+BJ/fpXksKzLoNCkPYJLKnfphVvA45ABGmfwJL6LVohdcUQiM1v0uE5Un9IvOvPoDCSPzLLkfqU9e+UF3LPhqZ9Aj31wzxR4QN5DYymfQI99WtPRIUX1EAsFZXjt6mpX/lNVPhIDcTOpXJ8cuqT1r9TRsQ1cKmnHp+c+vWfRIVvxMivnmv+AWrqt6k3oQ6JkX+tSytq6reoT/oRa29F2icQU59SeAu6pDVwBKZUoDYipn6LKpBWexdvl4fr/wHrDFLqkwpvAan27p0tD3f/Byx2SKlPKrwFlNp7PwDDBb/gLIuy1icV3gJK7X0K0v6tV4D1JiX1yYFPqr2RtH9tFuD36vPQXSGp8BYQam+Y9u/XQSFfBhFJSH1y4JNq7whIOa9OFMLqiJD6tMJb4Bz51Tsw1mlpohCpcN1Tn1Z4C5qukQ/TftyNn6CFvx3n1A/rdIHOtTdM+3j2UEBbatfUJxbeAtfaG6b9YPqFnz4FPYRzOcfUJxbeAsfaG0n7uC+YKqycgP/mmPoVWuEtcKy9YdqLZUr8JDv0B8fUJxbeArfau9SV/KkK+IU5rvWJhbfArfZG1vbB/lxhA05O3VKfWHgL3GpvuLZ/E38psd8CTk7dUp9aeAtcPkMk7V+bKYXIoscp9YccAnOBQ+TDtE++CrM9M3By6pL6Ycii0KH2bsK0T0JnphC5r+mQ+uTCW+BQe/fewCjJvvWZQmS65ZD65MJbYF9777+AQcZJ5iQ7uxCft099hvXvFPva+3QEBpnPbhOFDfgFs099cuEtsK69S6dgjME8cua784agyrVPfYb17xTr2nu2rSLN4rc8V4hMTq1Tn1x4C6xr7wjU0P1onjhzheEQTE6tU59eeAtO7QJxvq1iQWr2vthDisyaLVM/pBfeAsvaG6Z9+l75QiFSV1umPkPhLbCrvVPbKuYXnvolp/YBIw+G2qU+Q+EtsKu9kbRP/4lSCpEFul3qMxTeAqvaG0n7q+vUf0/v5YaTU7vUZwp8y9obSfvMpKigvkKr1GcovAU2tfdsE2WGzGO4aYXI5NQq9ZkC3672RtJ+nJkTZU4cQCanNqnPFPg5q9obpv1S4ZpRiKx+bFIfzhlcMX/aG0n7wXUxTaGRpgw/BfPUJz7hnca89o7gFZ+/HKX57zjNDVwIm6c+S+EtMK69kbS3xzj1WQpvgXHtjaS9Pcapz1J4C0xr7yJMexdMn+ZjKbwFprV3F6a9C6apz1J4CwxrbyztXTBNfZbCW2BYeyNp74Zh6vMU3gKzzzDiCmDD1OcpvAVGtTeS9q4YpX7YYPv3DGtvJO1dMUp9psJbYFJ7I5so3TFJfabCW2BSe/c4T4wxSX229e8Ug9pbua3CHoO1fp1r/TvFoPZWbquwxyD12da/U/S199KRCWQMUp9v/Zszqb0lmyjd0ac+V+Et0B1ysnxkAh196nMGvr72xjZRVosY2TX+jAoSbbrUZyu8BbraG9lEedYrYRRCDKTN0KU+W+Et0NTeWNpL5kH46Z7YdmVN6rMV3gJN7Y0cmfAuMSdcIVYqaVKfNfB1tTeW9rLmQ3JCK1Zfq1OfrfAWqGtvLO1lNx1lp84jXqNOfdbA19Te2JEJY9ksSHbKLuI16tRnDfycuvbG0l663pIpxIozZerzFd4C+KKKxUeIpL3MZ+QKMa9RpT7bHe4ERe2Npb28YZWeBY05hyL1GQtvgaL2vka2PMg/cqlC5BEiVeozFt4C+YeCbaKU+ozqPG/4CJEq9RkLb4G89saOTLh1eYMHNkmRpz5j4S2Q1t5Y2st9RqUQvVkmTX3Gwlsgrb2xtFfdyVGcOo95jTT1GQtvgaz2LpWQ/1kRLSqFmNdIU5+z8BZIFGJHJih8Rv3mAMxrZKlPPdIEgtfe6JEJCp9RK8S8RpL6TE94p8GnYdiRCYfKUkf5riDMa/DUZy28BXjtDTdR6u4YK99vgXkNnvqshbcArb2bcFuF7mFNpULMa/DUJ55hhoHW3siDlmqf0b2jBPMaNPVZC28BVnsjmyg1PqNTiJYvWOozr3+nYLU33ESp8xmdQtRrsNTnXv/m0Nob2USpfzJF8yYdzGuw1OctvAWw9u5gj17oHgrXKESXfQcw9XkLbwGsvZsXewDt41O6tyHVTw4A30EkMhfeAqT2blYB2tvh2vc9VSAw85kLbwHT2d62b7SS/Bl4C2/BiOdFCSwKa2WeDU9LHD5EDGfuMihsDJ9W9aLLtxfaqVEsCsP2zSrf3jVqqla3a1AY1lcwX8vy2KM5Dk1hZch7xwmlf0GyHIrCWvn3et4TePhKsBx3hY3hl/W9Sff5yPn9LK4KV2wwkHHTclciTeEaDAZy72Y5TgrXYjCQ/p6L5TgorJVPNvMi0lzu3cFyrBWu1WAgE8uxPCzaUmHYWrPBQMYlO8uxfB9wbf0GA7GzHBuFldZGDAZiZTnmCmvlg+15w/r7N2PLMVXYGP7Y4OuqEYwtx0xh2DqWn8a/Kc4CI8sxURi2G2t/S7URl12DR/oNFNZb3Pfo+TiPtLaqVbhVBgO5uos0tqprhMs/2G9fMzO4VVuO+u5a63gtLxcncqbsqxQKw3Z+Ow0Gcnkqtxy5wnp7ew0GIrcc6dOX220wkKs7yUwOV9gof992g4FILAdTGO6GwUBQy4EKd8hgIJcdUJEDhbtlMBBgOUsKK2X+x0bWzLLlZE9v2UWDgQweekVUYdh62k2DgaTvyi3O3Gvf7K7BQEbVpfNLJwazktu4G+RxZjmFv8VgIJ/FXblCbDC//waDgcQPAhQmS6SV3YbfPBPLKaz7Ltm6GRX+NoPxeDwej8fj8Xg8Ho/Hsx7+B98oHUeYawuCAAAAAElFTkSuQmCC;" vertex="1" parent="U3krhh0B3n7ER5-2B62J-9">
          <mxGeometry x="212" y="120.75" width="38.5" height="38.5" as="geometry" />
        </mxCell>
        <mxCell id="blMIOamzqk59xTB1D_x0-37" value="" style="strokeColor=#dddddd;shadow=1;strokeWidth=1;rounded=1;absoluteArcSize=1;arcSize=2;" vertex="1" parent="U3krhh0B3n7ER5-2B62J-9">
          <mxGeometry x="215" y="210" width="140" height="50" as="geometry" />
        </mxCell>
        <mxCell id="blMIOamzqk59xTB1D_x0-38" value="Logging" style="editableCssRules=.*;html=1;fontColor=#999999;shape=image;verticalLabelPosition=middle;labelBackgroundColor=#ffffff;verticalAlign=middle;labelPosition=right;align=left;spacingLeft=20;part=1;points=[];imageAspect=0;image=data:image/svg+xml,PHN2ZyB4bWxucz0iaHR0cDovL3d3dy53My5vcmcvMjAwMC9zdmciIHhtbG5zOnY9Imh0dHBzOi8vdmVjdGEuaW8vbmFubyIgd2lkdGg9IjIwIiBoZWlnaHQ9IjE5IiB2aWV3Qm94PSIwIDAgMjAgMTkiPiYjeGE7CTxzdHlsZSB0eXBlPSJ0ZXh0L2NzcyI+JiN4YTsJLnN0MHtmaWxsOiM0Mjg1ZjQ7fSYjeGE7CS5zdDF7ZmlsbDojNjY5ZGY2O30mI3hhOwkuc3Qye2ZpbGw6I2FlY2JmYTt9JiN4YTsJPC9zdHlsZT4mI3hhOwk8ZyBjbGFzcz0ic3QwIj4mI3hhOwkJPHBhdGggZD0iTTQgOWg0djJINHptLTIgN2g2djJIMnoiLz4mI3hhOwkJPHBhdGggZD0iTTQgNEgydjEyaDJ6Ii8+JiN4YTsJPC9nPiYjeGE7CTxwYXRoIGNsYXNzPSJzdDEiIGQ9Ik0yMCAxSDd2NGgxM3ptMCA3SDd2NGgxM3ptMCA3SDd2NGgxM3oiLz4mI3hhOwk8cGF0aCBjbGFzcz0ic3QyIiBkPSJNNiAwSDB2Nmg2eiIvPiYjeGE7PC9zdmc+;" vertex="1" parent="blMIOamzqk59xTB1D_x0-37">
          <mxGeometry width="30" height="28" relative="1" as="geometry">
            <mxPoint x="15" y="16" as="offset" />
          </mxGeometry>
        </mxCell>
        <mxCell id="U3krhh0B3n7ER5-2B62J-25" value="Phone" style="strokeColor=#dddddd;shadow=1;strokeWidth=1;rounded=1;absoluteArcSize=1;arcSize=2;labelPosition=center;verticalLabelPosition=middle;align=center;verticalAlign=bottom;spacingLeft=0;fontColor=#999999;fontSize=12;whiteSpace=wrap;spacingBottom=2;html=1;" vertex="1" parent="1">
          <mxGeometry x="90" y="460" width="70" height="85" as="geometry" />
        </mxCell>
        <mxCell id="U3krhh0B3n7ER5-2B62J-26" value="" style="sketch=0;dashed=0;connectable=0;html=1;fillColor=#757575;strokeColor=none;shape=mxgraph.gcp2.phone;part=1;" vertex="1" parent="U3krhh0B3n7ER5-2B62J-25">
          <mxGeometry x="0.5" width="32" height="50" relative="1" as="geometry">
            <mxPoint x="-16" y="10" as="offset" />
          </mxGeometry>
        </mxCell>
        <mxCell id="U3krhh0B3n7ER5-2B62J-27" value="Laptop" style="strokeColor=#dddddd;shadow=1;strokeWidth=1;rounded=1;absoluteArcSize=1;arcSize=2;labelPosition=center;verticalLabelPosition=middle;align=center;verticalAlign=bottom;spacingLeft=0;fontColor=#999999;fontSize=12;whiteSpace=wrap;spacingBottom=2;html=1;" vertex="1" parent="1">
          <mxGeometry x="100" y="270" width="70" height="85" as="geometry" />
        </mxCell>
        <mxCell id="U3krhh0B3n7ER5-2B62J-28" value="" style="sketch=0;dashed=0;connectable=0;html=1;fillColor=#757575;strokeColor=none;shape=mxgraph.gcp2.laptop;part=1;" vertex="1" parent="U3krhh0B3n7ER5-2B62J-27">
          <mxGeometry x="0.5" width="50" height="33" relative="1" as="geometry">
            <mxPoint x="-25" y="18.5" as="offset" />
          </mxGeometry>
        </mxCell>
        <mxCell id="U3krhh0B3n7ER5-2B62J-57" value="www.ElMejorPrecio.UY&#xa;api.ElMejorPrecio.UY&#xa;152.152.24.46" style="strokeColor=#dddddd;shadow=1;strokeWidth=1;rounded=1;absoluteArcSize=1;arcSize=2;" vertex="1" parent="1">
          <mxGeometry x="61" y="60" width="180" height="60" as="geometry" />
        </mxCell>
        <mxCell id="qwDfuw3enS2oKEGdYXwS-9" value="" style="image;sketch=0;aspect=fixed;html=1;points=[];align=center;fontSize=12;image=img/lib/mscae/DNS.svg;" vertex="1" parent="1">
          <mxGeometry x="200" y="20" width="60" height="60" as="geometry" />
        </mxCell>
        <mxCell id="qwDfuw3enS2oKEGdYXwS-17" style="edgeStyle=orthogonalEdgeStyle;rounded=0;orthogonalLoop=1;jettySize=auto;html=1;" edge="1" parent="1" source="U3krhh0B3n7ER5-2B62J-13" target="qwDfuw3enS2oKEGdYXwS-11">
          <mxGeometry relative="1" as="geometry">
            <mxPoint x="110" y="620" as="targetPoint" />
            <mxPoint x="320" y="1040" as="sourcePoint" />
          </mxGeometry>
        </mxCell>
        <mxCell id="2q1pVqS0Al537EC6Pk_O-77" value="Notificaciones y predicciones" style="swimlane;whiteSpace=wrap;html=1;" vertex="1" parent="1">
          <mxGeometry x="298" y="510" width="932" height="290" as="geometry" />
        </mxCell>
        <mxCell id="U3krhh0B3n7ER5-2B62J-13" value="" style="strokeColor=#dddddd;shadow=1;strokeWidth=1;rounded=1;absoluteArcSize=1;arcSize=2;" vertex="1" parent="2q1pVqS0Al537EC6Pk_O-77">
          <mxGeometry x="22" y="200" width="110" height="56" as="geometry" />
        </mxCell>
        <mxCell id="U3krhh0B3n7ER5-2B62J-14" value="Push&#xa;Notification&#xa;Service" style="sketch=0;dashed=0;connectable=0;html=1;fillColor=#757575;strokeColor=none;shape=mxgraph.gcp2.push_notification_service;part=1;labelPosition=right;verticalLabelPosition=middle;align=left;verticalAlign=middle;spacingLeft=5;fontSize=12;" vertex="1" parent="U3krhh0B3n7ER5-2B62J-13">
          <mxGeometry y="0.5" width="32" height="32" relative="1" as="geometry">
            <mxPoint x="5" y="-16" as="offset" />
          </mxGeometry>
        </mxCell>
        <mxCell id="2q1pVqS0Al537EC6Pk_O-322" value="" style="edgeStyle=orthogonalEdgeStyle;rounded=0;orthogonalLoop=1;jettySize=auto;html=1;startArrow=classic;startFill=1;" edge="1" parent="2q1pVqS0Al537EC6Pk_O-77" source="2q1pVqS0Al537EC6Pk_O-118" target="2q1pVqS0Al537EC6Pk_O-176">
          <mxGeometry relative="1" as="geometry" />
        </mxCell>
        <mxCell id="2q1pVqS0Al537EC6Pk_O-118" value="" style="strokeColor=#dddddd;shadow=1;strokeWidth=1;rounded=1;absoluteArcSize=1;arcSize=2;" vertex="1" parent="2q1pVqS0Al537EC6Pk_O-77">
          <mxGeometry x="35" y="134" width="105" height="66.84" as="geometry" />
        </mxCell>
        <mxCell id="2q1pVqS0Al537EC6Pk_O-119" value="&lt;font color=&quot;#000000&quot;&gt;Ofertas&lt;/font&gt;&lt;br&gt;Firebase" style="sketch=0;dashed=0;connectable=0;html=1;fillColor=#5184F3;strokeColor=none;shape=mxgraph.gcp2.firebase;part=1;labelPosition=right;verticalLabelPosition=middle;align=left;verticalAlign=middle;spacingLeft=5;fontColor=#999999;fontSize=12;" vertex="1" parent="2q1pVqS0Al537EC6Pk_O-118">
          <mxGeometry width="32.4" height="45" relative="1" as="geometry">
            <mxPoint x="5" y="7" as="offset" />
          </mxGeometry>
        </mxCell>
        <mxCell id="blMIOamzqk59xTB1D_x0-98" value="" style="strokeColor=#dddddd;shadow=1;strokeWidth=1;rounded=1;absoluteArcSize=1;arcSize=2;" vertex="1" parent="2q1pVqS0Al537EC6Pk_O-77">
          <mxGeometry x="676" y="40" width="244" height="86.84" as="geometry" />
        </mxCell>
        <mxCell id="blMIOamzqk59xTB1D_x0-99" value="Extraccion para prediccion&lt;br&gt;Cloud&lt;br&gt;Functions" style="editableCssRules=.*;html=1;fontColor=#999999;shape=image;verticalLabelPosition=middle;labelBackgroundColor=#ffffff;verticalAlign=middle;labelPosition=right;align=left;spacingLeft=20;part=1;points=[];imageAspect=0;image=data:image/svg+xml,PHN2ZyB4bWxucz0iaHR0cDovL3d3dy53My5vcmcvMjAwMC9zdmciIHhtbG5zOnY9Imh0dHBzOi8vdmVjdGEuaW8vbmFubyIgd2lkdGg9IjIwIiBoZWlnaHQ9IjE5Ljk4OTk5OTc3MTExODE2NCIgdmlld0JveD0iMCAwIDIwIDE5Ljk4OTk5OTc3MTExODE2NCI+JiN4YTsJPHN0eWxlIHR5cGU9InRleHQvY3NzIj4mI3hhOwkuc3Qwe2ZpbGw6IzQyODVmNDt9JiN4YTsJLnN0MXtmaWxsOiM2NjlkZjY7fSYjeGE7CS5zdDJ7ZmlsbDojYWVjYmZhO30mI3hhOwk8L3N0eWxlPiYjeGE7CTxwYXRoIGNsYXNzPSJzdDEiIGQ9Ik0zIDMuOTlMMCA2LjQydjcuMTNsMyAyLjQ0eiIvPiYjeGE7CTxwYXRoIGNsYXNzPSJzdDAiIGQ9Ik0zIDMuOTlsLTMgNCAzLTJ6bS0zIDhsMyA0di0yeiIvPiYjeGE7CTxwYXRoIGNsYXNzPSJzdDIiIGQ9Ik0wIDE1Ljk5bDQgNCAyLTItNi02em0uMDEtOEw1Ljk5IDJsLTItMkwwIDMuOTl6Ii8+JiN4YTsJPHBhdGggY2xhc3M9InN0MSIgZD0iTTE3IDE2bDMtMi40MlY2LjQ0TDE3IDR6Ii8+JiN4YTsJPHBhdGggY2xhc3M9InN0MCIgZD0iTTE3IDE2bDMtNC0zIDJ6bTMtOGwtMy00djJ6Ii8+JiN4YTsJPGcgY2xhc3M9InN0MiI+JiN4YTsJCTxwYXRoIGQ9Ik0yMCA0bC00LTQtMiAyIDYgNnptLS4wMSA4bC01Ljk4IDUuOTkgMiAyTDIwIDE2eiIvPiYjeGE7CQk8Y2lyY2xlIGN4PSI2IiBjeT0iOS45OSIgcj0iMSIvPiYjeGE7CQk8Y2lyY2xlIGN4PSIxMCIgY3k9IjkuOTkiIHI9IjEiLz4mI3hhOwkJPGNpcmNsZSBjeD0iMTMuOTkiIGN5PSI5Ljk5IiByPSIxIi8+JiN4YTsJPC9nPiYjeGE7PC9zdmc+;" vertex="1" parent="blMIOamzqk59xTB1D_x0-98">
          <mxGeometry width="30" height="24" relative="1" as="geometry">
            <mxPoint x="15" y="18" as="offset" />
          </mxGeometry>
        </mxCell>
        <mxCell id="2q1pVqS0Al537EC6Pk_O-303" value="" style="editableCssRules=.*;html=1;shape=image;verticalLabelPosition=bottom;labelBackgroundColor=#ffffff;verticalAlign=top;aspect=fixed;imageAspect=0;image=data:image/svg+xml,PHN2ZyB4bWxucz0iaHR0cDovL3d3dy53My5vcmcvMjAwMC9zdmciIHhtbG5zOnY9Imh0dHBzOi8vdmVjdGEuaW8vbmFubyIgd2lkdGg9IjM2MC4zMDM3NjY4NjA4MzYzIiBoZWlnaHQ9IjM3OC4wNTExNTgwNzc0MDg4IiB2aWV3Qm94PSItMC4wMDAxNjI0MjExNDM2MTM3NTU3IC0wLjAwMDEwMDAwNTk0OTIwNzExNTkyIDk1LjMzMDI2MTIzMDQ2ODc1IDEwMC4wMjYxMDAxNTg2OTE0Ij4mI3hhOzxzdHlsZSB0eXBlPSJ0ZXh0L2NzcyI+JiN4YTsJLnN0MHtmaWxsOiM0Mjg1ZjQ7fSYjeGE7CS5zdDF7ZmlsbDojYWVjYmZhO30mI3hhOwkuc3Qye2ZpbGw6IzY2OWRmNjt9JiN4YTs8L3N0eWxlPiYjeGE7CTxwYXRoIGNsYXNzPSJzdDAiIGQ9Ik03OS45NzEgNzcuNzE1bC03LjM1OSA3LjQ4OCA4LjYzOSA4LjQ5IDcuMzU5LTcuNDg4em0tNjUuMDk2LjA2MWwtOC42NDEgOC40OTIgNy4zNjEgNy40ODggOC42MzktOC40OXoiLz4mI3hhOwk8cGF0aCBjbGFzcz0ic3QxIiBkPSJNNzkuNTUzLjIyMWE1LjI1IDUuMjUgMCAwIDAtMy42NiA4Ljk4NEw4Ni4zODkgMTkuNThhNS4yNSA1LjI1IDAgMCAwIDguOTQxLTMuNzY1IDUuMjUgNS4yNSAwIDAgMC0xLjU2LTMuNzA0TDgzLjI3NSAxLjczOEE1LjI1IDUuMjUgMCAwIDAgNzkuNTUzLjIyMXpNMTUuOTE2IDBhNS4yNSA1LjI1IDAgMCAwLTMuNzIzIDEuNTE2TDEuNjk5IDExLjg5MWE1LjI1IDUuMjUgMCAwIDAtLjA0MyA3LjQyNCA1LjI1IDUuMjUgMCAwIDAgNy40MjQuMDQzTDE5LjU3NiA4Ljk4MkE1LjI1IDUuMjUgMCAwIDAgMTUuOTE2IDB6Ii8+JiN4YTsJPHBhdGggY2xhc3M9InN0MCIgZD0iTTQ4LjEzOCAyNi4yNGMxMy4zNDcgMCAyNS40MzIgMTEuMTM2IDI1LjMxIDI2LjQ4MSAwIDE1LjExLTEyLjI2NyAyNS42NzMtMjUuMTg5IDI1LjY3My0xMS4xNDkgMC0xOC4zMTctNS4xNzEtMjEuOTYtMTAuNzM4bDIxLjgzOS0xNS4wOTd6Ii8+JiN4YTsJPHBhdGggY2xhc3M9InN0MiIgZD0iTTgxLjI1IDkzLjY5M2w0LjY2NCA0LjU4NmE1LjI1IDUuMjUgMCAxIDAgNy4zNjEtNy40OWwtNC42NjYtNC41ODR6TTYuMjM0IDg2LjI2OEwxLjU3IDkwLjg1MWE1LjI1IDUuMjUgMCAwIDAtLjA2NSA3LjQyNCA1LjI1IDUuMjUgMCAwIDAgNy40MjQuMDY0bDQuNjY2LTQuNTg0ek00Ny4zNzEgNS41NzhDMjEuMzQ5IDUuNTc4LjE0NiAyNi43NzkuMTQ2IDUyLjgwMXMyMS4yMDMgNDcuMjI1IDQ3LjIyNSA0Ny4yMjUgNDcuMjI1LTIxLjIwMyA0Ny4yMjUtNDcuMjI1UzczLjM5MyA1LjU3OCA0Ny4zNzEgNS41Nzh6bTAgMTBhMzcuMTUgMzcuMTUgMCAwIDEgMzcuMjI1IDM3LjIyM2MwIDIwLjYxNy0xNi42MDcgMzcuMjI1LTM3LjIyNSAzNy4yMjVTMTAuMTQ2IDczLjQxOCAxMC4xNDYgNTIuODAxYTM3LjE1IDM3LjE1IDAgMCAxIDM3LjIyNS0zNy4yMjN6Ii8+JiN4YTs8L3N2Zz4=;" vertex="1" parent="blMIOamzqk59xTB1D_x0-98">
          <mxGeometry x="215.1848031496063" y="-1.7763568394002505e-15" width="28.818897637795274" height="30.336692913385825" as="geometry" />
        </mxCell>
        <mxCell id="2q1pVqS0Al537EC6Pk_O-230" value="" style="edgeStyle=orthogonalEdgeStyle;rounded=0;orthogonalLoop=1;jettySize=auto;html=1;" edge="1" parent="2q1pVqS0Al537EC6Pk_O-77" source="2q1pVqS0Al537EC6Pk_O-164" target="U3krhh0B3n7ER5-2B62J-49">
          <mxGeometry relative="1" as="geometry" />
        </mxCell>
        <mxCell id="2q1pVqS0Al537EC6Pk_O-164" value="" style="strokeColor=#dddddd;shadow=1;strokeWidth=1;rounded=1;absoluteArcSize=1;arcSize=2;" vertex="1" parent="2q1pVqS0Al537EC6Pk_O-77">
          <mxGeometry x="506" y="40" width="130" height="60" as="geometry" />
        </mxCell>
        <mxCell id="2q1pVqS0Al537EC6Pk_O-165" value="&lt;font color=&quot;#000000&quot;&gt;Predicciones&lt;/font&gt;&lt;br&gt;TensorFlow" style="sketch=0;dashed=0;connectable=0;html=1;fillColor=#5184F3;strokeColor=none;shape=mxgraph.gcp2.tensorflow_logo;part=1;labelPosition=right;verticalLabelPosition=middle;align=left;verticalAlign=middle;spacingLeft=5;fontColor=#999999;fontSize=12;" vertex="1" parent="2q1pVqS0Al537EC6Pk_O-164">
          <mxGeometry width="40" height="45" relative="1" as="geometry">
            <mxPoint x="5" y="7" as="offset" />
          </mxGeometry>
        </mxCell>
        <mxCell id="2q1pVqS0Al537EC6Pk_O-180" style="edgeStyle=orthogonalEdgeStyle;rounded=0;orthogonalLoop=1;jettySize=auto;html=1;entryX=1;entryY=0.5;entryDx=0;entryDy=0;" edge="1" parent="2q1pVqS0Al537EC6Pk_O-77" source="2q1pVqS0Al537EC6Pk_O-166" target="2q1pVqS0Al537EC6Pk_O-316">
          <mxGeometry relative="1" as="geometry" />
        </mxCell>
        <mxCell id="2q1pVqS0Al537EC6Pk_O-166" value="" style="strokeColor=#dddddd;shadow=1;strokeWidth=1;rounded=1;absoluteArcSize=1;arcSize=2;" vertex="1" parent="2q1pVqS0Al537EC6Pk_O-77">
          <mxGeometry x="245" y="40" width="185" height="60" as="geometry" />
        </mxCell>
        <mxCell id="2q1pVqS0Al537EC6Pk_O-167" value="Predicciones (trigger)&lt;br&gt;Cloud&lt;br&gt;Functions" style="editableCssRules=.*;html=1;fontColor=#999999;shape=image;verticalLabelPosition=middle;labelBackgroundColor=#ffffff;verticalAlign=middle;labelPosition=right;align=left;spacingLeft=20;part=1;points=[];imageAspect=0;image=data:image/svg+xml,PHN2ZyB4bWxucz0iaHR0cDovL3d3dy53My5vcmcvMjAwMC9zdmciIHhtbG5zOnY9Imh0dHBzOi8vdmVjdGEuaW8vbmFubyIgd2lkdGg9IjIwIiBoZWlnaHQ9IjE5Ljk4OTk5OTc3MTExODE2NCIgdmlld0JveD0iMCAwIDIwIDE5Ljk4OTk5OTc3MTExODE2NCI+JiN4YTsJPHN0eWxlIHR5cGU9InRleHQvY3NzIj4mI3hhOwkuc3Qwe2ZpbGw6IzQyODVmNDt9JiN4YTsJLnN0MXtmaWxsOiM2NjlkZjY7fSYjeGE7CS5zdDJ7ZmlsbDojYWVjYmZhO30mI3hhOwk8L3N0eWxlPiYjeGE7CTxwYXRoIGNsYXNzPSJzdDEiIGQ9Ik0zIDMuOTlMMCA2LjQydjcuMTNsMyAyLjQ0eiIvPiYjeGE7CTxwYXRoIGNsYXNzPSJzdDAiIGQ9Ik0zIDMuOTlsLTMgNCAzLTJ6bS0zIDhsMyA0di0yeiIvPiYjeGE7CTxwYXRoIGNsYXNzPSJzdDIiIGQ9Ik0wIDE1Ljk5bDQgNCAyLTItNi02em0uMDEtOEw1Ljk5IDJsLTItMkwwIDMuOTl6Ii8+JiN4YTsJPHBhdGggY2xhc3M9InN0MSIgZD0iTTE3IDE2bDMtMi40MlY2LjQ0TDE3IDR6Ii8+JiN4YTsJPHBhdGggY2xhc3M9InN0MCIgZD0iTTE3IDE2bDMtNC0zIDJ6bTMtOGwtMy00djJ6Ii8+JiN4YTsJPGcgY2xhc3M9InN0MiI+JiN4YTsJCTxwYXRoIGQ9Ik0yMCA0bC00LTQtMiAyIDYgNnptLS4wMSA4bC01Ljk4IDUuOTkgMiAyTDIwIDE2eiIvPiYjeGE7CQk8Y2lyY2xlIGN4PSI2IiBjeT0iOS45OSIgcj0iMSIvPiYjeGE7CQk8Y2lyY2xlIGN4PSIxMCIgY3k9IjkuOTkiIHI9IjEiLz4mI3hhOwkJPGNpcmNsZSBjeD0iMTMuOTkiIGN5PSI5Ljk5IiByPSIxIi8+JiN4YTsJPC9nPiYjeGE7PC9zdmc+;" vertex="1" parent="2q1pVqS0Al537EC6Pk_O-166">
          <mxGeometry width="30" height="24" relative="1" as="geometry">
            <mxPoint x="15" y="18" as="offset" />
          </mxGeometry>
        </mxCell>
        <mxCell id="2q1pVqS0Al537EC6Pk_O-168" style="edgeStyle=orthogonalEdgeStyle;rounded=0;orthogonalLoop=1;jettySize=auto;html=1;entryX=1;entryY=0.5;entryDx=0;entryDy=0;exitX=0;exitY=0.5;exitDx=0;exitDy=0;" edge="1" parent="2q1pVqS0Al537EC6Pk_O-77" source="blMIOamzqk59xTB1D_x0-98" target="2q1pVqS0Al537EC6Pk_O-164">
          <mxGeometry relative="1" as="geometry" />
        </mxCell>
        <mxCell id="2q1pVqS0Al537EC6Pk_O-170" value="" style="strokeColor=#dddddd;shadow=1;strokeWidth=1;rounded=1;absoluteArcSize=1;arcSize=2;" vertex="1" parent="2q1pVqS0Al537EC6Pk_O-77">
          <mxGeometry x="686.5" y="159.16" width="233.5" height="76.84" as="geometry" />
        </mxCell>
        <mxCell id="2q1pVqS0Al537EC6Pk_O-171" value="Extraccion de ofertas&lt;br&gt;Cloud&lt;br&gt;Functions" style="editableCssRules=.*;html=1;fontColor=#999999;shape=image;verticalLabelPosition=middle;labelBackgroundColor=#ffffff;verticalAlign=middle;labelPosition=right;align=left;spacingLeft=20;part=1;points=[];imageAspect=0;image=data:image/svg+xml,PHN2ZyB4bWxucz0iaHR0cDovL3d3dy53My5vcmcvMjAwMC9zdmciIHhtbG5zOnY9Imh0dHBzOi8vdmVjdGEuaW8vbmFubyIgd2lkdGg9IjIwIiBoZWlnaHQ9IjE5Ljk4OTk5OTc3MTExODE2NCIgdmlld0JveD0iMCAwIDIwIDE5Ljk4OTk5OTc3MTExODE2NCI+JiN4YTsJPHN0eWxlIHR5cGU9InRleHQvY3NzIj4mI3hhOwkuc3Qwe2ZpbGw6IzQyODVmNDt9JiN4YTsJLnN0MXtmaWxsOiM2NjlkZjY7fSYjeGE7CS5zdDJ7ZmlsbDojYWVjYmZhO30mI3hhOwk8L3N0eWxlPiYjeGE7CTxwYXRoIGNsYXNzPSJzdDEiIGQ9Ik0zIDMuOTlMMCA2LjQydjcuMTNsMyAyLjQ0eiIvPiYjeGE7CTxwYXRoIGNsYXNzPSJzdDAiIGQ9Ik0zIDMuOTlsLTMgNCAzLTJ6bS0zIDhsMyA0di0yeiIvPiYjeGE7CTxwYXRoIGNsYXNzPSJzdDIiIGQ9Ik0wIDE1Ljk5bDQgNCAyLTItNi02em0uMDEtOEw1Ljk5IDJsLTItMkwwIDMuOTl6Ii8+JiN4YTsJPHBhdGggY2xhc3M9InN0MSIgZD0iTTE3IDE2bDMtMi40MlY2LjQ0TDE3IDR6Ii8+JiN4YTsJPHBhdGggY2xhc3M9InN0MCIgZD0iTTE3IDE2bDMtNC0zIDJ6bTMtOGwtMy00djJ6Ii8+JiN4YTsJPGcgY2xhc3M9InN0MiI+JiN4YTsJCTxwYXRoIGQ9Ik0yMCA0bC00LTQtMiAyIDYgNnptLS4wMSA4bC01Ljk4IDUuOTkgMiAyTDIwIDE2eiIvPiYjeGE7CQk8Y2lyY2xlIGN4PSI2IiBjeT0iOS45OSIgcj0iMSIvPiYjeGE7CQk8Y2lyY2xlIGN4PSIxMCIgY3k9IjkuOTkiIHI9IjEiLz4mI3hhOwkJPGNpcmNsZSBjeD0iMTMuOTkiIGN5PSI5Ljk5IiByPSIxIi8+JiN4YTsJPC9nPiYjeGE7PC9zdmc+;" vertex="1" parent="2q1pVqS0Al537EC6Pk_O-170">
          <mxGeometry width="30" height="24" relative="1" as="geometry">
            <mxPoint x="15" y="18" as="offset" />
          </mxGeometry>
        </mxCell>
        <mxCell id="2q1pVqS0Al537EC6Pk_O-304" value="" style="editableCssRules=.*;html=1;shape=image;verticalLabelPosition=bottom;labelBackgroundColor=#ffffff;verticalAlign=top;aspect=fixed;imageAspect=0;image=data:image/svg+xml,PHN2ZyB4bWxucz0iaHR0cDovL3d3dy53My5vcmcvMjAwMC9zdmciIHhtbG5zOnY9Imh0dHBzOi8vdmVjdGEuaW8vbmFubyIgd2lkdGg9IjM2MC4zMDM3NjY4NjA4MzYzIiBoZWlnaHQ9IjM3OC4wNTExNTgwNzc0MDg4IiB2aWV3Qm94PSItMC4wMDAxNjI0MjExNDM2MTM3NTU3IC0wLjAwMDEwMDAwNTk0OTIwNzExNTkyIDk1LjMzMDI2MTIzMDQ2ODc1IDEwMC4wMjYxMDAxNTg2OTE0Ij4mI3hhOzxzdHlsZSB0eXBlPSJ0ZXh0L2NzcyI+JiN4YTsJLnN0MHtmaWxsOiM0Mjg1ZjQ7fSYjeGE7CS5zdDF7ZmlsbDojYWVjYmZhO30mI3hhOwkuc3Qye2ZpbGw6IzY2OWRmNjt9JiN4YTs8L3N0eWxlPiYjeGE7CTxwYXRoIGNsYXNzPSJzdDAiIGQ9Ik03OS45NzEgNzcuNzE1bC03LjM1OSA3LjQ4OCA4LjYzOSA4LjQ5IDcuMzU5LTcuNDg4em0tNjUuMDk2LjA2MWwtOC42NDEgOC40OTIgNy4zNjEgNy40ODggOC42MzktOC40OXoiLz4mI3hhOwk8cGF0aCBjbGFzcz0ic3QxIiBkPSJNNzkuNTUzLjIyMWE1LjI1IDUuMjUgMCAwIDAtMy42NiA4Ljk4NEw4Ni4zODkgMTkuNThhNS4yNSA1LjI1IDAgMCAwIDguOTQxLTMuNzY1IDUuMjUgNS4yNSAwIDAgMC0xLjU2LTMuNzA0TDgzLjI3NSAxLjczOEE1LjI1IDUuMjUgMCAwIDAgNzkuNTUzLjIyMXpNMTUuOTE2IDBhNS4yNSA1LjI1IDAgMCAwLTMuNzIzIDEuNTE2TDEuNjk5IDExLjg5MWE1LjI1IDUuMjUgMCAwIDAtLjA0MyA3LjQyNCA1LjI1IDUuMjUgMCAwIDAgNy40MjQuMDQzTDE5LjU3NiA4Ljk4MkE1LjI1IDUuMjUgMCAwIDAgMTUuOTE2IDB6Ii8+JiN4YTsJPHBhdGggY2xhc3M9InN0MCIgZD0iTTQ4LjEzOCAyNi4yNGMxMy4zNDcgMCAyNS40MzIgMTEuMTM2IDI1LjMxIDI2LjQ4MSAwIDE1LjExLTEyLjI2NyAyNS42NzMtMjUuMTg5IDI1LjY3My0xMS4xNDkgMC0xOC4zMTctNS4xNzEtMjEuOTYtMTAuNzM4bDIxLjgzOS0xNS4wOTd6Ii8+JiN4YTsJPHBhdGggY2xhc3M9InN0MiIgZD0iTTgxLjI1IDkzLjY5M2w0LjY2NCA0LjU4NmE1LjI1IDUuMjUgMCAxIDAgNy4zNjEtNy40OWwtNC42NjYtNC41ODR6TTYuMjM0IDg2LjI2OEwxLjU3IDkwLjg1MWE1LjI1IDUuMjUgMCAwIDAtLjA2NSA3LjQyNCA1LjI1IDUuMjUgMCAwIDAgNy40MjQuMDY0bDQuNjY2LTQuNTg0ek00Ny4zNzEgNS41NzhDMjEuMzQ5IDUuNTc4LjE0NiAyNi43NzkuMTQ2IDUyLjgwMXMyMS4yMDMgNDcuMjI1IDQ3LjIyNSA0Ny4yMjUgNDcuMjI1LTIxLjIwMyA0Ny4yMjUtNDcuMjI1UzczLjM5MyA1LjU3OCA0Ny4zNzEgNS41Nzh6bTAgMTBhMzcuMTUgMzcuMTUgMCAwIDEgMzcuMjI1IDM3LjIyM2MwIDIwLjYxNy0xNi42MDcgMzcuMjI1LTM3LjIyNSAzNy4yMjVTMTAuMTQ2IDczLjQxOCAxMC4xNDYgNTIuODAxYTM3LjE1IDM3LjE1IDAgMCAxIDM3LjIyNS0zNy4yMjN6Ii8+JiN4YTs8L3N2Zz4=;" vertex="1" parent="2q1pVqS0Al537EC6Pk_O-170">
          <mxGeometry x="205" y="3.197442310920451e-14" width="28.5" height="30" as="geometry" />
        </mxCell>
        <mxCell id="2q1pVqS0Al537EC6Pk_O-175" value="" style="strokeColor=#dddddd;shadow=1;strokeWidth=1;rounded=1;absoluteArcSize=1;arcSize=2;" vertex="1" parent="2q1pVqS0Al537EC6Pk_O-77">
          <mxGeometry x="200" y="176" width="144" height="60" as="geometry" />
        </mxCell>
        <mxCell id="2q1pVqS0Al537EC6Pk_O-176" value="Ofertas trigger&lt;br&gt;Cloud&lt;br&gt;Functions" style="editableCssRules=.*;html=1;fontColor=#999999;shape=image;verticalLabelPosition=middle;labelBackgroundColor=#ffffff;verticalAlign=middle;labelPosition=right;align=left;spacingLeft=20;part=1;points=[];imageAspect=0;image=data:image/svg+xml,PHN2ZyB4bWxucz0iaHR0cDovL3d3dy53My5vcmcvMjAwMC9zdmciIHhtbG5zOnY9Imh0dHBzOi8vdmVjdGEuaW8vbmFubyIgd2lkdGg9IjIwIiBoZWlnaHQ9IjE5Ljk4OTk5OTc3MTExODE2NCIgdmlld0JveD0iMCAwIDIwIDE5Ljk4OTk5OTc3MTExODE2NCI+JiN4YTsJPHN0eWxlIHR5cGU9InRleHQvY3NzIj4mI3hhOwkuc3Qwe2ZpbGw6IzQyODVmNDt9JiN4YTsJLnN0MXtmaWxsOiM2NjlkZjY7fSYjeGE7CS5zdDJ7ZmlsbDojYWVjYmZhO30mI3hhOwk8L3N0eWxlPiYjeGE7CTxwYXRoIGNsYXNzPSJzdDEiIGQ9Ik0zIDMuOTlMMCA2LjQydjcuMTNsMyAyLjQ0eiIvPiYjeGE7CTxwYXRoIGNsYXNzPSJzdDAiIGQ9Ik0zIDMuOTlsLTMgNCAzLTJ6bS0zIDhsMyA0di0yeiIvPiYjeGE7CTxwYXRoIGNsYXNzPSJzdDIiIGQ9Ik0wIDE1Ljk5bDQgNCAyLTItNi02em0uMDEtOEw1Ljk5IDJsLTItMkwwIDMuOTl6Ii8+JiN4YTsJPHBhdGggY2xhc3M9InN0MSIgZD0iTTE3IDE2bDMtMi40MlY2LjQ0TDE3IDR6Ii8+JiN4YTsJPHBhdGggY2xhc3M9InN0MCIgZD0iTTE3IDE2bDMtNC0zIDJ6bTMtOGwtMy00djJ6Ii8+JiN4YTsJPGcgY2xhc3M9InN0MiI+JiN4YTsJCTxwYXRoIGQ9Ik0yMCA0bC00LTQtMiAyIDYgNnptLS4wMSA4bC01Ljk4IDUuOTkgMiAyTDIwIDE2eiIvPiYjeGE7CQk8Y2lyY2xlIGN4PSI2IiBjeT0iOS45OSIgcj0iMSIvPiYjeGE7CQk8Y2lyY2xlIGN4PSIxMCIgY3k9IjkuOTkiIHI9IjEiLz4mI3hhOwkJPGNpcmNsZSBjeD0iMTMuOTkiIGN5PSI5Ljk5IiByPSIxIi8+JiN4YTsJPC9nPiYjeGE7PC9zdmc+;" vertex="1" parent="2q1pVqS0Al537EC6Pk_O-175">
          <mxGeometry width="30" height="24" relative="1" as="geometry">
            <mxPoint x="15" y="18" as="offset" />
          </mxGeometry>
        </mxCell>
        <mxCell id="U3krhh0B3n7ER5-2B62J-49" value="" style="strokeColor=#dddddd;shadow=1;strokeWidth=1;rounded=1;absoluteArcSize=1;arcSize=2;" vertex="1" parent="2q1pVqS0Al537EC6Pk_O-77">
          <mxGeometry x="386" y="134" width="250" height="92" as="geometry" />
        </mxCell>
        <mxCell id="U3krhh0B3n7ER5-2B62J-50" value="Cloud Storage&lt;br&gt;&amp;nbsp;/predicciones/YYYYMMDD.csv&lt;br style=&quot;border-color: var(--border-color);&quot;&gt;&amp;nbsp;/ofertas/YYYYMMDD.csv" style="editableCssRules=.*;html=1;fontColor=#999999;shape=image;verticalLabelPosition=middle;labelBackgroundColor=#ffffff;verticalAlign=middle;labelPosition=right;align=left;spacingLeft=20;part=1;points=[];imageAspect=0;image=data:image/svg+xml,PHN2ZyB4bWxucz0iaHR0cDovL3d3dy53My5vcmcvMjAwMC9zdmciIHhtbG5zOnY9Imh0dHBzOi8vdmVjdGEuaW8vbmFubyIgd2lkdGg9IjIwIiBoZWlnaHQ9IjE2IiB2aWV3Qm94PSIwIDAgMjAgMTYiPiYjeGE7CTxzdHlsZSB0eXBlPSJ0ZXh0L2NzcyI+JiN4YTsJLnN0MHtmaWxsOiM0Mjg1ZjQ7fSYjeGE7CS5zdDF7ZmlsbDojNjY5ZGY2O30mI3hhOwkuc3Qye2ZpbGw6I2FlY2JmYTt9JiN4YTsJLnN0M3tmaWxsOiNmZmY7fSYjeGE7CTwvc3R5bGU+JiN4YTsJPHBhdGggY2xhc3M9InN0MiIgZD0iTTAgMGgyMHY3SDB6Ii8+JiN4YTsJPHBhdGggY2xhc3M9InN0MSIgZD0iTTE4IDBoMnY3aC0yeiIvPiYjeGE7CTxwYXRoIGNsYXNzPSJzdDAiIGQ9Ik0xOCA3bDItN2gtMnoiLz4mI3hhOwk8cGF0aCBjbGFzcz0ic3QxIiBkPSJNMCAwaDJ2N0gweiIvPiYjeGE7CTxnIGNsYXNzPSJzdDMiPiYjeGE7CQk8cGF0aCBkPSJNNCAzaDZ2MUg0eiIvPiYjeGE7CQk8cmVjdCB4PSIxMyIgeT0iMiIgd2lkdGg9IjMiIGhlaWdodD0iMyIgcng9IjEuNSIvPiYjeGE7CTwvZz4mI3hhOwk8cGF0aCBjbGFzcz0ic3QyIiBkPSJNMCA5aDIwdjdIMHoiLz4mI3hhOwk8cGF0aCBjbGFzcz0ic3QxIiBkPSJNMTggOWgydjdoLTJ6Ii8+JiN4YTsJPHBhdGggY2xhc3M9InN0MCIgZD0iTTE4IDE2bDItN2gtMnoiLz4mI3hhOwk8cGF0aCBjbGFzcz0ic3QxIiBkPSJNMCA5aDJ2N0gweiIvPiYjeGE7CTxnIGNsYXNzPSJzdDMiPiYjeGE7CQk8cGF0aCBkPSJNNCAxMmg2djFINHoiLz4mI3hhOwkJPHJlY3QgeD0iMTMiIHk9IjExIiB3aWR0aD0iMyIgaGVpZ2h0PSIzIiByeD0iMS41Ii8+JiN4YTsJPC9nPiYjeGE7PC9zdmc+;" vertex="1" parent="U3krhh0B3n7ER5-2B62J-49">
          <mxGeometry width="30" height="24" relative="1" as="geometry">
            <mxPoint x="15" y="18" as="offset" />
          </mxGeometry>
        </mxCell>
        <mxCell id="2q1pVqS0Al537EC6Pk_O-179" style="edgeStyle=orthogonalEdgeStyle;rounded=0;orthogonalLoop=1;jettySize=auto;html=1;entryX=1;entryY=0.5;entryDx=0;entryDy=0;exitX=0.362;exitY=-0.017;exitDx=0;exitDy=0;exitPerimeter=0;" edge="1" parent="2q1pVqS0Al537EC6Pk_O-77" source="U3krhh0B3n7ER5-2B62J-49" target="2q1pVqS0Al537EC6Pk_O-166">
          <mxGeometry relative="1" as="geometry" />
        </mxCell>
        <mxCell id="2q1pVqS0Al537EC6Pk_O-178" style="edgeStyle=orthogonalEdgeStyle;rounded=0;orthogonalLoop=1;jettySize=auto;html=1;entryX=1;entryY=0.5;entryDx=0;entryDy=0;" edge="1" parent="2q1pVqS0Al537EC6Pk_O-77" source="U3krhh0B3n7ER5-2B62J-49" target="2q1pVqS0Al537EC6Pk_O-175">
          <mxGeometry relative="1" as="geometry" />
        </mxCell>
        <mxCell id="2q1pVqS0Al537EC6Pk_O-173" style="edgeStyle=orthogonalEdgeStyle;rounded=0;orthogonalLoop=1;jettySize=auto;html=1;entryX=1;entryY=0.5;entryDx=0;entryDy=0;exitX=0.01;exitY=0.579;exitDx=0;exitDy=0;exitPerimeter=0;" edge="1" parent="2q1pVqS0Al537EC6Pk_O-77" source="2q1pVqS0Al537EC6Pk_O-170" target="U3krhh0B3n7ER5-2B62J-49">
          <mxGeometry relative="1" as="geometry">
            <mxPoint x="695" y="180" as="sourcePoint" />
          </mxGeometry>
        </mxCell>
        <mxCell id="2q1pVqS0Al537EC6Pk_O-316" value="" style="strokeColor=#dddddd;shadow=1;strokeWidth=1;rounded=1;absoluteArcSize=1;arcSize=2;" vertex="1" parent="2q1pVqS0Al537EC6Pk_O-77">
          <mxGeometry x="35" y="30" width="130" height="60" as="geometry" />
        </mxCell>
        <mxCell id="2q1pVqS0Al537EC6Pk_O-317" value="&lt;font color=&quot;#000000&quot;&gt;BD&lt;/font&gt;&lt;br&gt;Cloud SQL" style="editableCssRules=.*;html=1;fontColor=#999999;shape=image;verticalLabelPosition=middle;labelBackgroundColor=#ffffff;verticalAlign=middle;labelPosition=right;align=left;spacingLeft=20;part=1;points=[];imageAspect=0;image=data:image/svg+xml,PHN2ZyB4bWxucz0iaHR0cDovL3d3dy53My5vcmcvMjAwMC9zdmciIHhtbG5zOnY9Imh0dHBzOi8vdmVjdGEuaW8vbmFubyIgd2lkdGg9IjE0LjY1OTk5OTg0NzQxMjExIiBoZWlnaHQ9IjIwIiB2aWV3Qm94PSIwIDAgMTQuNjU5OTk5ODQ3NDEyMTEgMjAiPiYjeGE7CTxzdHlsZSB0eXBlPSJ0ZXh0L2NzcyI+JiN4YTsJLnN0MHtmaWxsOiM0Mjg1ZjQ7fSYjeGE7CS5zdDF7ZmlsbDojNjY5ZGY2O30mI3hhOwkuc3Qye2ZpbGw6I2FlY2JmYTt9JiN4YTsJPC9zdHlsZT4mI3hhOwk8c3R5bGU+JiN4YTsJCS5Ee2ZpbGwtcnVsZTpldmVub2RkfSYjeGE7CTwvc3R5bGU+JiN4YTsJPHBhdGggZD0iTTcuMzMgMTUuMzV2LTMuMDFMMCA4LjQ0djMuMDF6bTAgNC42NXYtMy4wMUwwIDEzLjA5djMuMDF6IiBjbGFzcz0ic3QyIEQiLz4mI3hhOwk8cGF0aCBkPSJNMTQuNjYgOC40NGwtNy4zMyAzLjl2My4wMWw3LjMzLTMuOXptMCA0LjY1bC03LjMzIDMuOVYyMGw3LjMzLTMuOXoiIGNsYXNzPSJzdDEgRCIvPiYjeGE7CTxwYXRoIGQ9Ik03LjMzIDB2My4wMWw3LjMzIDMuOVYzLjl6IiBjbGFzcz0ic3QwIEQiLz4mI3hhOwk8cGF0aCBkPSJNMCA2LjkxbDcuMzMtMy45VjBMMCAzLjl6IiBjbGFzcz0iRCBzdDEiLz4mI3hhOwk8cGF0aCBkPSJNNy4zMyAxMC43OVY3Ljc3TDAgMy44N3YzLjAyeiIgY2xhc3M9IkQgc3QyIi8+JiN4YTsJPHBhdGggZD0iTTE0LjY2IDMuODdsLTcuMzMgMy45djMuMDJsNy4zMy0zLjl6IiBjbGFzcz0iRCBzdDEiLz4mI3hhOzwvc3ZnPg==;" vertex="1" parent="2q1pVqS0Al537EC6Pk_O-316">
          <mxGeometry width="22" height="30" relative="1" as="geometry">
            <mxPoint x="19" y="15" as="offset" />
          </mxGeometry>
        </mxCell>
        <mxCell id="2q1pVqS0Al537EC6Pk_O-92" value="Cloud SQL" style="swimlane;whiteSpace=wrap;html=1;startSize=23;" vertex="1" parent="1">
          <mxGeometry x="1800" y="70" width="340" height="380" as="geometry" />
        </mxCell>
        <mxCell id="2q1pVqS0Al537EC6Pk_O-103" value="" style="strokeColor=#dddddd;shadow=1;strokeWidth=1;rounded=1;absoluteArcSize=1;arcSize=2;" vertex="1" parent="2q1pVqS0Al537EC6Pk_O-92">
          <mxGeometry x="120" y="105" width="130" height="170" as="geometry" />
        </mxCell>
        <mxCell id="2q1pVqS0Al537EC6Pk_O-104" value="&lt;font color=&quot;#000000&quot;&gt;BD&lt;/font&gt;&lt;br&gt;Cloud SQL" style="editableCssRules=.*;html=1;fontColor=#999999;shape=image;verticalLabelPosition=middle;labelBackgroundColor=#ffffff;verticalAlign=middle;labelPosition=right;align=left;spacingLeft=20;part=1;points=[];imageAspect=0;image=data:image/svg+xml,PHN2ZyB4bWxucz0iaHR0cDovL3d3dy53My5vcmcvMjAwMC9zdmciIHhtbG5zOnY9Imh0dHBzOi8vdmVjdGEuaW8vbmFubyIgd2lkdGg9IjE0LjY1OTk5OTg0NzQxMjExIiBoZWlnaHQ9IjIwIiB2aWV3Qm94PSIwIDAgMTQuNjU5OTk5ODQ3NDEyMTEgMjAiPiYjeGE7CTxzdHlsZSB0eXBlPSJ0ZXh0L2NzcyI+JiN4YTsJLnN0MHtmaWxsOiM0Mjg1ZjQ7fSYjeGE7CS5zdDF7ZmlsbDojNjY5ZGY2O30mI3hhOwkuc3Qye2ZpbGw6I2FlY2JmYTt9JiN4YTsJPC9zdHlsZT4mI3hhOwk8c3R5bGU+JiN4YTsJCS5Ee2ZpbGwtcnVsZTpldmVub2RkfSYjeGE7CTwvc3R5bGU+JiN4YTsJPHBhdGggZD0iTTcuMzMgMTUuMzV2LTMuMDFMMCA4LjQ0djMuMDF6bTAgNC42NXYtMy4wMUwwIDEzLjA5djMuMDF6IiBjbGFzcz0ic3QyIEQiLz4mI3hhOwk8cGF0aCBkPSJNMTQuNjYgOC40NGwtNy4zMyAzLjl2My4wMWw3LjMzLTMuOXptMCA0LjY1bC03LjMzIDMuOVYyMGw3LjMzLTMuOXoiIGNsYXNzPSJzdDEgRCIvPiYjeGE7CTxwYXRoIGQ9Ik03LjMzIDB2My4wMWw3LjMzIDMuOVYzLjl6IiBjbGFzcz0ic3QwIEQiLz4mI3hhOwk8cGF0aCBkPSJNMCA2LjkxbDcuMzMtMy45VjBMMCAzLjl6IiBjbGFzcz0iRCBzdDEiLz4mI3hhOwk8cGF0aCBkPSJNNy4zMyAxMC43OVY3Ljc3TDAgMy44N3YzLjAyeiIgY2xhc3M9IkQgc3QyIi8+JiN4YTsJPHBhdGggZD0iTTE0LjY2IDMuODdsLTcuMzMgMy45djMuMDJsNy4zMy0zLjl6IiBjbGFzcz0iRCBzdDEiLz4mI3hhOzwvc3ZnPg==;" vertex="1" parent="2q1pVqS0Al537EC6Pk_O-103">
          <mxGeometry width="22" height="30" relative="1" as="geometry">
            <mxPoint x="19" y="15" as="offset" />
          </mxGeometry>
        </mxCell>
        <mxCell id="2q1pVqS0Al537EC6Pk_O-258" style="edgeStyle=orthogonalEdgeStyle;rounded=0;orthogonalLoop=1;jettySize=auto;html=1;entryX=0;entryY=0.5;entryDx=0;entryDy=0;" edge="1" parent="1" source="2q1pVqS0Al537EC6Pk_O-110" target="2q1pVqS0Al537EC6Pk_O-92">
          <mxGeometry relative="1" as="geometry" />
        </mxCell>
        <mxCell id="2q1pVqS0Al537EC6Pk_O-110" value="Servidor API REST" style="swimlane;whiteSpace=wrap;html=1;" vertex="1" parent="1">
          <mxGeometry x="1280" y="420" width="380" height="220" as="geometry" />
        </mxCell>
        <mxCell id="blMIOamzqk59xTB1D_x0-50" style="edgeStyle=orthogonalEdgeStyle;rounded=0;orthogonalLoop=1;jettySize=auto;html=1;exitX=0.5;exitY=1;exitDx=0;exitDy=0;entryX=0;entryY=0.5;entryDx=0;entryDy=0;" edge="1" parent="2q1pVqS0Al537EC6Pk_O-110" source="2q1pVqS0Al537EC6Pk_O-6" target="U3krhh0B3n7ER5-2B62J-53">
          <mxGeometry relative="1" as="geometry" />
        </mxCell>
        <mxCell id="2q1pVqS0Al537EC6Pk_O-6" value="" style="strokeColor=#dddddd;shadow=1;strokeWidth=1;rounded=1;absoluteArcSize=1;arcSize=2;movable=1;resizable=1;rotatable=1;deletable=1;editable=1;locked=0;connectable=1;" vertex="1" parent="2q1pVqS0Al537EC6Pk_O-110">
          <mxGeometry x="12" y="60" width="130" height="60" as="geometry" />
        </mxCell>
        <mxCell id="blMIOamzqk59xTB1D_x0-28" style="edgeStyle=orthogonalEdgeStyle;rounded=0;orthogonalLoop=1;jettySize=auto;html=1;entryX=0;entryY=0.5;entryDx=0;entryDy=0;exitX=1;exitY=0.5;exitDx=0;exitDy=0;" edge="1" parent="2q1pVqS0Al537EC6Pk_O-110" source="2q1pVqS0Al537EC6Pk_O-6" target="blMIOamzqk59xTB1D_x0-4">
          <mxGeometry relative="1" as="geometry">
            <mxPoint x="160" y="130" as="sourcePoint" />
          </mxGeometry>
        </mxCell>
        <mxCell id="blMIOamzqk59xTB1D_x0-3" value="" style="shape=image;verticalLabelPosition=bottom;labelBackgroundColor=default;verticalAlign=top;aspect=fixed;imageAspect=0;image=data:image/png,iVBORw0KGgoAAAANSUhEUgAAAewAAABmCAMAAAA+qFJYAAAAilBMVEX///8AmQAAlwAAlAAAlQAAkgAAkABcsly02rRCqkLH4ceWy5ZsuGyt1a2h0aG12LUboBvB4MHW69aGwobQ6ND0+vTh8OH6/frs9uzb7dtGqkbu9+6p1Knm8+ZquGo7pzt4vngsoiyTypNXsFdOrU4koCRFqkV3vXeBwoGJxYmj0aNcs1xTrlNktmTYWd7eAAAPfklEQVR4nL2d2ULqMBCG23RxQQVUwAVRUY4r7/96p1CwTTJrEvgvNU3afKTNTCaTLNvpbv5x8rtY3map9NRU+LYYXKsu+lhcBGvxIm9nerV4eL+Y3+ElJuOr5XKuu3tSk/GAqfB6/vW5PH1K1+T95fJmeTl1//z0UxemUVnlp2naed9XOBrLrxrWJkK19Jd6/1CXJs9NUa8f4RLTdVWUpiwqs5zJb5/Q9VvdVphfISW+86rpsbKonxUdRul0tXuG1dD6+7xqnn2n6j3B4w3qXoVr8WWjPEbmn/rmTAX27LIrUeQpRvdnr8LRPVDgaVV093SSoMXJWdUReJh0/xjU/T4rV9G0P6t+hcWZ8LJ5kUepEg1t++bquV9ibZeIH2nvBXOb94XpFShfownc5f0KTf73BhtbrJt/xdK+dCosZGN7ZvI4mQdBK9+VfVF97pb4dH5zNTQUNXoo7Qor97s8cQpEE7gzdl+a0e4ffh+b1YSsitGkciuUDY5l5MBu2uGH9l3tXeV07K1XYgRXJZXLOjevTolfF0EkgScPafHZ/mfg93FcWzfuw+W5+3SQJtGsc/PLtrL2+2Fpl3j2S1yGdUSrf353ODOFa/8HaEYRBHzWTZPtixyaFUW1BTUleBN+xL7FG9Wc4fLovXUaWSXugRKS3yomb1w3Mu9WkQvgySMIQKzzcrD9l/+zimvrGuitAjM4Ok3B+1Cq/GJaOQVeH5U1374C4NSIhSYQMK43TVqfDvBXHkzgCWzRbGfJY/jtGU4b6k/zwV72nmBgN7SZVj6BnrDf0gvgPgpvEifVGdjz9u/rDnrbBBOYwi22PQOxiWirGRoQbNZ0PIefWCvu8wq9Mds33F4PEOwhVh8jhLX964E+HBuZPIAAxjqvNy8TDHYw7TDYr8hdaMV8XnnYZwlhP2M9L4IdQhtl3X45UNhhv6xA2KdpBrb7AfZ0VNgoaxu2b6ru1XOGyDQlLJrN/3HYgbSDYOP3qJRZkO0cEzbO2pkEEE+jo31PsNxapQRs/S9roxDYgK0fqor8gR4RNsHagf2Fl1QRIFjvJjMU7KCxHQA7gT/lTzY6V8eD7ftm+hVasAGv3p9MTqzD2qJY52Zr7JGwQ8Z2AOwPYhDoRbV0NNgka9eWc73xfYlpk6yrdr2Hhh1AWw8b9uuEqqAc8ceC/Up7DVzDnSpujIg25Mvq2vtpCzGw9bT1sL11gCiRy9rHgT1jWHuwZyuKdi6IXiFZl/vlQA62mrYa9m0qs2un2gvE6XQU2Cxr3yVH0s4NS5vsw/LPFc/C1tJWw0a6xhS8YK/yJ97WMWDzrAH/axxtIWsBbCVtLWzEn2IezseczoHV1EYFvvR/BNgC1pCznb6sJGmTrIveuq8Atmb+r4eNtClZFUUWjIpvtPzhYUtYgysrDG3i2yRmLYKtoq2EjfhTGE8Y1Vier9DyB4ctYg0vo81Icw2nTa4hFW/9oiLYGto62Jg/pRJ+OeDlYjQ86dCwZayxNdMg2jTrH6usDHZj7Umj13WwoQXmXBCFsBf4YsCbOzBseprVqxBZIKfdbiDtc8pJUTgdIYQtmf+3UsHG/ClG1lbTvfDQxt5Dh4UtZY1HQ1AO9bwApjFuaLB9gRvWK4Ytpa2C/Qb3TgFEcyMCY1LRF8NBYYtZE6EvWLhDe5lHW8daAVtIWwMbm0fiMyxPM/D+sTfDIWFPxKypOCcVbSVrDWwZbQ1s5BsFb8pBtIR6p0C2rB0Q9mQk9/pSQW1wiOK+ZyzaWtYq2CLaCthDzJ/Ct9IJnM97cfg7HQ62hjUdwUjT7kXi0Kwh21UFW0JbARt7IN1+G3DtHwlPOhhsFWsmXPVdRntIsr6AatbBZvx2G8lhwx6R3ID3iQuM4UIqORRsHWsuNllEO4C1Fjbpt9tKDBueWsn9KX8CbXU4POlAsJWs2UB0mvbWZXQawFoNG7HtO4lhI/4Ud+8VL3Bow5tQDgN7kutY87sOfsmwk1uONbYnA4Yd6pPP5LCxyCuxP6UT/LOBSh4Etpq1YIsJTfuaZF29YLWCsM9OSGuPpC2FfYL4UwK2TILb9UD77RCwSdbmeQU9JL+f6I0MHyRf8y9opeDWrDNw82F3rxRtIWwsjkbhT+n0UVee6meg4BoqaH031LBp1qMsEDZNm1BFxG6AsJ+ZOQLkpd1LCBvzpwTtoZtcA4KWvu5vAVkGhhb2I8l6NQO3RIt2Cp4E0aZYo7CDactgjxF/yjtU5TGlhM2yDocdRJtkjcMOpS2DjSRGUvpTDiAdbJ51BOxsraZNsyZgB9IWwU7kTzmAVLAFrGNgq2lXN3R9BGwnpZNbMUJbAhteheY2ah1FGtgS1lGwlbSrkMQTe9ictQdWKIGdzJ+SXgrYNOt9MrMo2NlCQZtlTcOm5/8FSFsA+zGdPyW55LDvRKwjYWcXYtoVP1Ro2DRtcGwLYPv5qdouiEpBlUhi2LJxHQ1bTFvAmoOtp83D1vtT7qANA8OdThtdNpo3+t7oylEP1RQyyIPsbOG4joctpC1hzcJW0+ZhK/0ps6tRLdgKhKqf9zCZB81NGGk/bj/5aDTs7ENAuyK3pe/Fws5+uBUYWyxsLD4F8aeMTdxWfSvuJZVvnB7Xz/39R/Gwsw9266OMtQA27cnxaLOwkYqQzZc3sZu3rRtMBJse1xbrFLCzF4a2kLUEto42Bxvb7wOvwX7F7uc1VgLsNLDBhJF/DTrhbylgZzfkImqJb26zJYGtos3BRujBdhwZUyeSfXdJYNOs3b5LAhsMoe2eQHr8gwg27cmx+5OD/YWMbDCklHpEkZxHSQGbZF16XZcC9g3zfoNS5EOSwVbQDv1mQ8EGsWcLeFP8BLBp1v6pCQlgf7Lfslr2IhfCZmj3bp6FfYncOpDDHep5ldwniYcNJ/3dVwWckBEPm2ctpS2FTdPuHb7A29nItlY/RHAW/8V2ejUa9hPVCxDreNgS1g0BPsu3Ajbtk+9o87CxHV6Fu+Y1jZ6Kuw8SCxtPBJsjrKNhc2bXXhLacthC2gLfOBJrWLrWVzRszykXCZtmDefkioQtZS0ythWwadr7CZYANhZF7PpVsNUxqfwdX3GwQ1hHwpazltDWwKZ98rszfiTr2UhqVi9fnfxBQfkT/CjYVILnLrGcqyjYErd473k52irYEtqisCRklu3SQYIcpPK3csbADmMdBVu+mN2KW/rSwRbQFsEWml9xWU0Byz0CNpkIFmcdA1vLmqWthM3TlkWXCs0vKl8vK2CPdjhsmjURAR0OW8+ao62FTX9GGtoy2FLzS566whPkkguGHcw6HLYm/Kz31FQgmho2PUGszyEXJ7AjBAlNche/tJthe4KSLwTCHpNGIMk6GLY+aLwVRVsPm6ZdQAmQANjIaVbeMaez90BjO+HGPkOuMBb0oZCBsEnWJbmxD6cdAJumDfULtIsTW/3yzNXhqCqpQ9KR+wCzqoTBJrfkMqwDYTPO6Tm5ZRfdFhICW2XqbyuENuMLza9G14PF28/Pycl6vV4sFhcXFx+NXj4/bxotkdT0cMalQNiEONZhsMkAgs00+DuIdhBsoXO+qxCCjZ7lxTVu6xWuBE6XlBy2nQgWUghsOlhke3HQ2A6DraQNJ9DBzC9hQFUrJHwRSaWWGjbPOgQ2HeK5uzaEdiBsHW0YNhY/7q1+UUK2gybNg4ZKwDoANh28/XcpTfsFqjkUtoo2kgdNaH5R0g3sxLCdBM+w1LDJDXb9IPhLNe1g2BraCGzM/FLs0kYGNra5JClsN8Gz/A4p2GyipE50Gh1gyITDZsPgehUi3SI2vzApB3ZS2DLWWtj0NmknbFubDC0CtjyoG01BjT2UNFMtlJ0mJw5WTghbyFoJW5Duri9lmsMY2GLaKOxI80s7sBPClrLWwRamLe31gIp2FGwpbfwchzjzSzuw08GGEjzD0sAmE5LByQ9UqYnjYAtp47CvkXsVJdxQD+xksOWsNbDJ5NNYEhsN7UjYMtrEUU+Y+SVJpaMe2KlgK1grYAexVqWYj4WdLQW0CdhgKspcZH4hudSo2V0a2GDidkxi2MrjQXr9IKYdDVtCmzqxDzzRpdHz1w2tr1f4QiohZhLYKtZi2OqDfzrRtHt9Hw9bQJs8eBW7qOQEX0aabSlg61hLYQcc6dUJecftLu46PwFsnjYJGzW/wkRmuk0AG0vcjkkGO/Boxr2Ex/algJ0NGF70Yenkg2pF+2PiYWtZi2CHHsPZSXYgZxLYHG0aNmZ+BYlOYR0NW81aBJu0ryWss+xW4l1JA5uhTcPGzK8QMY7WWNh61hLYSOaR3e0Jj8UkD1au2j0tiWBnA+qXxcDGzK8AETb2RpGw0cM3CPGwwTNO9hIfeEvTbv3PqWBnVwRtBjZqfqnFraDEwYZWDVnxsJEUzVvJWdO0245JBpuizcGOz52yE3foRBRs4vANQjxsYnamYY2H/uR7j2Q62ARtFnYi84tdGo2BHcZaABt9dsUR9a0I2tthkBA2TpuFncj8Yk+TiYAdyJqHjc5Y1Kwb2ugXYZvxGTn9J0xYNDMPO4n5xcc88LD/YeHs9IEMuFjYWHCWybVHF2YE7S3scwi2YlHHFkLbvLBXpjC/+GOioORxdpYz5D6CWWcPQIVWyMkMyeWqH9cbYTsQt5uhoZdIqYrctgTTFpx0n8D8EgQzQU7k2poEwbkEw1lnLxBsa7X+FWoxaFxvBNPejV/gaxlzBg8YzVwLJpXx5pfk/DcfpZN4BbRfIlhnY+C57Cah31cwa4T27vT4S+9/ofOzVgBt2WldED+NRFGK/k/KvQz4xsawhva0OS86IJ9QBGs4z0+5y5TsxXvUkq3iuHza7jZcWEiQkViygx29bnUTZPhWIHeAEiPAZ+KUeHFLmDzqGCSfdrXPaHHvwCleYhrKfNqiEw2yWPOr4o+v38h5WmO8bnUjPPlDdZTP5Q8mJ+NAJGufdi/lix3oINrTQsvel1JJFw8Il4BAQOpTUOdVr2dN7s8mZiurq6JZu0ezAmlG7cNlylH08WZP1rb1sj9HuM7/3iOmjn62Rufdmb+mlk/tY8yvQppzO5uu9k9rqgeoW/vJHowoJyijyVmvwgq60UnXpKneZkAJpR6fuwprJ7RmaTbZDcqifktzGObsq2wrrNYK7+5dxMEvml3d81FVlM3DPmNTutO8ufvmFV/Uv6LFZFbffxWeIP0xfK2L0lA3pdTpqmor/OdPwW6/l1+DccLjEUMqHF+Gag4fH4hpOry6GlNOi9vl+v3tY65ahyB13lZITLKfhoPlYJiuxWx62lQ47lr8D8nAIpm9I2pDAAAAAElFTkSuQmCC;movable=1;resizable=1;rotatable=1;deletable=1;editable=1;locked=0;connectable=1;" vertex="1" parent="2q1pVqS0Al537EC6Pk_O-110">
          <mxGeometry x="26" y="79.41999999999999" width="102" height="21.15" as="geometry" />
        </mxCell>
        <mxCell id="blMIOamzqk59xTB1D_x0-36" value="" style="edgeStyle=orthogonalEdgeStyle;rounded=0;orthogonalLoop=1;jettySize=auto;html=1;entryX=0.5;entryY=0;entryDx=0;entryDy=0;" edge="1" parent="2q1pVqS0Al537EC6Pk_O-110" source="blMIOamzqk59xTB1D_x0-4" target="U3krhh0B3n7ER5-2B62J-53">
          <mxGeometry relative="1" as="geometry" />
        </mxCell>
        <mxCell id="blMIOamzqk59xTB1D_x0-4" value="Â  Â  Â  Â  Â  FLASK&#xa;Â  Â  Â  Â  Â  Â  API REST app" style="strokeColor=#dddddd;shadow=1;strokeWidth=1;rounded=1;absoluteArcSize=1;arcSize=2;movable=1;resizable=1;rotatable=1;deletable=1;editable=1;locked=0;connectable=1;" vertex="1" parent="2q1pVqS0Al537EC6Pk_O-110">
          <mxGeometry x="210" y="37" width="150" height="50" as="geometry" />
        </mxCell>
        <mxCell id="2q1pVqS0Al537EC6Pk_O-161" value="" style="shape=image;verticalLabelPosition=bottom;labelBackgroundColor=default;verticalAlign=top;aspect=fixed;imageAspect=0;image=data:image/png,iVBORw0KGgoAAAANSUhEUgAAAHkAAACFCAYAAAB/qlcrAAAABGdBTUEAALGPC/xhBQAAACBjSFJNAAB6JgAAgIQAAPoAAACA6AAAdTAAAOpgAAA6mAAAF3CculE8AAAABmJLR0QA/wD/AP+gvaeTAAAT9UlEQVR42u1da5RU1Znd360XXd000MAI+B5wJXRLmEAMYtSI4gMcnDHaKDBjNMuIEMMMmmjUmbESXWoEJcFlRFZmnMmKE5WFicvXioogj4YwMoquxgcEBgNNK9JI01Vdr3v2/Oiu962qW1W3Hk3fbyldde+tc6u+fb599jnnO+cKBqBd5FvvdNeHT3VEcaaC/DWozhSR00E1WkHqQHoBDCc5BICX5HAAUZA9BEMgAgR7QQQB+kF0U3hIFDsU2alR9kbh2H3Sx8FP16yZq2OAm9T6F2z1Pe/uqRs9RYTTFXmugN8AeBpJJwCQ7LuQBPv/Jh83Ps/+yxJ/+/7r+5t0PEzgEyhsgahNUZfjjTbfdz63QbbAZq181eMIeWYryAKAV4IYYgBAkQDHjhsAnHatQZkREr+nqFVbHrxuvQ1yETbH95JXDR16B6iWkhiRI8KSADIGOA9YKZWkSDZ4Uxf1w60Pzf/IBtmk/e3y9dcSWAHwlGRgjQDOfj4LwDkrS0lsEAbp2/LIvIcBoQ1yLoAfXe8jcV/CmcUA3H/efHtrUFbRbPCM2xu6eYPvpmAtgqxVnaKXr785FWDEwUAesOKORuI90z5bWGVBbjZIuluiLIDEglDA/UJr6/MOG+Q0u+rnm8cpYJkxHSK7OEKeCCua7mFYcfJVFoCAwqy/nB5+zAY5zeiI3gdgeHY6BAAoAXYQfBnEdpB68rXZKdYaNiiwsiyZ/qPfXm23yUn930DD6E6QI7KJIxBrI8Dtb/7k0k9jn7v4gZdOdorjEUDmF9xVKqS9LV4b7Olp9LS0++aGawVkZ7VuHGgYNQPgiGx0CGDVa3fNXAxJVa1v/cucgwAWXPrAa50Abkc2gJEpdrNVBovZYEJDd/D7AJ6w6Vo4KUc07GvoPfpP6QAnWyQ65C4ofpRVHBn2q4vpKiGVwmFKGyyw22QAoEzMRoci+Pc1eehug29GlILVBYmj+MtMYHOzAQtlg3PPuf0/TrVBJsak+jAp6nS+a6oI8p3ilLQBWLCUDQRKu3DQg6wIb6qDEg7WBVGTNSVaUNvJ9NY6dUTMSjYQ8KxBD7KAddnoUKNqNtes4+y8/WqmgmnU3paDDQgMH/QgE3RmpUPgRp/Pp+UvAzdlYwMjcWSJkjbJBorKZbfJyEmHk9vc0+7M9clLfvbSEgDTCxFH5pR0nlG2gthgkPeT848s4cGZ97/SpA1x/vT1H1/uj31m+mPP13mP190N4l5ru0pM5QgYzzGbZwMbZEDlpUMRkR8zpN888/5X3yTYIcAY9qiZAEaWq6tEWsMGNsgxlE3RIUcAaJWihhmRGdkWdJVQABsM+ja5NDo0K47S/i24q4TcY945piDtfnJFxZH1U5B5M06UDTJSA6t4OqwoG7AQNrBBtiojo3bZwAa5dDosWklXjA1qh6+rpq5JvKkJ96oUZ0rcOSIEVKyn1Xec/WOZMf8JBSr+Bv3tYPwFBIRKpEVMITm+bGwA41mrQQ3yG/de8ZNK3u/8u5/9FYhF1rOBcXMjqnYiWcNgMWW2X12oNsjer7ZBroYKyKekS8nWTGODGgrk4un6smV/rHdrrnMVOV0UxhEcBdW3tEWljGglKdKY02IeiDWvadGikv+J9zuZKpf62914fzvJq5nUqqCIr+adgiw9WzM7nXfe8TsAo8zVRzkGYQeIA9C4GX/VuE3EpyoC8kW+9c76Bl4FYDGIC5Wiqw+o/h8oyQ6QHA4Q42HG/mvFaJhRjNtGiZUpkkM8CQrIz0L64FhB/ersTH0BgJNNOTqW2ib9ovOz7v3sWPowxg5bXQzYpun6ykfX/4O3AXsBWQviEgKuWszIsCA/y3y/OgcbWDaY0Ld853QIn0Tn0e3sXHK25ZH8d4++faoOriI5W0p1AC2mw/LkZ2U5D9NsYN1oEdPBngpyEw8uuVJOXtlmSSTPeeytFh3cRnJ2KQ6AlXRY42xgLcDs1yXJ7zkc0P/Ijh9MKRnkq1a89S1S2wxyXKkOqHxGRnXYwDJwE4D2v1bp5xpA9RyP/LCxaJDn/HLzaUrXXgQ5vFJ0WPlJh9Q7lswGlkWvygE2k89NQDC8vCiQpz71jouR6LMQjKwkHVqVkVG5KUirGNoIRJV4bQR+7Lji97h/YXPBII897v83CKZb5oAKiqPKswHLRM+GbXEq+H3HHdD0+wsCedbKjaMh/OdazciAqWHGyrJBmcSVET1nO3c1P/3ueNMgOyO8h2RDbdAhc7MBy5+flY8NyiyuEuCngJ0RzQJqN5gCedbKbY2kWliLdFiN/CwWMANVRnFl3BYzDXzhjf2Df7lB1kK9swnU1RodViM/K21ewmKACxRXZtps8jTsv+Fv8tO14BpLHFAL4ijPpAMsmnTIOfws6EqbcPaaa2+VSRGWUUFm5QS51fe8G+AVFd4xp3xsULYNYwqIW8GhBL4+DVBD8wKaG8Ts4Pd90dwg++tHfR1EQ8V3zLEiI6OCbFBQJFMdiL/5/NgZIJ0liCsTgg3ncPcsT3a6FpxXxR1zLM/IKMcWEQWa7tLUlvi7qD6pZHGVV7ApD1zDp+Rok2V6iXtkFEyHqBYbVGbSYdP2J247khTWFxcnrky02cll6mp6dpCVOse6OVhzbMBqsUEFJh0EeC7hPwiorjIlrlBCm00FCI1BnrXy1UYAp9fAjjm1xwbF2f8dd4afjr87cNu3AZxhGqic4ipfmy2TDUF2hNwt7MvVqaGMjJRkreqwQfG94X/d8/iSUCKs1Z3Wiauk40ZlQh/PjjneDJB1YtKJkpFhXUJCsQDL2p1PLnwm/r5j8fkAZ2WP3kLFVV7q1hBwTMwAWYgJdn6WJZMO7zl13BDLwuM7t7ig+ERuQIsQV3kribRk5HgR6tR4NuMAzcgolQ0smHRoU8TV762+NRA/NEZ7CODXMmkWBsAYDHsaXpfl2qS9viE4IyOSSTllQGdkWMAGJbTDBPjrHmfk4vdXLYo/gIR/WTQf4O1FiyuU0GYrdUpGJAMYO/AyMmohP4ttGnjH/z65eFvK0QOLrgTU033J3iYiL2c0p13LLFGeep0RyBxq52eZQ5WCjzXiRUW+sHPVrf+T/twJHlx0E6ieAukyBNA8UHnoOVeZfUGbCjLhLYgOKzoFyU4RrtOhvacpfhQVrVtDxB+bORUBEIkNQEj/y5SDyDwk8ROxT+Qd3NAdX7rr/R1bV9zemzi6KAHu54sbENYfhdJvMQ9oIW1xQWXWGwgvegvKzyp/RkaU4POArN66bP7GWn5KC+nTcLDzWoT1ZSBPq5i4yl1mvVEk6wC1WsjIIOQFaNG7tj78j3v6js+vTXD3LxoBp5qHg4cWAbH9PfNFXgFAldZm1xu1yUECripnZBwVqJvbHlnwQlbHHr5zHCL6WIgMhWbl4nmDRzFG0zbpZdQD0U4C1FdBnAdwGginNZFXSFts5jpFA7pGEOTQ6mVk8GOnis7auPyGfSl+bfe5MbL7MohcA2IOdH1k33SKlbvrZH73vl3V086JJHVpChVC5RBXua5DwICu1ZeAjK5ORoZ84HA4Ltn4yPzDKa7v/NEc4PgKQMaXb/uNMgBVOXGVq8zezEgWOQjVvwF3ZTMy9gt4xaaH5h5O9DHvHgln+FmAM8vYoloAaKniqsQ2O3eZxzNBVjwoFc3IIEhEoDhvy/L5HYluyNIJYPhlEF8pP8CWOrUa4ipXmZ9mgCzEAUglMzIAQH7atnze1kQE33kKlL4JwJjygVtmIVRRcZWrokkmyNDko779OCqWkbH7mFdblhjnXVoHp/5CeQEup1OrIa5y3VtlgqwzukuDVrGMDFI90O6bl3gckNPxM4DnVI+eSxVXRbTZ5dQBIjszQFbRhl2a5u/rOJQ/I+Oz8LGe38Uh+GLpyYjyB7a4sqxMAtqOjKnGDb4ZPQT2ViQjA3hmx+qFiQHjqNwHoK580Wti+Wexy1PyTgsWslJRFTYlmb3MvTJx3ZEMkPtR2laJjAwovJIo9xYXIK2Wg1tZp+YuE2YT80pND4pdh01GnukbQxJsq0BGhk7dGVfU+HzYDFj27CSrnFrKktIiy8yZmFdI+QqA/qqRd5wAoJTapvXtDFbOjIy9W1fMTYzGUL/Imif7DkJxZXxdFBHnG1kj+fjYzp0Aj5czI4OKB1KxkVNKB7fUbMc8Ce2lLimtrA7YJF/f8GVWkHcsXBhRwJvlzMiAhtThNjG5BWE1xRVrUlxlW9X439m8lViErvBaWfOzVNpDNgXDigIXLKHtKtWpLIO4skIHIAQla7N5LT4vqzTnS1DhCABXefKzamXkyoI2u2Z0QNxelq9tPpo3kjf4ruwUyB/Kmq1p5bRg0YrV4v06qqYDklmRv8rlvdR9vKieKNsWEUXt8j0IxVVeHZAeLvIhmtvWmwZ5/f3feRvE5mLys8z0m62N3lKdWsB+HTWjA4xMrRDJTZQZO/JR1BIylvhk5Y45LEFcqTI41aIyrVipaKpMQ/sEh91P5/NoBsgb77/2XZCrzOVnme9XFzY0WealJOUAqmw6IKe/7pEZG6IFgwwA/i+OLCXVxqK6SlmnIK0QVwWOGZ9I4irT1sjZbWvNeNYQ5B2rF0YcEVwHcp+12ZqliqsCB/dLElfV1AF5Ad6LYPD7ZtVN1k3NNyyb2+kIR78J9s1slLpFhDJ8rF051+mWKq6qpQPymGAfdMdM+caOYyWDDAAbHp3/hR7C5SR/ASBsyRYRWQG2xZWJJm0dRPuWTN64r5B+St6nyWxdMbd3y8+vX6pEawH4G4DHip2CTFX+tMWV2egF3gdxvZzdNlOaNx0qtDNqernJ1ofn7gHw3am3POVyD6+/kLpMg+AkkGMAaSJU38yh6t+ulUx6iJeA4PtpKJd7nW76UORHIA5k3it9PjrpmPQfU0ZpRbF2KPkeKqkbqNIXhiXOqxzdShEdoj4H5DMA+6H4mkxq+3Mp44VWTOgWN1DZseQdgFMrlu1ILpbxzz2JQWjO6t260ktJFAarVQ/kSmc7DmJzVvf2lVxKgpv552tmpGgCMCnAVVL56WpXpa4ITVHDKrV9VSrWnr8uzZt+PchBVpVeSjIF5JSKrXpQPGxHsultFMqxlKQSOkDZdB13Qu1kO5pjDtNl2m1yDiefCEtKbeGVKm5OqCWltrrOMXZtmbiq4pJSuwuVZ+zaKPJqZb8OfADybUD1ADgLwGUAh9Z69NbgiFdNLintAvE9aVn/Ysq3/vCSkdBDjwOcZw+GmMG4dsVVLwSXSfP6jLW+MnHdERIL0H6+ALx+IICsVe/WpUwLln1J6UqZmAlwHGgB4QjfBqDbBjmXiYpUd0lpDvB19V95v/7E7UcAvpL9ApO7s57gwqurRpeU6jj7pE9M1tQPc5w8akcy+HGNrnrQsKfHZOWnO/sp7RMbZKq3a3RJqSB83ORuRPLN7J5VbTbIzsjrALtqdEnpbXnraPsFzRBckgX87dLctn/QgyynrukF1C9rLzEPAHEd28+7MSvAu6c1guq3IBxZLvlFLalrqebNue/GIWDv+6A6q/r7dRj08QSPAeohadna1V+MYNd5M0B5HEBzll+1Di1tl+ZbhDZoQAYA7r32AhBvAPSUPndclmnBCICdAHoAmWD0tJYkOw5RU6Rl6x47ktOB3nPN3wNcA9BZ0Dh0LU0LCnqhZLZM2rzBHgwx8s+EtX+AqBsA9lr7CPgSlqMUZt2guroWAa6ZSE70nK+eDE1fC3B8effrsNTehea4Tpo37raHNc3UuK/8ficCwckAHwJUqDxPKbXMjoO4F57G6bUMcM1Fcmo7ffkERB33QDg/IcpKmTu2EFyRp6EiD8qkP32GAWBS61+Q7bPHQFO3QlMLQE4oLjHPEk/tgOJvMET/TznrTwNi9mnAgJwC+IeXTQX0awDOBDEFoKOMOVd+AFsArgOxttRFZzbIxQD+/vkj4HR+G1TTAEwFOAXgyCLFlQKwB8BOEO9Bk43A0e3S0h7GCWCCE8j4wbSToLnOANWZoJwC4TAIhoL9G6dTCOGXoBaEqIOgdgiaOoBow26Z/Lofttlmm2222WabbbbZZpttttlmm222DXwbaCNe4vP5pL29XVpaWgQAxo4dKwBw6NAhaWpqiv+erq4uU7+tqamJ/dezvzweOnSIANDc3Mxdu3YRAHw+34DdRqgmQSYpc+fO1VpaWmTs2LESA7Crq0saGxulu7tb6uvrBQC8Xq/09PTIqFGj4Pf7BQACgYAAQDAYlGHDjB9aEwqF4oB5vV4CQG9vLxsaGnj48GHU19fT7/ezsbGR3d3dbGpqYldXF2OVoL29nS0tLRwI4NcKyNLa2hoHNRQKaTFAdV3X/H6/1NXVSV1dnQQCAfF4POLxeCQYDIrb7ZahQ4ciGAxKKBQSl8sl/SAKANTX1xve0O/3w+PxEAAikQgBwOPxMPY6HA5TRFSsQowePVoFg0EGAgH6/f7knV9UR0cHx40bRwDK5/MpG+Q8wKIvW0WLgarruubxeMTtdovL5ZJjx45pLpdLnE6nOJ1OCYfDKX8dDocAQOxYtpu73W729vbC5XJR13W63W4GAgG43W5Go1FGo1FGIhFqmqZi4MeAD4VC9Hq9dDgcKhAI0OFwqO7ubsYAnzlzptq1axdrBfCqgOzz+bQYmE1NTRKNRjVd1zWv1yu6rmuBQEBIaqNHjxZd17VQKCRKKW3YsGGilNLC4bB4PB4tBqTD4RCSmqZpMmTIEEQiEdE0TaLRqHg8HkQikZTf6XK5GAqF4HQ6qZSiruuMgR37X9M0pes6o9EoNU1TmqapZOBjgDscDtXb20tN01RShMfBbm1tVSJSVTr/f/I5ej5sXu0gAAAAJXRFWHRkYXRlOmNyZWF0ZQAyMDIyLTExLTA3VDE2OjU2OjA4KzAwOjAwH/xA0AAAACV0RVh0ZGF0ZTptb2RpZnkAMjAyMi0xMS0wN1QxNjo1NjowOCswMDowMG6h+GwAAAAASUVORK5CYII=;" vertex="1" parent="2q1pVqS0Al537EC6Pk_O-110">
          <mxGeometry x="231" y="44" width="39.12" height="43" as="geometry" />
        </mxCell>
        <mxCell id="U3krhh0B3n7ER5-2B62J-53" value="" style="strokeColor=#dddddd;shadow=1;strokeWidth=1;rounded=1;absoluteArcSize=1;arcSize=2;" vertex="1" parent="2q1pVqS0Al537EC6Pk_O-110">
          <mxGeometry x="215" y="135" width="140" height="60" as="geometry" />
        </mxCell>
        <mxCell id="U3krhh0B3n7ER5-2B62J-54" value="Logging" style="editableCssRules=.*;html=1;fontColor=#999999;shape=image;verticalLabelPosition=middle;labelBackgroundColor=#ffffff;verticalAlign=middle;labelPosition=right;align=left;spacingLeft=20;part=1;points=[];imageAspect=0;image=data:image/svg+xml,PHN2ZyB4bWxucz0iaHR0cDovL3d3dy53My5vcmcvMjAwMC9zdmciIHhtbG5zOnY9Imh0dHBzOi8vdmVjdGEuaW8vbmFubyIgd2lkdGg9IjIwIiBoZWlnaHQ9IjE5IiB2aWV3Qm94PSIwIDAgMjAgMTkiPiYjeGE7CTxzdHlsZSB0eXBlPSJ0ZXh0L2NzcyI+JiN4YTsJLnN0MHtmaWxsOiM0Mjg1ZjQ7fSYjeGE7CS5zdDF7ZmlsbDojNjY5ZGY2O30mI3hhOwkuc3Qye2ZpbGw6I2FlY2JmYTt9JiN4YTsJPC9zdHlsZT4mI3hhOwk8ZyBjbGFzcz0ic3QwIj4mI3hhOwkJPHBhdGggZD0iTTQgOWg0djJINHptLTIgN2g2djJIMnoiLz4mI3hhOwkJPHBhdGggZD0iTTQgNEgydjEyaDJ6Ii8+JiN4YTsJPC9nPiYjeGE7CTxwYXRoIGNsYXNzPSJzdDEiIGQ9Ik0yMCAxSDd2NGgxM3ptMCA3SDd2NGgxM3ptMCA3SDd2NGgxM3oiLz4mI3hhOwk8cGF0aCBjbGFzcz0ic3QyIiBkPSJNNiAwSDB2Nmg2eiIvPiYjeGE7PC9zdmc+;" vertex="1" parent="U3krhh0B3n7ER5-2B62J-53">
          <mxGeometry width="30" height="28" relative="1" as="geometry">
            <mxPoint x="15" y="16" as="offset" />
          </mxGeometry>
        </mxCell>
        <mxCell id="2q1pVqS0Al537EC6Pk_O-259" style="edgeStyle=orthogonalEdgeStyle;rounded=0;orthogonalLoop=1;jettySize=auto;html=1;" edge="1" parent="1" source="blMIOamzqk59xTB1D_x0-82">
          <mxGeometry relative="1" as="geometry">
            <mxPoint x="1961.25" y="450" as="targetPoint" />
          </mxGeometry>
        </mxCell>
        <mxCell id="blMIOamzqk59xTB1D_x0-82" value="Datawarehouse" style="swimlane;whiteSpace=wrap;html=1;startSize=23;" vertex="1" parent="1">
          <mxGeometry x="1810" y="520" width="340" height="373" as="geometry" />
        </mxCell>
        <mxCell id="U3krhh0B3n7ER5-2B62J-39" value="" style="strokeColor=#dddddd;shadow=1;strokeWidth=1;rounded=1;absoluteArcSize=1;arcSize=2;" vertex="1" parent="blMIOamzqk59xTB1D_x0-82">
          <mxGeometry x="39.5" y="273" width="130" height="60" as="geometry" />
        </mxCell>
        <mxCell id="U3krhh0B3n7ER5-2B62J-40" value="BigQuery" style="editableCssRules=.*;html=1;fontColor=#999999;shape=image;verticalLabelPosition=middle;labelBackgroundColor=#ffffff;verticalAlign=middle;labelPosition=right;align=left;spacingLeft=20;part=1;points=[];imageAspect=0;image=data:image/svg+xml,PHN2ZyB4bWxucz0iaHR0cDovL3d3dy53My5vcmcvMjAwMC9zdmciIHhtbG5zOnY9Imh0dHBzOi8vdmVjdGEuaW8vbmFubyIgd2lkdGg9IjIwLjAwMTA0NTIyNzA1MDc4IiBoZWlnaHQ9IjIwLjAwMTA0NTIyNzA1MDc4IiBmaWxsLXJ1bGU9ImV2ZW5vZGQiIHZpZXdCb3g9IjAgMCAyMC4wMDEwNDUyMjcwNTA3OCAyMC4wMDEwNDUyMjcwNTA3OCI+JiN4YTsJPHN0eWxlIHR5cGU9InRleHQvY3NzIj4mI3hhOwkuc3Qwe2ZpbGw6I2FlY2JmYTt9JiN4YTsJLnN0MXtmaWxsOiM2NjlkZjY7fSYjeGE7CS5zdDJ7ZmlsbDojNDI4NWY0O30mI3hhOwk8L3N0eWxlPiYjeGE7CTxwYXRoIGNsYXNzPSJzdDAiIGQ9Ik00LjczIDguODN2Mi42M2E0LjkxIDQuOTEgMCAwIDAgMS43MSAxLjc0VjguODN6Ii8+JiN4YTsJPHBhdGggY2xhc3M9InN0MSIgZD0iTTcuODkgNi40MXY3LjUzQTcuNjIgNy42MiAwIDAgMCA5IDE0YTggOCAwIDAgMCAxIDBWNi40MXoiLz4mI3hhOwk8cGF0aCBjbGFzcz0ic3QwIiBkPSJNMTEuNjQgOS44NnYzLjI5YTUgNSAwIDAgMCAxLjctMS44MlY5Ljg2eiIvPiYjeGE7CTxwYXRoIGNsYXNzPSJzdDIiIGQ9Ik0xNS43NCAxNC4zMmwtMS40MiAxLjQyYS40Mi40MiAwIDAgMCAwIC42bDMuNTQgMy41NGEuNDIuNDIgMCAwIDAgLjU5IDBsMS40My0xLjQzYS40Mi40MiAwIDAgMCAwLS41OWwtMy41NC0zLjU0YS40Mi40MiAwIDAgMC0uNiAwIi8+JiN4YTsJPHBhdGggY2xhc3M9InN0MSIgZD0iTTkgMGE5IDkgMCAxIDAgMCAxOEE5IDkgMCAxIDAgOSAwbTAgMTUuNjlhNi42OCA2LjY4IDAgMCAxIC4wMDctMTMuMzYgNi42OCA2LjY4IDAgMCAxIDQuNzI3IDExLjQwM0E2LjY4IDYuNjggMCAwIDEgOSAxNS42OSIvPiYjeGE7PC9zdmc+;" vertex="1" parent="U3krhh0B3n7ER5-2B62J-39">
          <mxGeometry width="30" height="30" relative="1" as="geometry">
            <mxPoint x="15" y="15" as="offset" />
          </mxGeometry>
        </mxCell>
        <mxCell id="blMIOamzqk59xTB1D_x0-85" value="" style="strokeColor=#dddddd;shadow=1;strokeWidth=1;rounded=1;absoluteArcSize=1;arcSize=2;" vertex="1" parent="blMIOamzqk59xTB1D_x0-82">
          <mxGeometry x="193" y="163" width="130" height="60" as="geometry" />
        </mxCell>
        <mxCell id="blMIOamzqk59xTB1D_x0-86" value="&lt;font color=&quot;#000000&quot;&gt;BD&lt;/font&gt;&lt;br&gt;Cloud SQL" style="editableCssRules=.*;html=1;fontColor=#999999;shape=image;verticalLabelPosition=middle;labelBackgroundColor=#ffffff;verticalAlign=middle;labelPosition=right;align=left;spacingLeft=20;part=1;points=[];imageAspect=0;image=data:image/svg+xml,PHN2ZyB4bWxucz0iaHR0cDovL3d3dy53My5vcmcvMjAwMC9zdmciIHhtbG5zOnY9Imh0dHBzOi8vdmVjdGEuaW8vbmFubyIgd2lkdGg9IjE0LjY1OTk5OTg0NzQxMjExIiBoZWlnaHQ9IjIwIiB2aWV3Qm94PSIwIDAgMTQuNjU5OTk5ODQ3NDEyMTEgMjAiPiYjeGE7CTxzdHlsZSB0eXBlPSJ0ZXh0L2NzcyI+JiN4YTsJLnN0MHtmaWxsOiM0Mjg1ZjQ7fSYjeGE7CS5zdDF7ZmlsbDojNjY5ZGY2O30mI3hhOwkuc3Qye2ZpbGw6I2FlY2JmYTt9JiN4YTsJPC9zdHlsZT4mI3hhOwk8c3R5bGU+JiN4YTsJCS5Ee2ZpbGwtcnVsZTpldmVub2RkfSYjeGE7CTwvc3R5bGU+JiN4YTsJPHBhdGggZD0iTTcuMzMgMTUuMzV2LTMuMDFMMCA4LjQ0djMuMDF6bTAgNC42NXYtMy4wMUwwIDEzLjA5djMuMDF6IiBjbGFzcz0ic3QyIEQiLz4mI3hhOwk8cGF0aCBkPSJNMTQuNjYgOC40NGwtNy4zMyAzLjl2My4wMWw3LjMzLTMuOXptMCA0LjY1bC03LjMzIDMuOVYyMGw3LjMzLTMuOXoiIGNsYXNzPSJzdDEgRCIvPiYjeGE7CTxwYXRoIGQ9Ik03LjMzIDB2My4wMWw3LjMzIDMuOVYzLjl6IiBjbGFzcz0ic3QwIEQiLz4mI3hhOwk8cGF0aCBkPSJNMCA2LjkxbDcuMzMtMy45VjBMMCAzLjl6IiBjbGFzcz0iRCBzdDEiLz4mI3hhOwk8cGF0aCBkPSJNNy4zMyAxMC43OVY3Ljc3TDAgMy44N3YzLjAyeiIgY2xhc3M9IkQgc3QyIi8+JiN4YTsJPHBhdGggZD0iTTE0LjY2IDMuODdsLTcuMzMgMy45djMuMDJsNy4zMy0zLjl6IiBjbGFzcz0iRCBzdDEiLz4mI3hhOzwvc3ZnPg==;" vertex="1" parent="blMIOamzqk59xTB1D_x0-85">
          <mxGeometry width="22" height="30" relative="1" as="geometry">
            <mxPoint x="19" y="15" as="offset" />
          </mxGeometry>
        </mxCell>
        <mxCell id="blMIOamzqk59xTB1D_x0-96" style="edgeStyle=orthogonalEdgeStyle;rounded=0;orthogonalLoop=1;jettySize=auto;html=1;" edge="1" parent="blMIOamzqk59xTB1D_x0-82" source="U3krhh0B3n7ER5-2B62J-43" target="U3krhh0B3n7ER5-2B62J-39">
          <mxGeometry relative="1" as="geometry">
            <Array as="points">
              <mxPoint x="73" y="263" />
              <mxPoint x="73" y="263" />
            </Array>
          </mxGeometry>
        </mxCell>
        <mxCell id="2q1pVqS0Al537EC6Pk_O-187" style="edgeStyle=orthogonalEdgeStyle;rounded=0;orthogonalLoop=1;jettySize=auto;html=1;exitX=0.5;exitY=1;exitDx=0;exitDy=0;entryX=0;entryY=0.5;entryDx=0;entryDy=0;startArrow=none;startFill=0;" edge="1" parent="blMIOamzqk59xTB1D_x0-82" source="U3krhh0B3n7ER5-2B62J-43" target="blMIOamzqk59xTB1D_x0-85">
          <mxGeometry relative="1" as="geometry" />
        </mxCell>
        <mxCell id="U3krhh0B3n7ER5-2B62J-43" value="" style="strokeColor=#dddddd;shadow=1;strokeWidth=1;rounded=1;absoluteArcSize=1;arcSize=2;" vertex="1" parent="blMIOamzqk59xTB1D_x0-82">
          <mxGeometry x="32.5" y="63" width="144" height="60" as="geometry" />
        </mxCell>
        <mxCell id="U3krhh0B3n7ER5-2B62J-44" value="Dataprep" style="editableCssRules=.*;html=1;fontColor=#999999;shape=image;verticalLabelPosition=middle;labelBackgroundColor=#ffffff;verticalAlign=middle;labelPosition=right;align=left;spacingLeft=20;part=1;points=[];imageAspect=0;image=data:image/svg+xml,PHN2ZyB4bWxucz0iaHR0cDovL3d3dy53My5vcmcvMjAwMC9zdmciIHhtbG5zOnY9Imh0dHBzOi8vdmVjdGEuaW8vbmFubyIgd2lkdGg9IjE4LjI3OTk5ODc3OTI5Njg3NSIgaGVpZ2h0PSIyMCIgdmlld0JveD0iMS4yNDYyOTA4MDM4OTEyNzAxZS04IDAgMTguMjc5OTk4Nzc5Mjk2ODc1IDIwIj4mI3hhOwk8c3R5bGUgdHlwZT0idGV4dC9jc3MiPiYjeGE7CS5zdDB7ZmlsbDojNjY5ZGY2O2ZpbGwtcnVsZTpldmVub2RkfSYjeGE7CS5zdDF7ZmlsbDojNDI4NWY0O30mI3hhOwkuc3Qye2ZpbGwtcnVsZTpldmVub2RkfSYjeGE7CTwvc3R5bGU+JiN4YTsJPHBhdGggY2xhc3M9InN0MCIgZD0iTTcuNjMgOWEuOTEuOTEgMCAxIDEtLjY0My4yNjdBLjkxLjkxIDAgMCAxIDcuNjMgOXptMC0uOGExLjcxIDEuNzEgMCAxIDAgMS43IDEuNzEgMS43IDEuNyAwIDAgMC0xLjctMS43MXpNMS43MiA5YS45MS45MSAwIDEgMS0uNjQzLjI2N0EuOTEuOTEgMCAwIDEgMS43MiA5em0wLS44YTEuNzEgMS43MSAwIDEgMCAxLjcgMS43MSAxLjcgMS43IDAgMCAwLTEuNy0xLjcxem0zLjA0IDYuMTFhLjkxLjkxIDAgMSAxIDAgMS44Mi45MS45MSAwIDEgMSAwLTEuODJ6bTAtLjc5YTEuNzEgMS43MSAwIDEgMCAxLjIuNSAxLjcgMS43IDAgMCAwLTEuMi0uNXptMC05LjczYS45MS45MSAwIDAgMS0uMDQgMS44MTkuOTEuOTEgMCAwIDEtLjktLjkwOS45Mi45MiAwIDAgMSAuOTQtLjkxem0wLS44YTEuNzEgMS43MSAwIDEgMCAxLjIuNUExLjcgMS43IDAgMCAwIDQuNzYgM3oiLz4mI3hhOwk8ZyBjbGFzcz0ic3QxIj4mI3hhOwkJPHBhdGggZD0iTTcuODEgMGgxLjY4djIwSDcuODF6Ii8+JiN4YTsJCTxwYXRoIGNsYXNzPSJzdDIiIGQ9Ik0xMy40IDIuODdIOC44OWEuMzcuMzcgMCAwIDAtLjMuNHYyLjgyYS4zNi4zNiAwIDAgMCAuMy4zOWg0LjUxYS4zNi4zNiAwIDAgMCAuMzEtLjM5VjMuMjhhLjM3LjM3IDAgMCAwLS4zMS0uNDF6bTQuMzIgNS4yOUg5LjRjLS4zMSAwLS41Ni4xOC0uNTYuMzl2Mi44MmMwIC4yMi4yNS40LjU2LjRoOC4zMmMuMzEgMCAuNTYtLjE5LjU2LS40VjguNTVjMC0uMjItLjI1LS4zOS0uNTYtLjM5em0tNS45MSA1LjI4SDguMjhjLS4xMyAwLS4yMy4xOC0uMjMuMzl2Mi44MmMwIC4yMi4xLjM5LjIzLjM5aDMuNTNjLjEzIDAgLjI0LS4xOC4yNC0uMzl2LTIuODJjLS4wMS0uMjItLjExLS4zOS0uMjQtLjM5eiIvPiYjeGE7CTwvZz4mI3hhOzwvc3ZnPg==;" vertex="1" parent="U3krhh0B3n7ER5-2B62J-43">
          <mxGeometry width="30" height="28" relative="1" as="geometry">
            <mxPoint x="15" y="16" as="offset" />
          </mxGeometry>
        </mxCell>
        <mxCell id="blMIOamzqk59xTB1D_x0-93" value="" style="editableCssRules=.*;html=1;shape=image;verticalLabelPosition=bottom;labelBackgroundColor=#ffffff;verticalAlign=top;aspect=fixed;imageAspect=0;image=data:image/svg+xml,PHN2ZyB4bWxucz0iaHR0cDovL3d3dy53My5vcmcvMjAwMC9zdmciIHhtbG5zOnY9Imh0dHBzOi8vdmVjdGEuaW8vbmFubyIgd2lkdGg9IjM2MC4zMDM3NjY4NjA4MzYzIiBoZWlnaHQ9IjM3OC4wNTExNTgwNzc0MDg4IiB2aWV3Qm94PSItMC4wMDAxNjI0MjExNDM2MTM3NTU3IC0wLjAwMDEwMDAwNTk0OTIwNzExNTkyIDk1LjMzMDI2MTIzMDQ2ODc1IDEwMC4wMjYxMDAxNTg2OTE0Ij4mI3hhOzxzdHlsZSB0eXBlPSJ0ZXh0L2NzcyI+JiN4YTsJLnN0MHtmaWxsOiM0Mjg1ZjQ7fSYjeGE7CS5zdDF7ZmlsbDojYWVjYmZhO30mI3hhOwkuc3Qye2ZpbGw6IzY2OWRmNjt9JiN4YTs8L3N0eWxlPiYjeGE7CTxwYXRoIGNsYXNzPSJzdDAiIGQ9Ik03OS45NzEgNzcuNzE1bC03LjM1OSA3LjQ4OCA4LjYzOSA4LjQ5IDcuMzU5LTcuNDg4em0tNjUuMDk2LjA2MWwtOC42NDEgOC40OTIgNy4zNjEgNy40ODggOC42MzktOC40OXoiLz4mI3hhOwk8cGF0aCBjbGFzcz0ic3QxIiBkPSJNNzkuNTUzLjIyMWE1LjI1IDUuMjUgMCAwIDAtMy42NiA4Ljk4NEw4Ni4zODkgMTkuNThhNS4yNSA1LjI1IDAgMCAwIDguOTQxLTMuNzY1IDUuMjUgNS4yNSAwIDAgMC0xLjU2LTMuNzA0TDgzLjI3NSAxLjczOEE1LjI1IDUuMjUgMCAwIDAgNzkuNTUzLjIyMXpNMTUuOTE2IDBhNS4yNSA1LjI1IDAgMCAwLTMuNzIzIDEuNTE2TDEuNjk5IDExLjg5MWE1LjI1IDUuMjUgMCAwIDAtLjA0MyA3LjQyNCA1LjI1IDUuMjUgMCAwIDAgNy40MjQuMDQzTDE5LjU3NiA4Ljk4MkE1LjI1IDUuMjUgMCAwIDAgMTUuOTE2IDB6Ii8+JiN4YTsJPHBhdGggY2xhc3M9InN0MCIgZD0iTTQ4LjEzOCAyNi4yNGMxMy4zNDcgMCAyNS40MzIgMTEuMTM2IDI1LjMxIDI2LjQ4MSAwIDE1LjExLTEyLjI2NyAyNS42NzMtMjUuMTg5IDI1LjY3My0xMS4xNDkgMC0xOC4zMTctNS4xNzEtMjEuOTYtMTAuNzM4bDIxLjgzOS0xNS4wOTd6Ii8+JiN4YTsJPHBhdGggY2xhc3M9InN0MiIgZD0iTTgxLjI1IDkzLjY5M2w0LjY2NCA0LjU4NmE1LjI1IDUuMjUgMCAxIDAgNy4zNjEtNy40OWwtNC42NjYtNC41ODR6TTYuMjM0IDg2LjI2OEwxLjU3IDkwLjg1MWE1LjI1IDUuMjUgMCAwIDAtLjA2NSA3LjQyNCA1LjI1IDUuMjUgMCAwIDAgNy40MjQuMDY0bDQuNjY2LTQuNTg0ek00Ny4zNzEgNS41NzhDMjEuMzQ5IDUuNTc4LjE0NiAyNi43NzkuMTQ2IDUyLjgwMXMyMS4yMDMgNDcuMjI1IDQ3LjIyNSA0Ny4yMjUgNDcuMjI1LTIxLjIwMyA0Ny4yMjUtNDcuMjI1UzczLjM5MyA1LjU3OCA0Ny4zNzEgNS41Nzh6bTAgMTBhMzcuMTUgMzcuMTUgMCAwIDEgMzcuMjI1IDM3LjIyM2MwIDIwLjYxNy0xNi42MDcgMzcuMjI1LTM3LjIyNSAzNy4yMjVTMTAuMTQ2IDczLjQxOCAxMC4xNDYgNTIuODAxYTM3LjE1IDM3LjE1IDAgMCAxIDM3LjIyNS0zNy4yMjN6Ii8+JiN4YTs8L3N2Zz4=;" vertex="1" parent="blMIOamzqk59xTB1D_x0-82">
          <mxGeometry x="148" y="53" width="28.5" height="30" as="geometry" />
        </mxCell>
        <mxCell id="2q1pVqS0Al537EC6Pk_O-275" value="https://www.precios.uy/&#xa;https://www.eldorado.com.uy/&#xa;https://www.tiendainglesa.com.uy/&#xa;https://www.devoto.com.uy/&#xa;https://www.tata.com.uy/" style="strokeColor=#dddddd;shadow=1;strokeWidth=1;rounded=1;absoluteArcSize=1;arcSize=2;" vertex="1" parent="1">
          <mxGeometry x="30.76" y="750" width="190" height="340" as="geometry" />
        </mxCell>
        <mxCell id="2q1pVqS0Al537EC6Pk_O-279" value="" style="image;aspect=fixed;perimeter=ellipsePerimeter;html=1;align=center;shadow=0;dashed=0;spacingTop=3;image=img/lib/active_directory/internet_cloud.svg;" vertex="1" parent="1">
          <mxGeometry x="51.51" y="770" width="148.49" height="93.55" as="geometry" />
        </mxCell>
        <mxCell id="2q1pVqS0Al537EC6Pk_O-298" value="" style="endArrow=none;html=1;rounded=0;strokeWidth=5;" edge="1" parent="1">
          <mxGeometry width="50" height="50" relative="1" as="geometry">
            <mxPoint x="1260" y="1150" as="sourcePoint" />
            <mxPoint x="1255" y="70" as="targetPoint" />
          </mxGeometry>
        </mxCell>
        <mxCell id="2q1pVqS0Al537EC6Pk_O-306" value="Diagrama de arquitectura de ElMejorPrecio.UY" style="text;html=1;strokeColor=none;fillColor=none;align=center;verticalAlign=middle;whiteSpace=wrap;rounded=0;fontSize=20;fontStyle=1" vertex="1" parent="1">
          <mxGeometry x="820" y="20" width="890" height="30" as="geometry" />
        </mxCell>
        <mxCell id="2q1pVqS0Al537EC6Pk_O-310" style="edgeStyle=orthogonalEdgeStyle;rounded=0;orthogonalLoop=1;jettySize=auto;html=1;entryX=0;entryY=0.75;entryDx=0;entryDy=0;" edge="1" parent="1" source="2q1pVqS0Al537EC6Pk_O-170" target="U3krhh0B3n7ER5-2B62J-39">
          <mxGeometry relative="1" as="geometry">
            <Array as="points">
              <mxPoint x="1101" y="780" />
              <mxPoint x="1410" y="780" />
              <mxPoint x="1410" y="838" />
            </Array>
          </mxGeometry>
        </mxCell>
        <mxCell id="2q1pVqS0Al537EC6Pk_O-311" style="edgeStyle=orthogonalEdgeStyle;rounded=0;orthogonalLoop=1;jettySize=auto;html=1;" edge="1" parent="1" source="blMIOamzqk59xTB1D_x0-98" target="U3krhh0B3n7ER5-2B62J-39">
          <mxGeometry relative="1" as="geometry">
            <mxPoint x="1800" y="820" as="targetPoint" />
            <Array as="points">
              <mxPoint x="1096" y="660" />
              <mxPoint x="1514" y="660" />
              <mxPoint x="1514" y="820" />
            </Array>
          </mxGeometry>
        </mxCell>
        <mxCell id="2q1pVqS0Al537EC6Pk_O-330" style="edgeStyle=orthogonalEdgeStyle;rounded=0;orthogonalLoop=1;jettySize=auto;html=1;entryX=0.997;entryY=0.718;entryDx=0;entryDy=0;entryPerimeter=0;" edge="1" parent="1" source="2q1pVqS0Al537EC6Pk_O-61" target="qwDfuw3enS2oKEGdYXwS-11">
          <mxGeometry relative="1" as="geometry">
            <Array as="points">
              <mxPoint x="902" y="490" />
              <mxPoint x="524" y="490" />
              <mxPoint x="524" y="493" />
            </Array>
          </mxGeometry>
        </mxCell>
        <mxCell id="2q1pVqS0Al537EC6Pk_O-338" value="Kibana / Procesamiento de logs de Servers Web y API" style="swimlane;whiteSpace=wrap;html=1;" vertex="1" parent="1">
          <mxGeometry x="1300" y="910" width="850" height="230" as="geometry" />
        </mxCell>
        <mxCell id="2q1pVqS0Al537EC6Pk_O-353" style="edgeStyle=orthogonalEdgeStyle;rounded=0;orthogonalLoop=1;jettySize=auto;html=1;entryX=0;entryY=0.5;entryDx=0;entryDy=0;" edge="1" parent="2q1pVqS0Al537EC6Pk_O-338" source="2q1pVqS0Al537EC6Pk_O-344" target="2q1pVqS0Al537EC6Pk_O-347">
          <mxGeometry relative="1" as="geometry" />
        </mxCell>
        <mxCell id="2q1pVqS0Al537EC6Pk_O-344" value="Kibana&#xa;Â  Â  Â  Â Dashbords" style="strokeColor=#dddddd;shadow=1;strokeWidth=1;rounded=1;absoluteArcSize=1;arcSize=2;fontColor=#CCCCCC;" vertex="1" parent="2q1pVqS0Al537EC6Pk_O-338">
          <mxGeometry x="20" y="80.00000000000003" width="150" height="60" as="geometry" />
        </mxCell>
        <mxCell id="2q1pVqS0Al537EC6Pk_O-345" value="" style="shape=image;verticalLabelPosition=bottom;labelBackgroundColor=default;verticalAlign=top;aspect=fixed;imageAspect=0;image=data:image/svg+xml,PHN2ZyB4bWxuczp4bGluaz0iaHR0cDovL3d3dy53My5vcmcvMTk5OS94bGluayIgeG1sbnM9Imh0dHA6Ly93d3cudzMub3JnLzIwMDAvc3ZnIiBwcmVzZXJ2ZUFzcGVjdFJhdGlvPSJ4TWlkWU1pZCIgdmVyc2lvbj0iMS4xIiB2aWV3Qm94PSItMS4yNzg5NzY5MjQzNjgxODAzZS0xMyAwIDI1NiAzNDEuMDA5NTUyMDAxOTUzMSIgaGVpZ2h0PSI3OTcuNjgzMTYyNTc3NjY4MSIgd2lkdGg9IjU5OC44MzA0MDkzNTY3MjUxIj4mI3hhOyAgICA8Zz4mI3hhOwkJCQk8cGF0aCBmaWxsPSIjMDA5QjkwIiBkPSJNMCwzMDYuOTI5NDMxIEwwLDM0MC45NDE1MyBMMTUuOTg1Njg2NCwzNDAuOTQxNTMgTDE1Ni4zMTk2MDYsMTcyLjcxNzY4OSBDMTQ2LjU4ODYzNSwxNjYuMzkyOTk3IDEzNi40NTQwMzEsMTYwLjcxMjE2NiAxMjUuOTgwODE0LDE1NS43MTE2NCBMMCwzMDYuOTI5NDMxIFoiPiYjeGE7JiN4YTs8L3BhdGg+JiN4YTsJCQkJPHBhdGggZmlsbD0iIzQwQkVCMCIgZD0iTTE1Ni4zMjQxNCwxNzIuNzE3Njg5IEwxNS45MjIxOTU3LDM0MS4wMDk1NTQgTDI1NS41NzE0NDQsMzQxLjAwOTU1NCBDMjU1LjU3MTQ0NCwyNzIuNDQxMTYzIDIxNi42NjE2MDMsMjExLjQ5MTQ4MiAxNTYuMzI0MTQsMTcyLjcxNzY4OSBaIj4mI3hhOyYjeGE7PC9wYXRoPiYjeGE7CQkJCTxwb2x5Z29uIHBvaW50cz0iLTUuMjQwMjUyNjhlLTE0IDAgLTEuMjc4OTc2OTJlLTEzIDMwNy40NDUzNjggMjU2IDAiIGZpbGw9IiNFRjUwOTgiPiYjeGE7JiN4YTs8L3BvbHlnb24+JiN4YTsJCQkJPHBhdGggZmlsbD0iIzM1MzUzNSIgZD0iTTAuMDY4MTg4NjUwNCwzMDcuMzM5MjA5IEwxMjYuMjQzMTY0LDE1NS44NDUxMzMgQzg2LjY5MzIzNDIsMTM3LjM3MTkzNCA0My42NTEwNzc3LDEyNy44MDQ0NDYgMCwxMjguMDAzMDU4IEwwLjA2ODE4ODY1MDQsMzA3LjMzOTIwOSBaIj4mI3hhOyYjeGE7PC9wYXRoPiYjeGE7CQk8L2c+JiN4YTs8L3N2Zz4=;" vertex="1" parent="2q1pVqS0Al537EC6Pk_O-338">
          <mxGeometry x="30" y="92.51" width="26.25" height="34.97" as="geometry" />
        </mxCell>
        <mxCell id="2q1pVqS0Al537EC6Pk_O-347" value="Â  Â  Â  Â  Â  Â  Â  Â  Â  Â Elasticsearch&#xa;Â  Â  Â  Â  Â  Â  Â  Â Dashbords" style="strokeColor=#dddddd;shadow=1;strokeWidth=1;rounded=1;absoluteArcSize=1;arcSize=2;" vertex="1" parent="2q1pVqS0Al537EC6Pk_O-338">
          <mxGeometry x="230" y="79.99000000000002" width="150" height="60" as="geometry" />
        </mxCell>
        <mxCell id="2q1pVqS0Al537EC6Pk_O-349" value="" style="shape=image;verticalLabelPosition=bottom;labelBackgroundColor=default;verticalAlign=top;aspect=fixed;imageAspect=0;image=data:image/svg+xml,PHN2ZyB4bWxucz0iaHR0cDovL3d3dy53My5vcmcvMjAwMC9zdmciIHZpZXdCb3g9IjAgMCAzMiAzMiIgaGVpZ2h0PSI4MDBweCIgd2lkdGg9IjgwMHB4Ij48dGl0bGU+ZmlsZV90eXBlX2VsYXN0aWM8L3RpdGxlPjxwYXRoIHN0eWxlPSJmaWxsOiNmZWQxMGEiIGQ9Ik0xMi43NjEsMTMuODlsNi42NDQsMy4wMjcsNi43LTUuODc0YTcuMDE3LDcuMDE3LDAsMCwwLC4xNDEtMS40NzUsNy40ODQsNy40ODQsMCwwLDAtMTMuNjYtNC4yMzNMMTEuNDY2LDExLjEyWiIvPjxwYXRoIHN0eWxlPSJmaWxsOiMyNGJiYjEiIGQ9Ik01Ljg4NiwyMC45MTlhNy4yNjIsNy4yNjIsMCwwLDAtLjE0MSwxLjUsNy41MTQsNy41MTQsMCwwLDAsMTMuNzI0LDQuMjJsMS4xLTUuNzU5TDE5LjEsMTguMDU5bC02LjY3LTMuMDRaIi8+PHBhdGggc3R5bGU9ImZpbGw6I2VmNTA5OCIgZD0iTTUuODQ4LDkuNDI2LDEwLjQsMTAuNWwxLTUuMTY5QTMuNTk0LDMuNTk0LDAsMCwwLDUuODQ4LDkuNDI2Ii8+PHBhdGggc3R5bGU9ImZpbGw6IzE3YThlMCIgZD0iTTUuNDUsMTAuNTE3YTUuMDE2LDUuMDE2LDAsMCwwLS4yMTgsOS40NTNMMTEuNjIsMTQuMmwtMS4xNjctMi41WiIvPjxwYXRoIHN0eWxlPSJmaWxsOiM5M2M4M2UiIGQ9Ik0yMC42MjQsMjYuNjM5YTMuNTg5LDMuNTg5LDAsMCwwLDUuNTQxLTQuMDkybC00LjU0MS0xLjA2NVoiLz48cGF0aCBzdHlsZT0iZmlsbDojMDc3OWExIiBkPSJNMjEuNTQ3LDIwLjI5bDUsMS4xNjdBNS4wMTYsNS4wMTYsMCwwLDAsMjYuNzY4LDEybC02LjU0MSw1LjczM1oiLz48L3N2Zz4=;" vertex="1" parent="2q1pVqS0Al537EC6Pk_O-338">
          <mxGeometry x="240" y="84.99000000000001" width="52" height="50" as="geometry" />
        </mxCell>
        <mxCell id="2q1pVqS0Al537EC6Pk_O-363" style="edgeStyle=orthogonalEdgeStyle;rounded=0;orthogonalLoop=1;jettySize=auto;html=1;entryX=0.5;entryY=0;entryDx=0;entryDy=0;" edge="1" parent="2q1pVqS0Al537EC6Pk_O-338" source="2q1pVqS0Al537EC6Pk_O-356" target="2q1pVqS0Al537EC6Pk_O-361">
          <mxGeometry relative="1" as="geometry" />
        </mxCell>
        <mxCell id="2q1pVqS0Al537EC6Pk_O-356" value="" style="strokeColor=#dddddd;shadow=1;strokeWidth=1;rounded=1;absoluteArcSize=1;arcSize=2;" vertex="1" parent="2q1pVqS0Al537EC6Pk_O-338">
          <mxGeometry x="670" y="50" width="165" height="60" as="geometry" />
        </mxCell>
        <mxCell id="2q1pVqS0Al537EC6Pk_O-357" value="Logging" style="editableCssRules=.*;html=1;fontColor=#999999;shape=image;verticalLabelPosition=middle;labelBackgroundColor=#ffffff;verticalAlign=middle;labelPosition=right;align=left;spacingLeft=20;part=1;points=[];imageAspect=0;image=data:image/svg+xml,PHN2ZyB4bWxucz0iaHR0cDovL3d3dy53My5vcmcvMjAwMC9zdmciIHhtbG5zOnY9Imh0dHBzOi8vdmVjdGEuaW8vbmFubyIgd2lkdGg9IjIwIiBoZWlnaHQ9IjE5IiB2aWV3Qm94PSIwIDAgMjAgMTkiPiYjeGE7CTxzdHlsZSB0eXBlPSJ0ZXh0L2NzcyI+JiN4YTsJLnN0MHtmaWxsOiM0Mjg1ZjQ7fSYjeGE7CS5zdDF7ZmlsbDojNjY5ZGY2O30mI3hhOwkuc3Qye2ZpbGw6I2FlY2JmYTt9JiN4YTsJPC9zdHlsZT4mI3hhOwk8ZyBjbGFzcz0ic3QwIj4mI3hhOwkJPHBhdGggZD0iTTQgOWg0djJINHptLTIgN2g2djJIMnoiLz4mI3hhOwkJPHBhdGggZD0iTTQgNEgydjEyaDJ6Ii8+JiN4YTsJPC9nPiYjeGE7CTxwYXRoIGNsYXNzPSJzdDEiIGQ9Ik0yMCAxSDd2NGgxM3ptMCA3SDd2NGgxM3ptMCA3SDd2NGgxM3oiLz4mI3hhOwk8cGF0aCBjbGFzcz0ic3QyIiBkPSJNNiAwSDB2Nmg2eiIvPiYjeGE7PC9zdmc+;" vertex="1" parent="2q1pVqS0Al537EC6Pk_O-356">
          <mxGeometry width="30" height="28" relative="1" as="geometry">
            <mxPoint x="15" y="16" as="offset" />
          </mxGeometry>
        </mxCell>
        <mxCell id="2q1pVqS0Al537EC6Pk_O-361" value="" style="strokeColor=#dddddd;shadow=1;strokeWidth=1;rounded=1;absoluteArcSize=1;arcSize=2;" vertex="1" parent="2q1pVqS0Al537EC6Pk_O-338">
          <mxGeometry x="600" y="160" width="230" height="60" as="geometry" />
        </mxCell>
        <mxCell id="2q1pVqS0Al537EC6Pk_O-362" value="Cloud Storage&lt;br&gt;/logging/server/YYYYMMDD" style="editableCssRules=.*;html=1;fontColor=#999999;shape=image;verticalLabelPosition=middle;labelBackgroundColor=#ffffff;verticalAlign=middle;labelPosition=right;align=left;spacingLeft=20;part=1;points=[];imageAspect=0;image=data:image/svg+xml,PHN2ZyB4bWxucz0iaHR0cDovL3d3dy53My5vcmcvMjAwMC9zdmciIHhtbG5zOnY9Imh0dHBzOi8vdmVjdGEuaW8vbmFubyIgd2lkdGg9IjIwIiBoZWlnaHQ9IjE2IiB2aWV3Qm94PSIwIDAgMjAgMTYiPiYjeGE7CTxzdHlsZSB0eXBlPSJ0ZXh0L2NzcyI+JiN4YTsJLnN0MHtmaWxsOiM0Mjg1ZjQ7fSYjeGE7CS5zdDF7ZmlsbDojNjY5ZGY2O30mI3hhOwkuc3Qye2ZpbGw6I2FlY2JmYTt9JiN4YTsJLnN0M3tmaWxsOiNmZmY7fSYjeGE7CTwvc3R5bGU+JiN4YTsJPHBhdGggY2xhc3M9InN0MiIgZD0iTTAgMGgyMHY3SDB6Ii8+JiN4YTsJPHBhdGggY2xhc3M9InN0MSIgZD0iTTE4IDBoMnY3aC0yeiIvPiYjeGE7CTxwYXRoIGNsYXNzPSJzdDAiIGQ9Ik0xOCA3bDItN2gtMnoiLz4mI3hhOwk8cGF0aCBjbGFzcz0ic3QxIiBkPSJNMCAwaDJ2N0gweiIvPiYjeGE7CTxnIGNsYXNzPSJzdDMiPiYjeGE7CQk8cGF0aCBkPSJNNCAzaDZ2MUg0eiIvPiYjeGE7CQk8cmVjdCB4PSIxMyIgeT0iMiIgd2lkdGg9IjMiIGhlaWdodD0iMyIgcng9IjEuNSIvPiYjeGE7CTwvZz4mI3hhOwk8cGF0aCBjbGFzcz0ic3QyIiBkPSJNMCA5aDIwdjdIMHoiLz4mI3hhOwk8cGF0aCBjbGFzcz0ic3QxIiBkPSJNMTggOWgydjdoLTJ6Ii8+JiN4YTsJPHBhdGggY2xhc3M9InN0MCIgZD0iTTE4IDE2bDItN2gtMnoiLz4mI3hhOwk8cGF0aCBjbGFzcz0ic3QxIiBkPSJNMCA5aDJ2N0gweiIvPiYjeGE7CTxnIGNsYXNzPSJzdDMiPiYjeGE7CQk8cGF0aCBkPSJNNCAxMmg2djFINHoiLz4mI3hhOwkJPHJlY3QgeD0iMTMiIHk9IjExIiB3aWR0aD0iMyIgaGVpZ2h0PSIzIiByeD0iMS41Ii8+JiN4YTsJPC9nPiYjeGE7PC9zdmc+;" vertex="1" parent="2q1pVqS0Al537EC6Pk_O-361">
          <mxGeometry width="30" height="24" relative="1" as="geometry">
            <mxPoint x="15" y="18" as="offset" />
          </mxGeometry>
        </mxCell>
        <mxCell id="2q1pVqS0Al537EC6Pk_O-366" style="edgeStyle=orthogonalEdgeStyle;rounded=0;orthogonalLoop=1;jettySize=auto;html=1;entryX=0;entryY=0.5;entryDx=0;entryDy=0;" edge="1" parent="2q1pVqS0Al537EC6Pk_O-338" target="2q1pVqS0Al537EC6Pk_O-361">
          <mxGeometry relative="1" as="geometry">
            <mxPoint x="529.9999999999995" y="140" as="sourcePoint" />
            <mxPoint x="610" y="200" as="targetPoint" />
            <Array as="points">
              <mxPoint x="530" y="190" />
            </Array>
          </mxGeometry>
        </mxCell>
        <mxCell id="2q1pVqS0Al537EC6Pk_O-368" style="edgeStyle=orthogonalEdgeStyle;rounded=0;orthogonalLoop=1;jettySize=auto;html=1;entryX=1;entryY=0.5;entryDx=0;entryDy=0;" edge="1" parent="2q1pVqS0Al537EC6Pk_O-338" source="2q1pVqS0Al537EC6Pk_O-364" target="2q1pVqS0Al537EC6Pk_O-347">
          <mxGeometry relative="1" as="geometry" />
        </mxCell>
        <mxCell id="2q1pVqS0Al537EC6Pk_O-364" value="" style="strokeColor=#dddddd;shadow=1;strokeWidth=1;rounded=1;absoluteArcSize=1;arcSize=2;" vertex="1" parent="2q1pVqS0Al537EC6Pk_O-338">
          <mxGeometry x="440" y="80" width="188.75" height="60" as="geometry" />
        </mxCell>
        <mxCell id="2q1pVqS0Al537EC6Pk_O-365" value="Collect Logs&lt;br&gt;Cloud&lt;br&gt;Functions" style="editableCssRules=.*;html=1;fontColor=#999999;shape=image;verticalLabelPosition=middle;labelBackgroundColor=#ffffff;verticalAlign=middle;labelPosition=right;align=left;spacingLeft=20;part=1;points=[];imageAspect=0;image=data:image/svg+xml,PHN2ZyB4bWxucz0iaHR0cDovL3d3dy53My5vcmcvMjAwMC9zdmciIHhtbG5zOnY9Imh0dHBzOi8vdmVjdGEuaW8vbmFubyIgd2lkdGg9IjIwIiBoZWlnaHQ9IjE5Ljk4OTk5OTc3MTExODE2NCIgdmlld0JveD0iMCAwIDIwIDE5Ljk4OTk5OTc3MTExODE2NCI+JiN4YTsJPHN0eWxlIHR5cGU9InRleHQvY3NzIj4mI3hhOwkuc3Qwe2ZpbGw6IzQyODVmNDt9JiN4YTsJLnN0MXtmaWxsOiM2NjlkZjY7fSYjeGE7CS5zdDJ7ZmlsbDojYWVjYmZhO30mI3hhOwk8L3N0eWxlPiYjeGE7CTxwYXRoIGNsYXNzPSJzdDEiIGQ9Ik0zIDMuOTlMMCA2LjQydjcuMTNsMyAyLjQ0eiIvPiYjeGE7CTxwYXRoIGNsYXNzPSJzdDAiIGQ9Ik0zIDMuOTlsLTMgNCAzLTJ6bS0zIDhsMyA0di0yeiIvPiYjeGE7CTxwYXRoIGNsYXNzPSJzdDIiIGQ9Ik0wIDE1Ljk5bDQgNCAyLTItNi02em0uMDEtOEw1Ljk5IDJsLTItMkwwIDMuOTl6Ii8+JiN4YTsJPHBhdGggY2xhc3M9InN0MSIgZD0iTTE3IDE2bDMtMi40MlY2LjQ0TDE3IDR6Ii8+JiN4YTsJPHBhdGggY2xhc3M9InN0MCIgZD0iTTE3IDE2bDMtNC0zIDJ6bTMtOGwtMy00djJ6Ii8+JiN4YTsJPGcgY2xhc3M9InN0MiI+JiN4YTsJCTxwYXRoIGQ9Ik0yMCA0bC00LTQtMiAyIDYgNnptLS4wMSA4bC01Ljk4IDUuOTkgMiAyTDIwIDE2eiIvPiYjeGE7CQk8Y2lyY2xlIGN4PSI2IiBjeT0iOS45OSIgcj0iMSIvPiYjeGE7CQk8Y2lyY2xlIGN4PSIxMCIgY3k9IjkuOTkiIHI9IjEiLz4mI3hhOwkJPGNpcmNsZSBjeD0iMTMuOTkiIGN5PSI5Ljk5IiByPSIxIi8+JiN4YTsJPC9nPiYjeGE7PC9zdmc+;" vertex="1" parent="2q1pVqS0Al537EC6Pk_O-364">
          <mxGeometry width="30" height="24" relative="1" as="geometry">
            <mxPoint x="15" y="18" as="offset" />
          </mxGeometry>
        </mxCell>
        <mxCell id="2q1pVqS0Al537EC6Pk_O-369" value="" style="editableCssRules=.*;html=1;shape=image;verticalLabelPosition=bottom;labelBackgroundColor=#ffffff;verticalAlign=top;aspect=fixed;imageAspect=0;image=data:image/svg+xml,PHN2ZyB4bWxucz0iaHR0cDovL3d3dy53My5vcmcvMjAwMC9zdmciIHhtbG5zOnY9Imh0dHBzOi8vdmVjdGEuaW8vbmFubyIgd2lkdGg9IjM2MC4zMDM3NjY4NjA4MzYzIiBoZWlnaHQ9IjM3OC4wNTExNTgwNzc0MDg4IiB2aWV3Qm94PSItMC4wMDAxNjI0MjExNDM2MTM3NTU3IC0wLjAwMDEwMDAwNTk0OTIwNzExNTkyIDk1LjMzMDI2MTIzMDQ2ODc1IDEwMC4wMjYxMDAxNTg2OTE0Ij4mI3hhOzxzdHlsZSB0eXBlPSJ0ZXh0L2NzcyI+JiN4YTsJLnN0MHtmaWxsOiM0Mjg1ZjQ7fSYjeGE7CS5zdDF7ZmlsbDojYWVjYmZhO30mI3hhOwkuc3Qye2ZpbGw6IzY2OWRmNjt9JiN4YTs8L3N0eWxlPiYjeGE7CTxwYXRoIGNsYXNzPSJzdDAiIGQ9Ik03OS45NzEgNzcuNzE1bC03LjM1OSA3LjQ4OCA4LjYzOSA4LjQ5IDcuMzU5LTcuNDg4em0tNjUuMDk2LjA2MWwtOC42NDEgOC40OTIgNy4zNjEgNy40ODggOC42MzktOC40OXoiLz4mI3hhOwk8cGF0aCBjbGFzcz0ic3QxIiBkPSJNNzkuNTUzLjIyMWE1LjI1IDUuMjUgMCAwIDAtMy42NiA4Ljk4NEw4Ni4zODkgMTkuNThhNS4yNSA1LjI1IDAgMCAwIDguOTQxLTMuNzY1IDUuMjUgNS4yNSAwIDAgMC0xLjU2LTMuNzA0TDgzLjI3NSAxLjczOEE1LjI1IDUuMjUgMCAwIDAgNzkuNTUzLjIyMXpNMTUuOTE2IDBhNS4yNSA1LjI1IDAgMCAwLTMuNzIzIDEuNTE2TDEuNjk5IDExLjg5MWE1LjI1IDUuMjUgMCAwIDAtLjA0MyA3LjQyNCA1LjI1IDUuMjUgMCAwIDAgNy40MjQuMDQzTDE5LjU3NiA4Ljk4MkE1LjI1IDUuMjUgMCAwIDAgMTUuOTE2IDB6Ii8+JiN4YTsJPHBhdGggY2xhc3M9InN0MCIgZD0iTTQ4LjEzOCAyNi4yNGMxMy4zNDcgMCAyNS40MzIgMTEuMTM2IDI1LjMxIDI2LjQ4MSAwIDE1LjExLTEyLjI2NyAyNS42NzMtMjUuMTg5IDI1LjY3My0xMS4xNDkgMC0xOC4zMTctNS4xNzEtMjEuOTYtMTAuNzM4bDIxLjgzOS0xNS4wOTd6Ii8+JiN4YTsJPHBhdGggY2xhc3M9InN0MiIgZD0iTTgxLjI1IDkzLjY5M2w0LjY2NCA0LjU4NmE1LjI1IDUuMjUgMCAxIDAgNy4zNjEtNy40OWwtNC42NjYtNC41ODR6TTYuMjM0IDg2LjI2OEwxLjU3IDkwLjg1MWE1LjI1IDUuMjUgMCAwIDAtLjA2NSA3LjQyNCA1LjI1IDUuMjUgMCAwIDAgNy40MjQuMDY0bDQuNjY2LTQuNTg0ek00Ny4zNzEgNS41NzhDMjEuMzQ5IDUuNTc4LjE0NiAyNi43NzkuMTQ2IDUyLjgwMXMyMS4yMDMgNDcuMjI1IDQ3LjIyNSA0Ny4yMjUgNDcuMjI1LTIxLjIwMyA0Ny4yMjUtNDcuMjI1UzczLjM5MyA1LjU3OCA0Ny4zNzEgNS41Nzh6bTAgMTBhMzcuMTUgMzcuMTUgMCAwIDEgMzcuMjI1IDM3LjIyM2MwIDIwLjYxNy0xNi42MDcgMzcuMjI1LTM3LjIyNSAzNy4yMjVTMTAuMTQ2IDczLjQxOCAxMC4xNDYgNTIuODAxYTM3LjE1IDM3LjE1IDAgMCAxIDM3LjIyNS0zNy4yMjN6Ii8+JiN4YTs8L3N2Zz4=;" vertex="1" parent="2q1pVqS0Al537EC6Pk_O-364">
          <mxGeometry x="160.25" y="-15" width="28.5" height="30" as="geometry" />
        </mxCell>
      </root>
    </mxGraphModel>
  </diagram>
</mxfile>
